<svg width="152" height="152" viewBox="0 0 152 152" fill="none" xmlns="http://www.w3.org/2000/svg">
<path d="M52.5625 98.9977C52.9945 98.9977 53.3438 98.6485 53.3438 98.2164V96.6555C53.3438 94.9321 54.7453 93.5305 56.4688 93.5305H58.4375L61.3273 97.1438C61.3438 97.1641 61.3695 97.1727 61.3875 97.1914C61.4102 97.2149 61.4234 97.2446 61.4492 97.2656C61.482 97.2922 61.5211 97.3047 61.5563 97.325C61.5844 97.3407 61.6094 97.3586 61.6391 97.3711C61.7352 97.411 61.8352 97.4375 61.9367 97.4375H61.9375H61.9383C62.0398 97.4375 62.1398 97.411 62.2367 97.3711C62.2648 97.3586 62.2891 97.3422 62.3164 97.3266C62.3531 97.3063 62.393 97.293 62.4266 97.2664C62.4539 97.2446 62.468 97.2141 62.4906 97.1891C62.5078 97.1711 62.532 97.1641 62.5477 97.1438L65.4445 93.5305H67.4063C69.1297 93.5305 70.5313 94.9321 70.5313 96.6555V98.2164C70.5313 98.6485 70.8805 98.9977 71.3125 98.9977C71.7445 98.9977 72.0938 98.6485 72.0938 98.2164V96.6555C72.0938 94.0703 69.9914 91.968 67.4063 91.968H65.8438V90.1289C68.1742 88.7758 69.75 86.2586 69.75 83.375V83.1485C70.2438 83.8914 70.5328 84.7821 70.5328 85.7391C70.5328 86.1711 70.882 86.5203 71.3141 86.5203C71.7461 86.5203 72.0953 86.1711 72.0953 85.7391C72.0953 85.7375 72.0953 85.736 72.0953 85.7344C72.0953 85.7336 72.0953 85.7336 72.0953 85.7328V79.086C72.0953 79.0821 72.093 79.0789 72.093 79.0758C72.0875 74.1274 68.0609 70.1031 63.1117 70.1031C60.7 70.1031 58.5148 70.9461 56.9102 72.4672C55.3547 72.6399 54.1359 73.9438 54.1281 75.543C54.1281 75.5485 54.125 75.5531 54.125 75.5586V83.375C54.125 86.2586 55.7008 88.7766 58.0313 90.1297V91.968H56.4688C53.8836 91.968 51.7812 94.0703 51.7812 96.6555V98.2164C51.7812 98.6485 52.1305 98.9977 52.5625 98.9977ZM70.5313 79.0875C70.5313 79.0907 70.5328 79.0922 70.5328 79.0953V81.6172C69.4063 80.3352 67.7688 79.5172 65.9391 79.4883C65.907 79.4836 65.8789 79.4688 65.8461 79.4688H59.6109C59.6055 79.4688 59.6008 79.4656 59.5953 79.4656C58.7336 79.4656 58.0336 78.7641 58.0336 77.9016C58.0336 77.8977 58.0313 77.8938 58.0313 77.8899L58.0328 73.5563C59.3422 72.3391 61.1289 71.6664 63.1117 71.6664C67.2023 71.6672 70.5313 74.9953 70.5313 79.0875ZM56.4703 74.2141L56.4688 77.9047C56.4688 78.4797 56.1523 78.9789 55.6875 79.25V75.5672C55.6875 75.5641 55.6891 75.5625 55.6891 75.5594C55.6891 74.9844 56.0055 74.486 56.4703 74.2141ZM55.6875 83.3758V80.9188C56.3055 80.7578 56.8438 80.4141 57.2523 79.9477C57.8195 80.5969 58.6406 81.0164 59.5664 81.025C59.5773 81.0258 59.5852 81.0313 59.5961 81.0313H65.7719C65.7953 81.0336 65.8156 81.0453 65.8398 81.0453C66.6961 81.0453 67.4961 81.2797 68.1875 81.6813V83.3758C68.1875 86.8211 65.3828 89.6242 61.9359 89.6242C58.4906 89.6242 55.6875 86.8211 55.6875 83.3758ZM61.9359 91.1867C62.7531 91.1867 63.5406 91.0594 64.2813 90.8258V92.4828L61.9383 95.4047L59.5938 92.4735V90.8266C60.3336 91.0602 61.1203 91.1867 61.9359 91.1867Z" fill="#EF9034"/>
<path d="M73.1035 69.0985C73.2504 69.2453 73.4488 69.3274 73.6559 69.3274H73.6566L85.248 69.318L89.816 70.8399C89.8973 70.8672 89.9801 70.8805 90.0629 70.8805C90.2246 70.8805 90.3848 70.8305 90.5191 70.7336C90.723 70.5867 90.8441 70.3516 90.8441 70.1L90.8449 69.318H92.4066C92.8387 69.318 93.1879 68.9688 93.1879 68.5367V49.7828C93.1879 49.3508 92.8387 49.0016 92.4066 49.0016H73.6559C73.2238 49.0016 72.8746 49.3508 72.8746 49.7828V54.4758H61.9355C61.5035 54.4758 61.1543 54.825 61.1543 55.2571V65.4102C61.1543 65.8422 61.5035 66.1914 61.9355 66.1914H63.498V66.9727C63.498 67.2321 63.627 67.4742 63.841 67.6196C63.9723 67.7078 64.1246 67.7539 64.2793 67.7539C64.3777 67.7539 64.4762 67.736 64.5691 67.6985L68.3348 66.1914L72.8746 66.1992V68.5461C72.8746 68.7531 72.9566 68.9516 73.1035 69.0985ZM74.4371 50.5641H91.6254V67.7555H90.0644C89.6332 67.7555 89.284 68.1047 89.2832 68.536L89.2824 69.0156L85.6215 67.7953C85.541 67.7688 85.4582 67.7547 85.3746 67.7547H85.3738L74.4371 67.7641V50.5641ZM68.1871 64.6289C68.1863 64.6289 68.1863 64.6289 68.1855 64.6289C68.0863 64.6289 67.9879 64.6477 67.8957 64.6844L65.0605 65.8188V65.4102C65.0605 64.9781 64.7113 64.6289 64.2793 64.6289H62.7168V56.0383H72.8746V64.6367L68.1871 64.6289Z" fill="#EF9034"/>
<path d="M84.6 71.6579C83.3078 71.6579 82.2562 72.7094 82.2562 74.0016V80.2188C82.2555 80.2298 82.25 80.2384 82.25 80.2493V83.3446C82.25 83.3509 82.2531 83.3555 82.2531 83.361C82.2531 83.3665 82.25 83.3712 82.25 83.3774C82.25 86.261 83.825 88.779 86.1562 90.1321V91.9688H84.5938C82.0086 91.9688 79.9062 94.0712 79.9062 96.6563V98.2165C79.9062 98.6485 80.2555 98.9977 80.6875 98.9977C81.1195 98.9977 81.4688 98.6485 81.4688 98.2165V96.6563C81.4688 94.9329 82.8703 93.5313 84.5938 93.5313H86.3477L87.7484 98.4321C87.8469 98.7751 88.1594 98.9993 88.4992 98.9993C88.5711 98.9993 88.643 98.9891 88.7141 98.9696C89.1289 98.8509 89.3695 98.418 89.2516 98.004L88.175 94.2368C88.1781 94.2384 88.182 94.2376 88.1852 94.2391C88.2836 94.2829 88.3883 94.3126 88.4969 94.3126C88.4977 94.3126 88.4984 94.3134 88.4992 94.3134H88.5H88.5008C88.5016 94.3134 88.5023 94.3126 88.5031 94.3126C88.6125 94.3126 88.7164 94.2829 88.8148 94.2391C88.8266 94.2337 88.8383 94.236 88.8492 94.2305L90.0625 93.6235L91.2758 94.2298C91.2867 94.2352 91.2984 94.2329 91.3102 94.2384C91.4086 94.2821 91.5133 94.3118 91.6219 94.3118C91.6227 94.3118 91.6234 94.3126 91.6242 94.3126H91.625H91.6258C91.6266 94.3126 91.6273 94.3118 91.6281 94.3118C91.7375 94.3118 91.8414 94.2821 91.9398 94.2384C91.943 94.2368 91.9469 94.2376 91.95 94.236L90.8734 98.0032C90.7555 98.4173 90.9953 98.8501 91.4109 98.9688C91.4828 98.9884 91.5547 98.9985 91.6258 98.9985C91.9656 98.9985 92.2781 98.7751 92.3766 98.4313L93.7773 93.5313H95.5312C97.2547 93.5313 98.6562 94.9329 98.6562 96.6563V98.2165C98.6562 98.6485 99.0055 98.9977 99.4375 98.9977C99.8695 98.9977 100.219 98.6485 100.219 98.2165V96.6563C100.219 94.0712 98.1164 91.9688 95.5312 91.9688H93.9688V90.1305C96.3 88.7782 97.875 86.2602 97.875 83.3766V83.3759V83.3751V80.3384C97.8766 80.3196 97.8867 80.3016 97.8867 80.2821V74.0009C97.8867 72.7087 96.8352 71.6571 95.543 71.6571H84.6V71.6579ZM92.4062 92.2673L91.625 92.6579L90.4117 92.0516C90.3945 92.043 90.375 92.0438 90.3578 92.0368C90.3086 92.0165 90.2586 92.0063 90.207 91.9962C90.1578 91.9868 90.1117 91.9774 90.0625 91.9774C90.0133 91.9774 89.9672 91.9876 89.918 91.9962C89.8664 92.0063 89.8156 92.0157 89.7672 92.0368C89.75 92.0438 89.7305 92.043 89.7133 92.0516L88.5 92.6579L87.7188 92.2673V90.8282C88.4586 91.0618 89.2453 91.1884 90.0617 91.1884C90.8781 91.1884 91.6656 91.0618 92.4062 90.8282V92.2673ZM90.0617 89.6259C86.6156 89.6259 83.8125 86.8227 83.8125 83.3774C83.8125 83.3712 83.8094 83.3665 83.8094 83.361C83.8094 83.3548 83.8125 83.3501 83.8125 83.3446V81.0641H96.3125V83.3759V83.3766V83.3774C96.3125 86.8227 93.5086 89.6259 90.0617 89.6259ZM96.3242 74.0016V79.5016H83.8187V74.0016C83.8187 73.5704 84.1687 73.2204 84.6 73.2204H95.543C95.9734 73.2204 96.3242 73.5704 96.3242 74.0016Z" fill="#EF9034"/>
<path d="M91.6236 75.5789H90.8416V74.7828C90.8416 74.3508 90.4924 74.0016 90.0604 74.0016C89.6283 74.0016 89.2791 74.3508 89.2791 74.7828V75.5789H88.4971C88.065 75.5789 87.7158 75.9281 87.7158 76.3602C87.7158 76.7922 88.065 77.1414 88.4971 77.1414H89.2791V77.9172C89.2791 78.3492 89.6283 78.6985 90.0604 78.6985C90.4924 78.6985 90.8416 78.3492 90.8416 77.9172V77.1414H91.6236C92.0557 77.1414 92.4049 76.7922 92.4049 76.3602C92.4049 75.9281 92.0557 75.5789 91.6236 75.5789Z" fill="#EF9034"/>
<path d="M89.2812 59.1571C89.2812 55.711 86.4773 52.9071 83.0312 52.9071C79.5852 52.9071 76.7812 55.711 76.7812 59.1571C76.7812 62.6032 79.5852 65.4071 83.0312 65.4071C86.4773 65.4071 89.2812 62.6032 89.2812 59.1571ZM83.0312 63.8446C80.4461 63.8446 78.3438 61.7423 78.3438 59.1571C78.3438 56.5719 80.4461 54.4696 83.0312 54.4696C85.6164 54.4696 87.7188 56.5719 87.7188 59.1571C87.7188 61.7423 85.6164 63.8446 83.0312 63.8446Z" fill="#EF9034"/>
<path d="M85.375 58.3741H83.8125V56.8116C83.8125 56.3796 83.4633 56.0304 83.0312 56.0304C82.5992 56.0304 82.25 56.3796 82.25 56.8116V58.3741H80.6875C80.2555 58.3741 79.9062 58.7234 79.9062 59.1554C79.9062 59.5874 80.2555 59.9366 80.6875 59.9366H82.25V61.4991C82.25 61.9312 82.5992 62.2804 83.0312 62.2804C83.4633 62.2804 83.8125 61.9312 83.8125 61.4991V59.9366H85.375C85.807 59.9366 86.1562 59.5874 86.1562 59.1554C86.1562 58.7234 85.807 58.3741 85.375 58.3741Z" fill="#EF9034"/>
<g filter="url(#filter0_d)">
<circle r="55" transform="matrix(-1 -8.74228e-08 -8.74228e-08 1 76 76)" stroke="#67A21A" stroke-width="2"/>
</g>
<defs>
<filter id="filter0_d" x="0" y="0" width="152" height="152" filterUnits="userSpaceOnUse" color-interpolation-filters="sRGB">
<feFlood flood-opacity="0" result="BackgroundImageFix"/>
<feColorMatrix in="SourceAlpha" type="matrix" values="0 0 0 0 0 0 0 0 0 0 0 0 0 0 0 0 0 0 127 0"/>
<feOffset/>
<feGaussianBlur stdDeviation="10"/>
<feColorMatrix type="matrix" values="0 0 0 0 0 0 0 0 0 0 0 0 0 0 0 0 0 0 0.15 0"/>
<feBlend mode="normal" in2="BackgroundImageFix" result="effect1_dropShadow"/>
<feBlend mode="normal" in="SourceGraphic" in2="effect1_dropShadow" result="shape"/>
</filter>
</defs>
</svg>
