<svg width="152" height="152" viewBox="0 0 152 152" fill="none" xmlns="http://www.w3.org/2000/svg">
<g filter="url(#filter0_d)">
<circle r="55" transform="matrix(-1 -8.74228e-08 -8.74228e-08 1 76 76)" stroke="#67A21A" stroke-width="2"/>
</g>
<g clip-path="url(#clip0)">
<path d="M51.3868 101.082C51.5093 101.154 51.6491 101.191 51.7914 101.191C51.9138 101.191 52.0347 101.162 52.1441 101.107L68.0583 92.8772L83.445 101.102C83.6635 101.219 83.9253 101.221 84.1455 101.108L100.565 92.6962C100.823 92.5699 100.99 92.3119 101 92.0252V53.6152C100.989 53.3491 100.843 53.1071 100.614 52.9716C100.385 52.836 100.103 52.8259 99.8643 52.9442L83.8129 61.1768L68.4211 53.0785C68.2039 52.9644 67.945 52.9627 67.7262 53.0739L51.4373 61.3548C51.1785 61.4807 51.0105 61.7392 51 62.0271V100.437C51.0097 100.704 51.1557 100.947 51.3868 101.082ZM83.0043 99.1394L68.7802 91.5673V54.9895L83.0043 62.4434V99.1394ZM99.4914 91.5647L84.5129 99.2396V62.525L99.4914 54.8502V91.5647ZM52.5086 62.4893L67.2716 54.9824V91.5719L52.5086 99.1975V62.4893Z" fill="#EF9034"/>
<path d="M87.525 70.2265C87.6445 70.2265 87.7624 70.1979 87.8689 70.1432L97.0212 65.4473C97.2637 65.3256 97.4219 65.0836 97.4362 64.8129C97.4505 64.5418 97.3184 64.2846 97.0902 64.1382C96.8621 63.9917 96.5729 63.979 96.3326 64.1049L87.1802 68.8012C86.87 68.9599 86.7092 69.311 86.7913 69.6498C86.873 69.9883 87.1765 70.2269 87.525 70.2265Z" fill="#EF9034"/>
<path d="M87.5254 75.5441C87.6449 75.5437 87.7628 75.5155 87.8693 75.4603L97.0216 70.7644C97.264 70.6427 97.4223 70.4007 97.4366 70.13C97.4509 69.8594 97.3188 69.6018 97.0906 69.4553C96.8625 69.3088 96.5733 69.2962 96.3329 69.422L87.1806 74.1184C86.8704 74.2771 86.7092 74.6281 86.7913 74.967C86.8733 75.3058 87.1768 75.5445 87.5254 75.5441Z" fill="#EF9034"/>
<path d="M96.3331 74.7403L87.1807 79.4362C86.9395 79.5587 86.7825 79.8003 86.7691 80.0701C86.7552 80.3399 86.8869 80.5967 87.1142 80.7428C87.3411 80.8892 87.6295 80.9027 87.8694 80.7785L97.0217 76.0822C97.2642 75.961 97.4225 75.7185 97.4368 75.4479C97.4511 75.1772 97.3189 74.9196 97.0908 74.7731C96.8626 74.6266 96.5734 74.614 96.3331 74.7403Z" fill="#EF9034"/>
<path d="M64.0663 76.9731L54.9136 81.6694C54.6728 81.7919 54.5158 82.0336 54.5019 82.3034C54.4885 82.5736 54.6198 82.83 54.8471 82.9764C55.0744 83.1225 55.3627 83.136 55.6027 83.0118L64.755 78.3155C64.9958 78.193 65.1532 77.9514 65.1667 77.6815C65.1805 77.4117 65.0488 77.155 64.8215 77.0089C64.5942 76.8624 64.3063 76.8489 64.0663 76.9731Z" fill="#EF9034"/>
<path d="M64.0663 82.2912L54.9136 86.9871C54.6728 87.1096 54.5158 87.3512 54.5019 87.6215C54.4885 87.8913 54.6198 88.1476 54.8471 88.2941C55.0744 88.4402 55.3627 88.4537 55.6027 88.3295L64.755 83.6332C64.9958 83.5111 65.1532 83.269 65.1667 82.9992C65.1805 82.7294 65.0488 82.4726 64.8215 82.3266C64.5942 82.1801 64.3063 82.1666 64.0663 82.2912Z" fill="#EF9034"/>
<path d="M80.5836 74.3323L72.1183 69.8772C71.7504 69.6878 71.2983 69.8305 71.1055 70.1967C70.9127 70.5629 71.0512 71.0162 71.4157 71.2124L79.8811 75.6671C80.1197 75.7955 80.4089 75.7858 80.6388 75.6419C80.8686 75.4979 81.0033 75.242 80.9919 74.9713C80.9806 74.7002 80.8244 74.4565 80.5836 74.3323Z" fill="#EF9034"/>
<path d="M71.4163 64.8309L79.8817 69.2857C80.1204 69.414 80.4095 69.4044 80.6394 69.2604C80.8692 69.1164 81.0039 68.8605 80.9925 68.5894C80.9812 68.3188 80.825 68.0746 80.5842 67.9509L72.1188 63.4957C71.7501 63.3017 71.2942 63.4435 71.1002 63.8119C70.9061 64.1806 71.0476 64.6369 71.4163 64.8309Z" fill="#EF9034"/>
<path d="M64.7801 62.1114C64.5599 61.9741 64.2842 61.964 64.0544 62.084L54.934 66.7799C54.6903 66.9129 54.5434 67.1735 54.5565 67.4509V73.8322C54.5464 74.0911 54.6735 74.3361 54.8911 74.4758C55.0048 74.5482 55.1369 74.5865 55.2716 74.5865C55.3891 74.5865 55.5048 74.5579 55.6092 74.5036L64.7342 69.8073C64.9796 69.6751 65.1278 69.4145 65.1168 69.1363V62.755C65.1261 62.4961 64.9981 62.2511 64.7801 62.1114ZM63.6082 68.6754L56.0651 72.5972V67.9118L63.6082 63.9896V68.6754Z" fill="#EF9034"/>
<path d="M80.5689 81.7766L72.1116 77.3215C71.8843 77.1986 71.609 77.207 71.3897 77.3434C71.1678 77.4819 71.0361 77.7277 71.0432 77.9891V85.4341C71.0374 85.7115 71.1868 85.9691 71.4313 86.1013L79.8887 90.5564C79.9956 90.6133 80.1152 90.6431 80.2364 90.6431C80.3686 90.6431 80.4978 90.6053 80.6093 90.5345C80.8316 90.3961 80.9638 90.1502 80.957 89.8888V82.4438C80.9629 82.1664 80.8135 81.9088 80.5689 81.7766ZM79.4484 88.6395L72.5519 84.9787V79.2384L79.4484 82.8993V88.6395Z" fill="#EF9034"/>
</g>
<defs>
<filter id="filter0_d" x="0" y="0" width="152" height="152" filterUnits="userSpaceOnUse" color-interpolation-filters="sRGB">
<feFlood flood-opacity="0" result="BackgroundImageFix"/>
<feColorMatrix in="SourceAlpha" type="matrix" values="0 0 0 0 0 0 0 0 0 0 0 0 0 0 0 0 0 0 127 0"/>
<feOffset/>
<feGaussianBlur stdDeviation="10"/>
<feColorMatrix type="matrix" values="0 0 0 0 0 0 0 0 0 0 0 0 0 0 0 0 0 0 0.15 0"/>
<feBlend mode="normal" in2="BackgroundImageFix" result="effect1_dropShadow"/>
<feBlend mode="normal" in="SourceGraphic" in2="effect1_dropShadow" result="shape"/>
</filter>
<clipPath id="clip0">
<rect width="50" height="50" fill="white" transform="translate(51 52)"/>
</clipPath>
</defs>
</svg>
