<svg width="152" height="152" viewBox="0 0 152 152" fill="none" xmlns="http://www.w3.org/2000/svg">
<g filter="url(#filter0_d)">
<circle r="55" transform="matrix(-1 -8.74228e-08 -8.74228e-08 1 76 76)" stroke="#67A21A" stroke-width="2"/>
</g>
<g clip-path="url(#clip0)" filter="url(#filter1_d)">
<path d="M50.9876 70.8019C51.0865 70.8224 53.4355 71.3104 55.4197 71.9052C58.0747 72.7009 59.5974 74.3768 59.5974 76.5026L59.5974 86.0988L66.3186 86.0988C67.9785 86.0988 69.3291 87.4493 69.3291 89.1093L69.3291 101.589L67.6871 101.589L67.6871 89.1093C67.6871 88.3547 67.0733 87.7409 66.3187 87.7409L57.9553 87.7409L57.9553 76.5027C57.9553 74.6553 56.0713 73.8147 54.9483 73.4782C53.8072 73.1362 52.5097 72.8242 51.6423 72.6268L51.6423 88.5758C51.6423 90.5376 53.2384 92.1337 55.2003 92.1337L64.2904 92.1337L65.477 101.589L63.8484 101.589L62.8456 93.7758L55.2001 93.7758C52.3328 93.7758 50.0001 91.443 50.0001 88.5758L50.0001 70.5977L50.9876 70.8019Z" fill="#EF9034"/>
<path d="M54.7618 57.9784L54.7627 57.9784C57.3286 57.9784 59.427 60.0181 59.5211 62.5613L61.8179 67.8311L59.5244 67.8311L59.5244 70.5679L54.9812 70.5679C52.2347 70.5679 50.0002 68.3334 50.0002 65.5868L50.0002 62.74C50.0002 60.1145 52.1363 57.9784 54.7618 57.9784ZM51.6422 65.5868C51.6422 67.428 53.1402 68.9258 54.9812 68.9258L57.8822 68.9258L57.8822 66.1889L59.3109 66.1889L57.8822 62.9113L57.8822 62.7401C57.8822 61.02 56.4828 59.6206 54.7626 59.6206L54.7617 59.6206C53.0416 59.6206 51.6421 61.02 51.6421 62.7401L51.6421 65.5868L51.6422 65.5868Z" fill="#EF9034"/>
<path d="M85.6816 86.0989L92.4028 86.0989L92.4028 76.5027C92.4028 74.3768 93.9254 72.7011 96.5804 71.9053C98.5647 71.3105 100.914 70.8225 101.013 70.802L102 70.5977L102 88.5758C102 91.443 99.6672 93.7758 96.8 93.7758L89.1545 93.7758L88.1518 101.589L86.5231 101.589L87.7098 92.1337L96.8 92.1337C98.7619 92.1337 100.358 90.5376 100.358 88.5758L100.358 72.6268C99.491 72.8239 98.1939 73.1359 97.052 73.4782C95.929 73.8148 94.0449 74.6554 94.0449 76.5027L94.0449 87.741L85.6816 87.741C84.927 87.741 84.3131 88.3548 84.3131 89.1094L84.3131 101.589L82.6711 101.589L82.6711 89.1094C82.6711 87.4494 84.0216 86.0989 85.6816 86.0989Z" fill="#EF9034"/>
<path d="M92.479 62.5613C92.5733 60.0181 94.6716 57.9784 97.2374 57.9784L97.2384 57.9784C99.8638 57.9784 102 60.1145 102 62.74L102 65.5868C102 68.3334 99.7655 70.5679 97.019 70.5679L92.4758 70.5679L92.4758 67.8311L90.1823 67.8311L92.479 62.5613ZM94.118 66.1889L94.118 68.9257L97.019 68.9257C98.86 68.9257 100.358 67.4279 100.358 65.5867L100.358 62.7399C100.358 61.0198 98.9585 59.6204 97.2384 59.6204L97.2374 59.6204C95.5173 59.6204 94.1179 61.0198 94.1179 62.7399L94.1179 62.9111L92.6892 66.1888L94.118 66.1888L94.118 66.1889Z" fill="#EF9034"/>
<path d="M89.6841 77.7789L89.6841 82.7052L78.1621 82.7052L78.1621 101.589L76.5201 101.589L76.5201 82.7052L74.878 82.7052L74.878 101.589L73.236 101.589L73.236 82.7052L62.3159 82.7052L62.3159 77.7789L89.6841 77.7789ZM63.9578 81.0632L88.0419 81.0632L88.0419 79.4211L63.9577 79.4211L63.9577 81.0632L63.9578 81.0632Z" fill="#EF9034"/>
<path d="M64.8884 58.9576L64.8884 54.7895L69.4863 54.7895L69.4863 50.4105L88.6441 50.4105L88.6441 54.5786L92.6235 59.4421L88.644 59.4421L88.644 63L85.2139 63L85.2139 61.3579L87.0019 61.3579L87.0019 57.8L89.158 57.8L87.0019 55.1649L87.0019 52.0526L71.1282 52.0526L71.1282 54.7894L84.0462 54.7894L84.0462 67.3788L64.8883 67.3788L64.8883 63.8209L60.9088 63.8209L64.8884 58.9576ZM66.5305 62.179L66.5305 65.7369L82.4041 65.7369L82.4041 63L69.4862 63L69.4862 57.4861L71.1283 57.4861L71.1283 61.3579L82.4041 61.3579L82.4041 56.4315L66.5305 56.4315L66.5305 59.5438L64.3743 62.179L66.5305 62.179Z" fill="#EF9034"/>
<path d="M79.7769 71.8673L81.4189 71.8673L81.4189 73.5094L79.7769 73.5094L79.7769 71.8673Z" fill="#EF9034"/>
<path d="M75.1787 71.8673L76.8208 71.8673L76.8208 73.5094L75.1787 73.5094L75.1787 71.8673Z" fill="#EF9034"/>
<path d="M70.5811 71.8673L72.2231 71.8673L72.2231 73.5094L70.5811 73.5094L70.5811 71.8673Z" fill="#EF9034"/>
</g>
<defs>
<filter id="filter0_d" x="0" y="0" width="152" height="152" filterUnits="userSpaceOnUse" color-interpolation-filters="sRGB">
<feFlood flood-opacity="0" result="BackgroundImageFix"/>
<feColorMatrix in="SourceAlpha" type="matrix" values="0 0 0 0 0 0 0 0 0 0 0 0 0 0 0 0 0 0 127 0"/>
<feOffset/>
<feGaussianBlur stdDeviation="10"/>
<feColorMatrix type="matrix" values="0 0 0 0 0 0 0 0 0 0 0 0 0 0 0 0 0 0 0.15 0"/>
<feBlend mode="normal" in2="BackgroundImageFix" result="effect1_dropShadow"/>
<feBlend mode="normal" in="SourceGraphic" in2="effect1_dropShadow" result="shape"/>
</filter>
<filter id="filter1_d" x="30" y="30" width="92" height="92" filterUnits="userSpaceOnUse" color-interpolation-filters="sRGB">
<feFlood flood-opacity="0" result="BackgroundImageFix"/>
<feColorMatrix in="SourceAlpha" type="matrix" values="0 0 0 0 0 0 0 0 0 0 0 0 0 0 0 0 0 0 127 0"/>
<feOffset/>
<feGaussianBlur stdDeviation="10"/>
<feColorMatrix type="matrix" values="0 0 0 0 0 0 0 0 0 0 0 0 0 0 0 0 0 0 0.15 0"/>
<feBlend mode="normal" in2="BackgroundImageFix" result="effect1_dropShadow"/>
<feBlend mode="normal" in="SourceGraphic" in2="effect1_dropShadow" result="shape"/>
</filter>
<clipPath id="clip0">
<rect width="52" height="52" fill="white" transform="matrix(-1 -8.74228e-08 -8.74228e-08 1 102 50)"/>
</clipPath>
</defs>
</svg>
