<svg width="50" height="50" viewBox="0 0 50 50" fill="none" xmlns="http://www.w3.org/2000/svg">
<g clip-path="url(#clip0)">
<path d="M49.9638 10.7718C49.9638 10.7146 50.0031 10.659 50.0005 10.6025L34.7422 25.3047L49.9822 39.5372C49.9911 39.4356 49.9638 39.333 49.9638 39.2292V10.7718Z" fill="#649D1A"/>
<path d="M32.4122 27.5664L26.1834 33.5594C25.8682 33.8626 25.4611 34.0147 25.0538 34.0147C24.6549 34.0147 24.2561 33.8691 23.9431 33.5774L17.7311 27.7889L2.3916 42.5744C2.76459 42.7085 3.16494 42.8125 3.5842 42.8125H46.5235C47.1461 42.8125 47.73 42.6229 48.2377 42.34L32.4122 27.5664Z" fill="#649D1A"/>
<path d="M25.0365 30.1422L48.3227 7.71075C47.7955 7.39729 47.1818 7.18701 46.5241 7.18701H3.58471C2.72817 7.18701 1.94332 7.51959 1.33203 8.02683L25.0365 30.1422Z" fill="#649D1A"/>
<path d="M0 11.3179V39.2285C0 39.549 0.0736412 39.8579 0.153582 40.1531L15.3028 25.5647L0 11.3179Z" fill="#649D1A"/>
</g>
<defs>
<clipPath id="clip0">
<rect width="50" height="50" fill="white"/>
</clipPath>
</defs>
</svg>
