<svg width="192" height="192" viewBox="30 0 192 192" fill="none" xmlns="http://www.w3.org/2000/svg">
<circle cx="123" cy="95" r="64" stroke="#EF9034" stroke-width="2"/>
<g>
<circle cx="96" cy="96" r="56" fill="#295716"/>
</g>
<g>
<circle cx="96" cy="96" r="46" stroke="white" stroke-width="2"/>
</g>
<path d="M121.012 90.8018C120.914 90.8224 118.564 91.3104 116.58 91.9051C113.925 92.7008 112.403 94.3767 112.403 96.5025V106.099H105.681C104.021 106.099 102.671 107.449 102.671 109.109V121.589H104.313V109.109C104.313 108.355 104.927 107.741 105.681 107.741H114.045V96.5026C114.045 94.6552 115.929 93.8147 117.052 93.4781C118.193 93.1361 119.49 92.8241 120.358 92.6267V108.576C120.358 110.538 118.762 112.134 116.8 112.134H107.71L106.523 121.589H108.152L109.154 113.776H116.8C119.667 113.776 122 111.443 122 108.576V90.5976L121.012 90.8018Z" fill="white"/>
<path d="M117.238 77.9784H117.237C114.671 77.9784 112.573 80.018 112.478 82.5613L110.182 87.831H112.475V90.5678H117.018C119.765 90.5678 121.999 88.3334 121.999 85.5868V82.74C121.999 80.1144 119.863 77.9784 117.238 77.9784ZM120.357 85.5868C120.357 87.4279 118.859 88.9258 117.018 88.9258H114.117V86.1889H112.689L114.117 82.9112V82.7401C114.117 81.02 115.517 79.6205 117.237 79.6205H117.238C118.958 79.6205 120.357 81.02 120.357 82.7401V85.5868H120.357Z" fill="white"/>
<path d="M86.3184 106.099H79.5972V96.5026C79.5972 94.3767 78.0746 92.7011 75.4196 91.9052C73.4353 91.3105 71.0864 90.8225 70.9874 90.8019L70 90.5976V108.576C70 111.443 72.3328 113.776 75.2 113.776H82.8455L83.8482 121.589H85.4769L84.2902 112.134H75.2C73.2381 112.134 71.6421 110.538 71.6421 108.576V92.6267C72.509 92.8238 73.8061 93.1358 74.948 93.4781C76.071 93.8148 77.9551 94.6553 77.9551 96.5026V107.741H86.3184C87.073 107.741 87.6869 108.355 87.6869 109.109V121.589H89.3289V109.109C89.3289 107.449 87.9784 106.099 86.3184 106.099Z" fill="white"/>
<path d="M79.521 82.5613C79.4267 80.018 77.3284 77.9784 74.7626 77.9784H74.7616C72.1362 77.9784 70 80.1144 70 82.74V85.5868C70 88.3334 72.2345 90.5678 74.981 90.5678H79.5242V87.831H81.8177L79.521 82.5613ZM77.882 86.1889V88.9257H74.981C73.14 88.9257 71.6421 87.4278 71.6421 85.5867V82.7399C71.6421 81.0197 73.0415 79.6203 74.7616 79.6203H74.7626C76.4827 79.6203 77.8821 81.0197 77.8821 82.7399V82.911L79.3108 86.1888H77.882V86.1889Z" fill="white"/>
<path d="M82.3154 97.7789V102.705H93.8374V121.589H95.4794V102.705H97.1215V121.589H98.7635V102.705H109.684V97.7789H82.3154ZM108.042 101.063H83.9576V99.421H108.042V101.063H108.042Z" fill="white"/>
<path d="M107.111 78.9576V74.7895H102.513V70.4105H83.3554V74.5786L79.376 79.4421H83.3555V83H86.7857V81.3579H84.9977V77.8H82.8415L84.9977 75.1649V72.0526H100.871V74.7894H87.9533V87.3788H107.111V83.8209H111.091L107.111 78.9576ZM105.469 82.179V85.7369H89.5954V83H102.513V77.4861H100.871V81.3579H89.5954V76.4315H105.469V79.5438L107.625 82.179H105.469Z" fill="white"/>
<path d="M92.2231 91.8673H90.5811V93.5093H92.2231V91.8673Z" fill="white"/>
<path d="M96.8208 91.8673H95.1787V93.5093H96.8208V91.8673Z" fill="white"/>
<path d="M101.418 91.8673H99.7764V93.5093H101.418V91.8673Z" fill="white"/>
<defs>

</defs>
</svg>
