<svg width="192" height="192" viewBox="30 0 192 192" fill="none" xmlns="http://www.w3.org/2000/svg">
<circle cx="123" cy="96" r="64" stroke="#EF9034" stroke-width="2"/>
<g>
<circle cx="96" cy="96" r="56" fill="#69A51A"/>
</g>
<g>
<circle cx="96" cy="96" r="46" stroke="white" stroke-width="2"/>
</g>
<g filter="url(#filter2_d)">
<path d="M120.777 80.6704C119.57 73.9153 113.692 68.9983 106.83 69.0027C101.552 69.0089 96.7154 71.9471 94.2772 76.6277C89.7491 72.0511 82.3683 72.0118 77.7917 76.5398C75.5767 78.7314 74.3312 81.7184 74.3334 84.8344V86.5009C74.3334 86.961 74.7065 87.3341 75.1667 87.3341C75.2008 87.3309 75.2348 87.3256 75.2683 87.3183C75.6593 90.6975 77.3345 93.7971 79.947 95.9757C80.0187 96.0349 80.0936 96.0857 80.1661 96.1424V99.2329L73.2368 101.543C72.9267 101.646 72.7053 101.921 72.6711 102.246L71.0046 118.078C70.9568 118.535 71.2889 118.945 71.7467 118.993C71.7756 118.996 71.8046 118.998 71.8337 118.998H100.164C100.624 118.998 100.997 118.624 100.997 118.164C100.997 118.137 100.996 118.109 100.993 118.081L99.3267 102.249C99.2924 101.924 99.0711 101.649 98.7609 101.546L91.8316 99.2329V96.1424C91.9041 96.0857 91.9791 96.0349 92.0508 95.9757C93.4876 94.7745 94.6543 93.2832 95.4746 91.5995C97.6202 94.4917 100.787 96.4581 104.33 97.099V98.9996H102.664C102.204 98.9996 101.831 99.3727 101.831 99.8329V103.166C101.831 103.626 102.204 103.999 102.664 103.999V114.831C102.664 117.132 104.529 118.998 106.83 118.998C109.131 118.998 110.996 117.132 110.996 114.831V103.999C111.456 103.999 111.83 103.626 111.83 103.166V99.8329C111.83 99.3727 111.456 98.9996 110.996 98.9996H109.33V97.099C117.027 95.7234 122.152 88.3681 120.777 80.6704ZM80.1661 117.331H72.7594L74.2726 102.953L80.1661 100.989V117.331ZM75.9999 84.8344C75.9887 79.3236 80.4469 74.8472 85.9577 74.8359C88.8714 74.83 91.6422 76.0979 93.5423 78.3067C92.7696 80.3645 92.5015 82.5775 92.7607 84.7602C90.7791 84.4039 89.3359 82.6815 89.3319 80.6681C89.3323 80.208 88.9595 79.8346 88.4994 79.8342C88.4383 79.8342 88.3775 79.8407 88.3178 79.8541L87.8179 79.9657C83.6127 80.8948 79.6093 82.5743 75.9999 84.9235V84.8344ZM81.8326 117.331V106.266L84.7857 105.281L82.695 112.947C82.6417 113.145 82.6624 113.355 82.7534 113.539L84.6507 117.331H81.8326ZM81.8326 104.509V102.848L83.8266 103.847L81.8326 104.509ZM84.3865 113.082L85.9989 107.165L87.6112 113.082L85.9989 116.301L84.3865 113.082ZM90.1651 117.331H87.3471L89.2485 113.537C89.3395 113.354 89.3602 113.143 89.3069 112.946L87.2163 105.28L90.1651 106.266V117.331ZM90.1651 104.509L88.1712 103.842L90.1651 102.848V104.509ZM90.1651 100.984L85.9989 103.068L81.8326 100.984V97.1915C84.4581 98.4913 87.5397 98.4913 90.1651 97.1915V100.984ZM97.7252 102.953L99.2384 117.331H91.8316V100.989L97.7252 102.953ZM90.9834 94.695C88.0964 97.1023 83.9014 97.1023 81.0144 94.695C78.5264 92.6161 77.0236 89.5895 76.8715 86.3509C80.2002 84.1756 83.8833 82.5983 87.7545 81.6897C88.2266 84.3131 90.4142 86.2843 93.0723 86.4817C93.3567 87.6828 93.798 88.8413 94.3847 89.9272C93.6767 91.7809 92.5057 93.4223 90.9834 94.695ZM109.33 114.831C109.33 116.212 108.211 117.331 106.83 117.331C105.449 117.331 104.33 116.212 104.33 114.831V103.999H109.33V114.831ZM110.163 100.666V102.333H103.497V100.666H110.163ZM105.997 98.9996V97.2906C106.274 97.3073 106.548 97.3331 106.83 97.3331C107.112 97.3331 107.386 97.3073 107.663 97.2906V98.9996H105.997ZM106.83 95.6666C99.9272 95.6666 94.3314 90.0707 94.3314 83.1679C94.3314 76.265 99.9272 70.6692 106.83 70.6692C113.733 70.6692 119.329 76.265 119.329 83.1679C119.321 90.0675 113.73 95.6588 106.83 95.6666Z" fill="white"/>
<path d="M106.83 72.3357C100.848 72.3357 95.998 77.1854 95.998 83.1679C95.998 89.1504 100.848 94.0001 106.83 94.0001C112.813 94.0001 117.663 89.1504 117.663 83.1679C117.656 77.1882 112.81 72.3426 106.83 72.3357ZM106.83 92.3336C101.768 92.3336 97.6645 88.23 97.6645 83.1679C97.6645 78.1058 101.768 74.0022 106.83 74.0022C111.892 74.0022 115.996 78.1058 115.996 83.1679C115.99 88.2275 111.89 92.3276 106.83 92.3336Z" fill="white"/>
<path d="M112.418 77.5793L111.24 78.7575C113.669 81.196 113.669 85.1398 111.24 87.5783L112.418 88.7565C115.498 85.6671 115.498 80.6686 112.418 77.5793Z" fill="white"/>
<path d="M108.957 89.09L109.702 90.5805L111.369 89.7473L110.623 88.2568L108.957 89.09Z" fill="white"/>
</g>
<defs>
<filter id="filter2_d" x="51" y="49" width="90" height="90" filterUnits="userSpaceOnUse" color-interpolation-filters="sRGB">
<feFlood flood-opacity="0" result="BackgroundImageFix"/>
<feColorMatrix in="SourceAlpha" type="matrix" values="0 0 0 0 0 0 0 0 0 0 0 0 0 0 0 0 0 0 127 0"/>
<feOffset/>
<feGaussianBlur stdDeviation="10"/>
<feColorMatrix type="matrix" values="0 0 0 0 0 0 0 0 0 0 0 0 0 0 0 0 0 0 0.3 0"/>
<feBlend mode="normal" in2="BackgroundImageFix" result="effect1_dropShadow"/>
<feBlend mode="normal" in="SourceGraphic" in2="effect1_dropShadow" result="shape"/>
</filter>
<clipPath id="clip0">
<rect width="50" height="50" fill="white" transform="translate(71 69)"/>
</clipPath>
</defs>
</svg>
