<svg width="192" height="192" viewBox="30 0 192 192" fill="none" xmlns="http://www.w3.org/2000/svg">
<circle cx="123" cy="96" r="64" stroke="#EF9034" stroke-width="2"/>
<g>
<circle cx="96" cy="96" r="56" fill="#69A51A"/>
</g>
<g clip-path="url(#clip0)">
<path d="M109.477 77.4508H103.605V71.6824C103.605 71.5013 103.533 71.3278 103.404 71.1998C103.276 71.0719 103.103 71 102.921 71H89.0785C88.9887 70.9999 88.8998 71.0176 88.8169 71.0519C88.7339 71.0863 88.6585 71.1366 88.595 71.2001C88.5315 71.2636 88.4812 71.339 88.4469 71.4219C88.4125 71.5049 88.3949 71.5938 88.3949 71.6836V77.4508H82.5234C81.5137 77.4519 80.5456 77.8535 79.8316 78.5675C79.1176 79.2816 78.716 80.2496 78.7148 81.2594V117.19C78.7156 118.2 79.117 119.168 79.8311 119.883C80.5451 120.597 81.5134 120.999 82.5234 121H109.477C110.486 120.999 111.454 120.597 112.168 119.883C112.882 119.169 113.284 118.201 113.285 117.191V81.2594C113.284 80.2496 112.882 79.2816 112.168 78.5675C111.454 77.8535 110.486 77.4519 109.477 77.4508ZM89.0785 82.7242H108.012V115.727H83.9883V82.7242H89.0785ZM89.7621 72.3672H102.238V81.357H89.7621V72.3672ZM111.918 117.19C111.917 117.837 111.66 118.458 111.202 118.915C110.744 119.373 110.124 119.631 109.477 119.631H82.5234C81.8762 119.631 81.2556 119.373 80.7979 118.915C80.3402 118.458 80.0828 117.837 80.082 117.19V81.2594C80.0828 80.6121 80.3402 79.9915 80.7979 79.5338C81.2556 79.0761 81.8762 78.8187 82.5234 78.818H88.3949V81.357H83.3047C83.2149 81.357 83.126 81.3746 83.043 81.409C82.9601 81.4433 82.8847 81.4936 82.8212 81.5571C82.7577 81.6206 82.7074 81.696 82.673 81.779C82.6387 81.8619 82.621 81.9508 82.6211 82.0406V116.409C82.6208 116.499 82.6383 116.588 82.6726 116.671C82.7068 116.754 82.7571 116.829 82.8206 116.893C82.8842 116.957 82.9596 117.007 83.0427 117.042C83.1257 117.076 83.2148 117.094 83.3047 117.094H108.695C108.785 117.094 108.874 117.076 108.957 117.042C109.04 117.007 109.115 116.957 109.179 116.894C109.242 116.83 109.293 116.755 109.327 116.672C109.361 116.589 109.379 116.5 109.379 116.41V82.0406C109.379 81.9508 109.361 81.8619 109.327 81.779C109.293 81.696 109.242 81.6206 109.179 81.5571C109.115 81.4936 109.04 81.4433 108.957 81.409C108.874 81.3746 108.785 81.357 108.695 81.357H103.605V78.818H109.477C110.124 78.8187 110.744 79.0761 111.202 79.5338C111.66 79.9915 111.917 80.6121 111.918 81.2594V117.19Z" fill="white"/>
<path d="M93.8394 77.5454H95.3163V79.0224C95.3163 79.2037 95.3883 79.3775 95.5165 79.5057C95.6447 79.6339 95.8186 79.706 95.9999 79.706C96.1812 79.706 96.3551 79.6339 96.4833 79.5057C96.6115 79.3775 96.6835 79.2037 96.6835 79.0224V77.5454H98.1604C98.3417 77.5454 98.5156 77.4734 98.6438 77.3452C98.772 77.217 98.844 77.0431 98.844 76.8618C98.844 76.6805 98.772 76.5066 98.6438 76.3784C98.5156 76.2502 98.3417 76.1782 98.1604 76.1782H96.6835V74.7013C96.6835 74.52 96.6115 74.3461 96.4833 74.2179C96.3551 74.0897 96.1812 74.0177 95.9999 74.0177C95.8186 74.0177 95.6447 74.0897 95.5165 74.2179C95.3883 74.3461 95.3163 74.52 95.3163 74.7013V76.1782H93.8394C93.6581 76.1782 93.4842 76.2502 93.356 76.3784C93.2278 76.5066 93.1558 76.6805 93.1558 76.8618C93.1558 77.0431 93.2278 77.217 93.356 77.3452C93.4842 77.4734 93.6581 77.5454 93.8394 77.5454Z" fill="white"/>
<path d="M88.6732 94.1317C88.8112 94.248 88.9897 94.3051 89.1696 94.2905C89.3495 94.2759 89.5164 94.1907 89.6338 94.0535L93.4428 89.616C93.507 89.5489 93.5568 89.4694 93.5892 89.3824C93.6217 89.2953 93.6361 89.2026 93.6315 89.1098C93.6269 89.017 93.6034 88.9262 93.5625 88.8427C93.5217 88.7593 93.4642 88.6851 93.3937 88.6247C93.3232 88.5642 93.2411 88.5187 93.1524 88.491C93.0637 88.4634 92.9704 88.454 92.878 88.4637C92.7856 88.4733 92.6961 88.5016 92.615 88.547C92.534 88.5923 92.463 88.6537 92.4064 88.7274L89.0385 92.6496L87.6529 91.4778C87.5844 91.4197 87.5051 91.3758 87.4196 91.3484C87.334 91.321 87.244 91.3108 87.1545 91.3182C87.065 91.3256 86.9779 91.3506 86.898 91.3918C86.8182 91.4329 86.7473 91.4893 86.6892 91.5578C86.6312 91.6264 86.5873 91.7057 86.5599 91.7912C86.5325 91.8767 86.5223 91.9668 86.5297 92.0563C86.5371 92.1457 86.5621 92.2329 86.6032 92.3127C86.6443 92.3925 86.7008 92.4635 86.7693 92.5215L88.6732 94.1317Z" fill="white"/>
<path d="M96 90.5395H104.789C104.97 90.5395 105.144 90.4674 105.272 90.3392C105.401 90.211 105.473 90.0372 105.473 89.8559C105.473 89.6746 105.401 89.5007 105.272 89.3725C105.144 89.2443 104.97 89.1723 104.789 89.1723H96C95.8187 89.1723 95.6448 89.2443 95.5166 89.3725C95.3884 89.5007 95.3164 89.6746 95.3164 89.8559C95.3164 90.0372 95.3884 90.211 95.5166 90.3392C95.6448 90.4674 95.8187 90.5395 96 90.5395Z" fill="white"/>
<path d="M96 93.6101H101.957C102.138 93.6101 102.312 93.5381 102.44 93.4099C102.569 93.2817 102.641 93.1078 102.641 92.9265C102.641 92.7452 102.569 92.5713 102.44 92.4431C102.312 92.3149 102.138 92.2429 101.957 92.2429H96C95.8187 92.2429 95.6448 92.3149 95.5166 92.4431C95.3884 92.5713 95.3164 92.7452 95.3164 92.9265C95.3164 93.1078 95.3884 93.2817 95.5166 93.4099C95.6448 93.5381 95.8187 93.6101 96 93.6101Z" fill="white"/>
<path d="M88.6732 101.965C88.8112 102.082 88.9896 102.139 89.1696 102.124C89.3496 102.11 89.5164 102.024 89.6338 101.887L93.4427 97.4501C93.5608 97.3125 93.6195 97.1336 93.6057 96.9528C93.5919 96.772 93.5069 96.6041 93.3693 96.486C93.2317 96.3679 93.0529 96.3093 92.8721 96.3231C92.6913 96.3368 92.5234 96.4219 92.4052 96.5595L89.0385 100.483L87.6529 99.3114C87.5844 99.2534 87.5051 99.2094 87.4196 99.1821C87.334 99.1547 87.244 99.1444 87.1545 99.1519C87.065 99.1593 86.9779 99.1843 86.898 99.2254C86.8182 99.2665 86.7473 99.323 86.6892 99.3915C86.6312 99.46 86.5873 99.5393 86.5599 99.6248C86.5325 99.7104 86.5223 99.8004 86.5297 99.8899C86.5371 99.9794 86.5621 100.067 86.6032 100.146C86.6443 100.226 86.7008 100.297 86.7693 100.355L88.6732 101.965Z" fill="white"/>
<path d="M96 98.3727H104.789C104.97 98.3727 105.144 98.3007 105.272 98.1725C105.401 98.0443 105.473 97.8704 105.473 97.6891C105.473 97.5078 105.401 97.334 105.272 97.2058C105.144 97.0776 104.97 97.0056 104.789 97.0056H96C95.8187 97.0056 95.6448 97.0776 95.5166 97.2058C95.3884 97.334 95.3164 97.5078 95.3164 97.6891C95.3164 97.8704 95.3884 98.0443 95.5166 98.1725C95.6448 98.3007 95.8187 98.3727 96 98.3727Z" fill="white"/>
<path d="M96 101.443H101.957C102.138 101.443 102.312 101.371 102.44 101.243C102.569 101.115 102.641 100.941 102.641 100.76C102.641 100.578 102.569 100.405 102.44 100.276C102.312 100.148 102.138 100.076 101.957 100.076H96C95.8187 100.076 95.6448 100.148 95.5166 100.276C95.3884 100.405 95.3164 100.578 95.3164 100.76C95.3164 100.941 95.3884 101.115 95.5166 101.243C95.6448 101.371 95.8187 101.443 96 101.443Z" fill="white"/>
<path d="M88.6727 109.798C88.8108 109.915 88.9892 109.972 89.1691 109.957C89.349 109.943 89.5159 109.857 89.6333 109.72L93.4423 105.283C93.5604 105.146 93.619 104.967 93.6052 104.786C93.5915 104.605 93.5064 104.437 93.3688 104.319C93.2313 104.201 93.0524 104.142 92.8716 104.156C92.6908 104.17 92.5229 104.255 92.4048 104.393L89.038 108.316L87.6524 107.144C87.5842 107.084 87.5047 107.039 87.4186 107.01C87.3325 106.981 87.2415 106.969 87.1508 106.976C87.0602 106.982 86.9718 107.007 86.8908 107.048C86.8098 107.089 86.7378 107.146 86.6791 107.216C86.6204 107.285 86.576 107.365 86.5487 107.452C86.5214 107.539 86.5116 107.63 86.52 107.72C86.5283 107.811 86.5547 107.899 86.5974 107.979C86.6401 108.059 86.6984 108.13 86.7688 108.187L88.6727 109.798Z" fill="white"/>
<path d="M96 106.206H104.789C104.97 106.206 105.144 106.134 105.272 106.006C105.401 105.878 105.473 105.704 105.473 105.523C105.473 105.341 105.401 105.168 105.272 105.039C105.144 104.911 104.97 104.839 104.789 104.839H96C95.8187 104.839 95.6448 104.911 95.5166 105.039C95.3884 105.168 95.3164 105.341 95.3164 105.523C95.3164 105.704 95.3884 105.878 95.5166 106.006C95.6448 106.134 95.8187 106.206 96 106.206Z" fill="white"/>
<path d="M96 109.277H101.957C102.138 109.277 102.312 109.205 102.44 109.077C102.569 108.948 102.641 108.775 102.641 108.593C102.641 108.412 102.569 108.238 102.44 108.11C102.312 107.982 102.138 107.91 101.957 107.91H96C95.8187 107.91 95.6448 107.982 95.5166 108.11C95.3884 108.238 95.3164 108.412 95.3164 108.593C95.3164 108.775 95.3884 108.948 95.5166 109.077C95.6448 109.205 95.8187 109.277 96 109.277Z" fill="white"/>
</g>
<g>
<circle cx="96" cy="96" r="46" stroke="white" stroke-width="2"/>
</g>
<defs>
<clipPath id="clip0">
<rect width="50" height="50" fill="white" transform="translate(71 71)"/>
</clipPath>
</defs>
</svg>
