<svg width="192" height="192" viewBox="30 0 192 192" fill="none" xmlns="http://www.w3.org/2000/svg">
<circle r="64" transform="matrix(1 0 0 -1 123 96)" stroke="#EF9034" stroke-width="2"/>
<g>
<circle r="56" transform="matrix(1 0 0 -1 96 96)" fill="#295716"/>
</g>
<path d="M114.875 104.641V82.2812C114.875 80.1273 113.123 78.375 110.969 78.375H107.062V74.4688C107.062 72.3148 105.31 70.5625 103.156 70.5625H93.7812C91.6273 70.5625 89.875 72.3148 89.875 74.4688V78.375H85.9688C83.8148 78.375 82.0625 80.1273 82.0625 82.2812V106.177L81.7391 106.5H77.375V105.719C77.375 105.287 77.025 104.938 76.5938 104.938H70.3438C69.9125 104.938 69.5625 105.287 69.5625 105.719V116.656C69.5625 117.088 69.9125 117.438 70.3438 117.438H76.5938C77.025 117.438 77.375 117.088 77.375 116.656H103.156C103.291 116.656 103.423 116.622 103.539 116.555L114.783 110.231C115.803 109.657 116.438 108.573 116.438 107.402C116.438 106.231 115.808 105.212 114.875 104.641ZM75.8125 115.875H71.125V106.5H75.8125V115.875ZM91.4375 74.4688C91.4375 73.1766 92.4891 72.125 93.7812 72.125H103.156C104.448 72.125 105.5 73.1766 105.5 74.4688V78.375H103.938V74.4688C103.938 74.0367 103.588 73.6875 103.156 73.6875H93.7812C93.35 73.6875 93 74.0367 93 74.4688V78.375H91.4375V74.4688ZM94.5625 78.375V75.25H102.375V78.375H94.5625ZM83.625 82.2812C83.625 80.9891 84.6766 79.9375 85.9688 79.9375H110.969C112.261 79.9375 113.312 80.9891 113.312 82.2812V104.169C113.271 104.167 113.233 104.156 113.191 104.156H113.073C112.605 104.156 112.135 104.259 111.713 104.455L102.203 108.844H98.6547C99.0297 108.284 99.25 107.613 99.25 106.891C99.25 104.952 97.6727 103.375 95.7344 103.375H85.1875C84.9805 103.375 84.7812 103.457 84.6352 103.604L83.625 104.614V82.2812ZM114.016 108.87L102.952 115.094H77.375V108.062H82.0625C82.2695 108.062 82.4688 107.98 82.6148 107.834L85.5109 104.938H95.7344C96.8109 104.938 97.6875 105.813 97.6875 106.891C97.6875 107.968 96.8109 108.844 95.7344 108.844H89.0938V110.406H95.7344H102.375C102.488 110.406 102.6 110.382 102.702 110.334L112.368 105.873C112.586 105.772 112.83 105.719 113.073 105.719H113.191C114.12 105.719 114.875 106.474 114.875 107.402C114.875 108.01 114.546 108.571 114.016 108.87Z" fill="white"/>
<path d="M98.4688 101.812C103.638 101.812 107.844 97.607 107.844 92.4375C107.844 87.268 103.638 83.0625 98.4688 83.0625C93.2992 83.0625 89.0938 87.268 89.0938 92.4375C89.0938 97.607 93.2992 101.812 98.4688 101.812ZM98.4688 84.625C102.777 84.625 106.281 88.1297 106.281 92.4375C106.281 96.7453 102.777 100.25 98.4688 100.25C94.1609 100.25 90.6562 96.7453 90.6562 92.4375C90.6562 88.1297 94.1609 84.625 98.4688 84.625Z" fill="white"/>
<path d="M93.7812 94.7812H96.125V97.125C96.125 97.557 96.475 97.9062 96.9062 97.9062H100.031C100.463 97.9062 100.812 97.557 100.812 97.125V94.7812H103.156C103.587 94.7812 103.938 94.432 103.938 94V90.875C103.938 90.443 103.587 90.0938 103.156 90.0938H100.812V87.75C100.812 87.318 100.463 86.9688 100.031 86.9688H96.9062C96.475 86.9688 96.125 87.318 96.125 87.75V90.0938H93.7812C93.35 90.0938 93 90.443 93 90.875V94C93 94.432 93.35 94.7812 93.7812 94.7812ZM94.5625 91.6562H96.9062C97.3375 91.6562 97.6875 91.307 97.6875 90.875V88.5312H99.25V90.875C99.25 91.307 99.6 91.6562 100.031 91.6562H102.375V93.2188H100.031C99.6 93.2188 99.25 93.568 99.25 94V96.3438H97.6875V94C97.6875 93.568 97.3375 93.2188 96.9062 93.2188H94.5625V91.6562Z" fill="white"/>
<g>
<circle cx="96" cy="96" r="46" stroke="white" stroke-width="2"/>
</g>
<defs>
</defs>
</svg>
