<svg width="192" height="192" viewBox="30 0 192 192" fill="none" xmlns="http://www.w3.org/2000/svg">
<circle r="64" transform="matrix(1 0 0 -1 123 96)" stroke="#EF9034" stroke-width="2"/>
<g>
<circle r="56" transform="matrix(-1 -8.74228e-08 -8.74228e-08 1 96 96)" fill="#69A51A"/>
</g>
<g>
<circle cx="95" cy="97" r="46" stroke="white" stroke-width="2"/>
</g>
<path d="M71.5625 120.998C71.9945 120.998 72.3438 120.648 72.3438 120.216V118.655C72.3438 116.932 73.7453 115.53 75.4688 115.53H77.4375L80.3273 119.144C80.3438 119.164 80.3695 119.173 80.3875 119.191C80.4102 119.215 80.4234 119.245 80.4492 119.266C80.482 119.292 80.5211 119.305 80.5563 119.325C80.5844 119.341 80.6094 119.359 80.6391 119.371C80.7352 119.411 80.8352 119.438 80.9367 119.438H80.9375H80.9383C81.0398 119.438 81.1398 119.411 81.2367 119.371C81.2648 119.359 81.2891 119.342 81.3164 119.327C81.3531 119.306 81.393 119.293 81.4266 119.266C81.4539 119.245 81.468 119.214 81.4906 119.189C81.5078 119.171 81.532 119.164 81.5477 119.144L84.4445 115.53H86.4063C88.1297 115.53 89.5313 116.932 89.5313 118.655V120.216C89.5313 120.648 89.8805 120.998 90.3125 120.998C90.7445 120.998 91.0938 120.648 91.0938 120.216V118.655C91.0938 116.07 88.9914 113.968 86.4063 113.968H84.8438V112.129C87.1742 110.776 88.75 108.259 88.75 105.375V105.148C89.2438 105.891 89.5328 106.782 89.5328 107.739C89.5328 108.171 89.882 108.52 90.3141 108.52C90.7461 108.52 91.0953 108.171 91.0953 107.739C91.0953 107.738 91.0953 107.736 91.0953 107.734C91.0953 107.734 91.0953 107.734 91.0953 107.733V101.086C91.0953 101.082 91.093 101.079 91.093 101.076C91.0875 96.1274 87.0609 92.1031 82.1117 92.1031C79.7 92.1031 77.5148 92.9461 75.9102 94.4672C74.3547 94.6399 73.1359 95.9438 73.1281 97.543C73.1281 97.5485 73.125 97.5531 73.125 97.5586V105.375C73.125 108.259 74.7008 110.777 77.0313 112.13V113.968H75.4688C72.8836 113.968 70.7812 116.07 70.7812 118.655V120.216C70.7812 120.648 71.1305 120.998 71.5625 120.998ZM89.5313 101.088C89.5313 101.091 89.5328 101.092 89.5328 101.095V103.617C88.4063 102.335 86.7688 101.517 84.9391 101.488C84.907 101.484 84.8789 101.469 84.8461 101.469H78.6109C78.6055 101.469 78.6008 101.466 78.5953 101.466C77.7336 101.466 77.0336 100.764 77.0336 99.9016C77.0336 99.8977 77.0313 99.8938 77.0313 99.8899L77.0328 95.5563C78.3422 94.3391 80.1289 93.6664 82.1117 93.6664C86.2023 93.6672 89.5313 96.9953 89.5313 101.088ZM75.4703 96.2141L75.4688 99.9047C75.4688 100.48 75.1523 100.979 74.6875 101.25V97.5672C74.6875 97.5641 74.6891 97.5625 74.6891 97.5594C74.6891 96.9844 75.0055 96.486 75.4703 96.2141ZM74.6875 105.376V102.919C75.3055 102.758 75.8438 102.414 76.2523 101.948C76.8195 102.597 77.6406 103.016 78.5664 103.025C78.5773 103.026 78.5852 103.031 78.5961 103.031H84.7719C84.7953 103.034 84.8156 103.045 84.8398 103.045C85.6961 103.045 86.4961 103.28 87.1875 103.681V105.376C87.1875 108.821 84.3828 111.624 80.9359 111.624C77.4906 111.624 74.6875 108.821 74.6875 105.376ZM80.9359 113.187C81.7531 113.187 82.5406 113.059 83.2813 112.826V114.483L80.9383 117.405L78.5938 114.473V112.827C79.3336 113.06 80.1203 113.187 80.9359 113.187Z" fill="white"/>
<path d="M92.1035 91.0984C92.2504 91.2453 92.4488 91.3273 92.6559 91.3273H92.6566L104.248 91.3179L108.816 92.8398C108.897 92.8672 108.98 92.8804 109.063 92.8804C109.225 92.8804 109.385 92.8304 109.519 92.7336C109.723 92.5867 109.844 92.3515 109.844 92.1L109.845 91.3179H111.407C111.839 91.3179 112.188 90.9687 112.188 90.5367V71.7828C112.188 71.3507 111.839 71.0015 111.407 71.0015H92.6559C92.2238 71.0015 91.8746 71.3507 91.8746 71.7828V76.4757H80.9355C80.5035 76.4757 80.1543 76.825 80.1543 77.257V87.4101C80.1543 87.8422 80.5035 88.1914 80.9355 88.1914H82.498V88.9726C82.498 89.232 82.627 89.4742 82.841 89.6195C82.9723 89.7078 83.1246 89.7539 83.2793 89.7539C83.3777 89.7539 83.4762 89.7359 83.5691 89.6984L87.3348 88.1914L91.8746 88.1992V90.5461C91.8746 90.7531 91.9566 90.9515 92.1035 91.0984ZM93.4371 72.564H110.625V89.7554H109.064C108.633 89.7554 108.284 90.1047 108.283 90.5359L108.282 91.0156L104.621 89.7953C104.541 89.7687 104.458 89.7547 104.375 89.7547H104.374L93.4371 89.764V72.564ZM87.1871 86.6289C87.1863 86.6289 87.1863 86.6289 87.1855 86.6289C87.0863 86.6289 86.9879 86.6476 86.8957 86.6843L84.0605 87.8187V87.4101C84.0605 86.9781 83.7113 86.6289 83.2793 86.6289H81.7168V78.0382H91.8746V86.6367L87.1871 86.6289Z" fill="white"/>
<path d="M103.6 93.6579C102.308 93.6579 101.256 94.7095 101.256 96.0017V102.219C101.255 102.23 101.25 102.238 101.25 102.249V105.345C101.25 105.351 101.253 105.356 101.253 105.361C101.253 105.367 101.25 105.371 101.25 105.377C101.25 108.261 102.825 110.779 105.156 112.132V113.969H103.594C101.009 113.969 98.9062 116.071 98.9062 118.656V120.217C98.9062 120.649 99.2555 120.998 99.6875 120.998C100.12 120.998 100.469 120.649 100.469 120.217V118.656C100.469 116.933 101.87 115.531 103.594 115.531H105.348L106.748 120.432C106.847 120.775 107.159 120.999 107.499 120.999C107.571 120.999 107.643 120.989 107.714 120.97C108.129 120.851 108.37 120.418 108.252 120.004L107.175 116.237C107.178 116.238 107.182 116.238 107.185 116.239C107.284 116.283 107.388 116.313 107.497 116.313C107.498 116.313 107.498 116.313 107.499 116.313H107.5H107.501C107.502 116.313 107.502 116.313 107.503 116.313C107.613 116.313 107.716 116.283 107.815 116.239C107.827 116.234 107.838 116.236 107.849 116.231L109.062 115.624L110.276 116.23C110.287 116.235 110.298 116.233 110.31 116.238C110.409 116.282 110.513 116.312 110.622 116.312C110.623 116.312 110.623 116.313 110.624 116.313H110.625H110.626C110.627 116.313 110.627 116.312 110.628 116.312C110.738 116.312 110.841 116.282 110.94 116.238C110.943 116.237 110.947 116.238 110.95 116.236L109.873 120.003C109.755 120.417 109.995 120.85 110.411 120.969C110.483 120.988 110.555 120.999 110.626 120.999C110.966 120.999 111.278 120.775 111.377 120.431L112.777 115.531H114.531C116.255 115.531 117.656 116.933 117.656 118.656V120.217C117.656 120.649 118.005 120.998 118.438 120.998C118.87 120.998 119.219 120.649 119.219 120.217V118.656C119.219 116.071 117.116 113.969 114.531 113.969H112.969V112.131C115.3 110.778 116.875 108.26 116.875 105.377V105.376V105.375V102.338C116.877 102.32 116.887 102.302 116.887 102.282V96.0009C116.887 94.7087 115.835 93.6572 114.543 93.6572H103.6V93.6579ZM111.406 114.267L110.625 114.658L109.412 114.052C109.395 114.043 109.375 114.044 109.358 114.037C109.309 114.017 109.259 114.006 109.207 113.996C109.158 113.987 109.112 113.977 109.062 113.977C109.013 113.977 108.967 113.988 108.918 113.996C108.866 114.006 108.816 114.016 108.767 114.037C108.75 114.044 108.73 114.043 108.713 114.052L107.5 114.658L106.719 114.267V112.828C107.459 113.062 108.245 113.188 109.062 113.188C109.878 113.188 110.666 113.062 111.406 112.828V114.267ZM109.062 111.626C105.616 111.626 102.812 108.823 102.812 105.377C102.812 105.371 102.809 105.367 102.809 105.361C102.809 105.355 102.812 105.35 102.812 105.345V103.064H115.312V105.376V105.377V105.377C115.312 108.823 112.509 111.626 109.062 111.626ZM115.324 96.0017V101.502H102.819V96.0017C102.819 95.5704 103.169 95.2204 103.6 95.2204H114.543C114.973 95.2204 115.324 95.5704 115.324 96.0017Z" fill="white"/>
<path d="M110.624 97.5789H109.842V96.7828C109.842 96.3508 109.492 96.0016 109.06 96.0016C108.628 96.0016 108.279 96.3508 108.279 96.7828V97.5789H107.497C107.065 97.5789 106.716 97.9281 106.716 98.3602C106.716 98.7922 107.065 99.1414 107.497 99.1414H108.279V99.9172C108.279 100.349 108.628 100.698 109.06 100.698C109.492 100.698 109.842 100.349 109.842 99.9172V99.1414H110.624C111.056 99.1414 111.405 98.7922 111.405 98.3602C111.405 97.9281 111.056 97.5789 110.624 97.5789Z" fill="white"/>
<path d="M108.281 81.1572C108.281 77.7111 105.477 74.9072 102.031 74.9072C98.5852 74.9072 95.7812 77.7111 95.7812 81.1572C95.7812 84.6033 98.5852 87.4072 102.031 87.4072C105.477 87.4072 108.281 84.6033 108.281 81.1572ZM102.031 85.8447C99.4461 85.8447 97.3438 83.7423 97.3438 81.1572C97.3438 78.572 99.4461 76.4697 102.031 76.4697C104.616 76.4697 106.719 78.572 106.719 81.1572C106.719 83.7423 104.616 85.8447 102.031 85.8447Z" fill="white"/>
<path d="M104.375 80.3741H102.812V78.8116C102.812 78.3796 102.463 78.0303 102.031 78.0303C101.599 78.0303 101.25 78.3796 101.25 78.8116V80.3741H99.6875C99.2555 80.3741 98.9062 80.7233 98.9062 81.1553C98.9062 81.5874 99.2555 81.9366 99.6875 81.9366H101.25V83.4991C101.25 83.9311 101.599 84.2803 102.031 84.2803C102.463 84.2803 102.812 83.9311 102.812 83.4991V81.9366H104.375C104.807 81.9366 105.156 81.5874 105.156 81.1553C105.156 80.7233 104.807 80.3741 104.375 80.3741Z" fill="white"/>
<defs>
</defs>
</svg>
