<svg width="192" height="192" viewBox="30 0 192 192" fill="none" xmlns="http://www.w3.org/2000/svg">
<circle r="64" transform="matrix(1 0 0 -1 123 96)" stroke="#EF9034" stroke-width="2"/>
<g>
<circle r="56" transform="matrix(-1 -8.74228e-08 -8.74228e-08 1 96 96)" fill="#69A51A"/>
</g>
<g clip-path="url(#clip0)">
<path d="M120.721 106.522C120.374 105.784 119.733 105.226 118.955 104.985C119.197 104.559 119.325 104.077 119.329 103.586C119.327 101.977 118.022 100.672 116.413 100.67H110.905C113.207 98.419 113.248 94.7279 110.997 92.426C108.746 90.124 105.055 90.0828 102.753 92.334C101.919 93.1491 101.349 94.1951 101.117 95.3373C100.166 94.4763 98.9286 94.0018 97.6463 94.0073L96.5645 94.0072C97.195 92.7956 96.8969 91.3085 95.8482 90.4335L83.3426 80.0119C82.8327 79.5936 82.2338 79.2975 81.5919 79.1462C83.9749 76.9798 84.1506 73.2918 81.9842 70.9087C79.8179 68.5258 76.1298 68.3501 73.7468 70.5164C71.3638 72.6828 71.1881 76.3708 73.3544 78.7539C73.6074 79.0321 73.8868 79.2853 74.1885 79.5099C72.7505 80.2463 71.8437 81.7236 71.8381 83.3392V94.0048C71.3779 94.0049 71.005 94.3779 71.0049 94.838V118.167C71.0049 118.627 71.3779 119 71.8381 119H118.496C118.956 119 119.329 118.627 119.329 118.167V110.376C120.777 109.696 121.4 107.971 120.721 106.522ZM116.413 102.337C117.103 102.337 117.662 102.896 117.662 103.586C117.662 104.276 117.103 104.835 116.413 104.836H108.081C107.391 104.836 106.831 104.276 106.831 103.586C106.831 102.896 107.391 102.337 108.081 102.337H116.413ZM106.831 92.3385C109.132 92.3385 110.997 94.2037 110.997 96.5044C110.997 98.805 109.132 100.67 106.831 100.67C104.531 100.67 102.665 98.805 102.665 96.5044C102.668 94.2048 104.532 92.3412 106.831 92.3385ZM102.27 100.129C103.094 101.166 104.247 101.892 105.539 102.187C105.097 102.963 105.044 103.901 105.395 104.721L101.938 101.263L102.27 100.129ZM73.5044 74.8419C73.5044 72.5412 75.3695 70.6761 77.6702 70.6761C79.9709 70.6761 81.8361 72.5412 81.8361 74.8419C81.8361 77.1426 79.9709 79.0078 77.6702 79.0078C75.3706 79.0052 73.5071 77.1416 73.5044 74.8419ZM73.5044 83.3392C73.5062 81.868 74.6983 80.6759 76.1695 80.6741H80.5697C81.1931 80.6745 81.7966 80.893 82.2759 81.2917L94.7816 91.7132C95.3107 92.1542 95.3822 92.9406 94.9412 93.4696C94.5003 93.9988 93.7139 94.0702 93.1848 93.6293L84.8689 86.6995C84.5157 86.4048 83.9905 86.4523 83.6957 86.8055C83.5708 86.9554 83.5023 87.1443 83.5023 87.3395V94.006L73.5043 94.005V83.3392H73.5044ZM91.035 94.0067L85.1688 94.0061V89.1185L91.035 94.0067ZM72.6712 95.6712L79.3366 95.6718V104.836H72.6712V95.6712ZM117.662 117.334H72.6712V106.502H98.198L102.965 110.475C103.115 110.6 103.304 110.668 103.498 110.668H117.662V117.334H117.662ZM118.079 109.002H103.8L99.0329 105.029C98.8833 104.904 98.6945 104.836 98.4996 104.836H81.003V95.672L97.6465 95.6737C99.364 95.6079 100.83 96.9029 100.977 98.6154L100.2 101.269C100.114 101.561 100.194 101.877 100.41 102.092L104.576 106.258C104.732 106.414 104.944 106.502 105.165 106.502H118.079C118.769 106.502 119.329 107.062 119.329 107.752C119.329 108.442 118.769 109.002 118.079 109.002Z" fill="white"/>
</g>
<g>
<circle cx="96" cy="96" r="46" stroke="white" stroke-width="2"/>
</g>
<defs>
<clipPath id="clip0">
<rect width="50" height="50" fill="white" transform="translate(71 69)"/>
</clipPath>
</defs>
</svg>
