<svg width="60" height="60" viewBox="0 0 60 60" fill="none" xmlns="http://www.w3.org/2000/svg">
<g clip-path="url(#clip0)">
<path d="M40.8337 26.6667C40.622 26.6667 40.4103 26.585 40.2503 26.4284C39.9787 26.1633 39.922 25.7483 40.1103 25.42L43.1637 20.0783L40.1837 16.355C40.0337 16.1667 39.972 15.9233 40.0137 15.6867C40.0553 15.45 40.1987 15.2433 40.4053 15.12L48.7387 10.12C49.0637 9.92668 49.4803 9.97501 49.7503 10.2383C50.022 10.5033 50.0787 10.9183 49.8903 11.2467L46.837 16.5883L49.817 20.3117C49.967 20.5 50.0287 20.7433 49.987 20.98C49.9453 21.2167 49.802 21.4233 49.5953 21.5467L41.262 26.5467C41.1287 26.6284 40.9803 26.6667 40.8337 26.6667ZM42.0803 16.0583L44.8187 19.48C45.032 19.7467 45.0603 20.1183 44.8903 20.415L43.1387 23.48L47.9203 20.61L45.182 17.1883C44.9687 16.9217 44.9403 16.55 45.1103 16.2533L46.862 13.1883L42.0803 16.0583Z" fill="#EF9034"/>
<path d="M22.5 36.6667C21.1217 36.6667 20 35.545 20 34.1667C20 32.7883 21.1217 31.6667 22.5 31.6667C23.8783 31.6667 25 32.7883 25 34.1667C25 35.545 23.8783 36.6667 22.5 36.6667ZM22.5 33.3333C22.04 33.3333 21.6667 33.7083 21.6667 34.1667C21.6667 34.625 22.04 35 22.5 35C22.96 35 23.3333 34.625 23.3333 34.1667C23.3333 33.7083 22.96 33.3333 22.5 33.3333Z" fill="#EF9034"/>
<path d="M34.167 36.6667C32.7887 36.6667 31.667 35.545 31.667 34.1667C31.667 32.7883 32.7887 31.6667 34.167 31.6667C35.5453 31.6667 36.667 32.7883 36.667 34.1667C36.667 35.545 35.5453 36.6667 34.167 36.6667ZM34.167 33.3333C33.707 33.3333 33.3337 33.7083 33.3337 34.1667C33.3337 34.625 33.707 35 34.167 35C34.627 35 35.0003 34.625 35.0003 34.1667C35.0003 33.7083 34.627 33.3333 34.167 33.3333Z" fill="#EF9034"/>
<path d="M14.1667 38.4333C11.87 38.4333 10 36.565 10 34.2667C10 31.9683 11.87 30.1 14.1667 30.1V31.7667C12.7883 31.7667 11.6667 32.8883 11.6667 34.2667C11.6667 35.6717 12.8567 36.8 14.2417 36.7667C14.3167 36.7667 14.3917 36.765 14.4667 36.7567L14.6683 38.41C14.5017 38.4317 14.3333 38.4333 14.1667 38.4333Z" fill="#EF9034"/>
<path d="M42.4997 38.4333C42.333 38.4333 42.1647 38.4317 41.998 38.41L42.1997 36.7567C42.2997 36.7683 42.3997 36.765 42.4997 36.7667C43.8781 36.7667 44.9997 35.645 44.9997 34.2667C44.9997 32.8883 43.8781 31.7667 42.4997 31.7667V30.1C44.7964 30.1 46.6664 31.9683 46.6664 34.2667C46.6664 36.565 44.7964 38.4333 42.4997 38.4333Z" fill="#EF9034"/>
<path d="M32.5003 45C32.3186 45 32.1336 44.94 31.9803 44.8183C29.4936 42.83 27.1753 42.83 24.6886 44.8183C24.3286 45.105 23.8036 45.045 23.517 44.6883C23.2303 44.3283 23.2886 43.805 23.647 43.5167C26.7136 41.065 29.9553 41.065 33.022 43.5167C33.3803 43.805 33.4386 44.3283 33.152 44.6883C32.987 44.8933 32.7436 45 32.5003 45Z" fill="#EF9034"/>
<path d="M28.333 50C20.278 50 15.103 43.6983 13.7063 37.8433C13.458 36.7467 13.333 35.6067 13.333 34.45V26.6833C13.333 18.655 21.1097 15 28.333 15C31.203 15 34.0897 15.5933 36.4613 16.675C36.8797 16.865 37.0647 17.36 36.8747 17.7783C36.683 18.1983 36.1897 18.38 35.7713 18.1917C33.6113 17.2083 30.9697 16.6667 28.333 16.6667C21.9113 16.6667 14.9997 19.8017 14.9997 26.6833V34.45C14.9997 35.4833 15.1097 36.4983 15.3297 37.4667C16.578 42.695 21.1813 48.3333 28.333 48.3333C35.478 48.3333 40.0847 42.695 41.3397 37.4567C41.5563 36.4983 41.6663 35.4833 41.6663 34.45V30.5333C41.6663 30.0733 42.0397 29.7 42.4997 29.7C42.9597 29.7 43.333 30.0733 43.333 30.5333V34.45C43.333 35.6067 43.208 36.7467 42.963 37.8333C41.558 43.6983 36.3813 50 28.333 50Z" fill="#EF9034"/>
<path d="M42.3822 31.6583L37.7156 30.9917C33.3489 30.3683 29.2089 28.4067 25.9522 25.4333C23.6906 28.4033 20.4639 30.4233 16.7706 31.1633L14.3306 31.65L14.0039 30.0167L16.4439 29.5283C20.0256 28.81 23.1139 26.7433 25.1406 23.705C25.2789 23.4967 25.5039 23.3633 25.7522 23.3367C26.0072 23.3217 26.2472 23.4017 26.4239 23.5783C29.5222 26.6767 33.6172 28.7233 37.9522 29.3417L42.6189 30.0083L42.3822 31.6583Z" fill="#EF9034"/>
</g>
<defs>
<clipPath id="clip0">
<rect width="40" height="40" fill="white" transform="translate(10 10)"/>
</clipPath>
</defs>
</svg>
