<svg width="50" height="60" viewBox="0 0 50 60" fill="none" xmlns="http://www.w3.org/2000/svg">
<g clip-path="url(#clip0)">
<path d="M39.3157 32.3367C39.0214 32.2006 38.6719 32.3288 38.5357 32.6234L37.9348 33.923L37.6158 33.604C37.4859 33.4741 37.3027 33.4123 37.1205 33.4373C36.9385 33.4622 36.7786 33.571 36.6884 33.731L35.5601 35.7338C35.4009 36.0165 35.5009 36.3749 35.7836 36.5341C35.8748 36.5855 35.9739 36.6099 36.0716 36.6099C36.2768 36.6099 36.4761 36.5022 36.584 36.3107L37.3323 34.9825L37.6993 35.3496C37.8351 35.4853 38.0285 35.5465 38.2178 35.5125C38.4069 35.4788 38.5676 35.355 38.6482 35.1807L39.6026 33.1167C39.7386 32.8222 39.6102 32.4729 39.3157 32.3367Z" fill="#EF9034"/>
<path d="M11.7819 35.6692C11.9712 35.703 12.1646 35.6419 12.3003 35.5062L12.6673 35.1392L13.4155 36.4674C13.5235 36.659 13.7227 36.7667 13.928 36.7667C14.0257 36.7667 14.1248 36.7422 14.2159 36.6909C14.4986 36.5316 14.5987 36.1734 14.4395 35.8906L13.3112 33.8879C13.2211 33.7277 13.0612 33.619 12.879 33.5941C12.697 33.5692 12.5137 33.6308 12.3838 33.7607L12.0648 34.0797L11.4638 32.7802C11.3275 32.4857 10.9784 32.3573 10.6839 32.4935C10.3893 32.6297 10.261 32.9789 10.3972 33.2735L11.3516 35.3373C11.4321 35.5117 11.5928 35.6355 11.7819 35.6692Z" fill="#EF9034"/>
<path d="M17.9977 45.5124C17.6732 45.5124 17.4102 45.7754 17.4102 46.1V49.4124C17.4102 49.737 17.6732 50 17.9977 50C18.3222 50 18.5853 49.737 18.5853 49.4124V46.1C18.5853 45.7755 18.3222 45.5124 17.9977 45.5124Z" fill="#EF9034"/>
<path d="M16.6674 35.9969L17.2642 36.3168C17.3543 36.365 17.4102 36.4585 17.4102 36.5607V38.0504C17.4102 38.375 17.6733 38.638 17.9978 38.638C18.3223 38.638 18.5854 38.375 18.5854 38.0504V36.5607C18.5854 36.0243 18.2917 35.534 17.8192 35.2809L17.2226 34.9611C16.4043 34.5225 15.8959 33.6734 15.8959 32.7451V27.4808C15.8959 27.1563 15.6328 26.8932 15.3083 26.8932C14.9838 26.8932 14.7207 27.1563 14.7207 27.4808V32.7451C14.7207 34.1075 15.4667 35.3535 16.6674 35.9969Z" fill="#EF9034"/>
<path d="M33.03 21.634C32.7054 21.634 32.4424 21.897 32.4424 22.2216V33.114C32.4424 33.8404 32.243 34.5526 31.8659 35.1734L30.9722 36.6445C30.7719 36.9741 30.666 37.3523 30.666 37.738V38.4333C30.666 38.7579 30.929 39.0209 31.2536 39.0209C31.5782 39.0209 31.8412 38.7579 31.8412 38.4333V37.738C31.8412 37.5676 31.888 37.4005 31.9766 37.2547L32.8703 35.7836C33.3592 34.9787 33.6177 34.0556 33.6177 33.114V22.2216C33.6176 21.897 33.3546 21.634 33.03 21.634Z" fill="#EF9034"/>
<path d="M30.0651 21.2568V15.8006C30.0651 15.1451 30.5985 14.6118 31.254 14.6118C31.9095 14.6118 32.4429 15.1451 32.4429 15.8006V19.7175C32.4429 20.0421 32.7059 20.3051 33.0305 20.3051C33.3551 20.3051 33.6181 20.0421 33.6181 19.7175V15.8006C33.6181 14.4971 32.5576 13.4366 31.254 13.4366C30.8186 13.4366 30.4106 13.5554 30.0599 13.7616C29.9823 12.5276 28.9543 11.5472 27.7011 11.5472C27.2485 11.5472 26.8254 11.6752 26.4657 11.8967C26.2481 10.8163 25.2918 10 24.1482 10C22.8446 10 21.7841 11.0605 21.7841 12.3641V12.5896C21.4345 12.3853 21.0285 12.2676 20.5952 12.2676C19.2916 12.2676 18.2312 13.3281 18.2312 14.6317V20.5667C17.9365 20.4479 17.6151 20.3819 17.2785 20.3819C15.8681 20.3819 14.7207 21.5294 14.7207 22.9397V24.9767C14.7207 25.3013 14.9838 25.5643 15.3083 25.5643C15.6328 25.5643 15.8959 25.3013 15.8959 24.9767V22.9397C15.8959 22.1774 16.5161 21.5571 17.2785 21.5571C18.0409 21.5571 18.6611 22.1774 18.6611 22.9397V27.0991C18.6611 27.4236 18.9242 27.6866 19.2487 27.6866C19.5732 27.6866 19.8363 27.4236 19.8363 27.0991V22.9397C19.8363 22.4158 19.6777 21.9283 19.4063 21.5223V14.6317C19.4063 13.9762 19.9397 13.4428 20.5952 13.4428C21.2507 13.4428 21.7841 13.9762 21.7841 14.6317V21.2567C21.7841 21.5813 22.0472 21.8443 22.3717 21.8443C22.6962 21.8443 22.9593 21.5813 22.9593 21.2567V12.3641C22.9593 11.7085 23.4927 11.1752 24.1482 11.1752C24.8037 11.1752 25.337 11.7085 25.337 12.3641V21.2568C25.337 21.5814 25.6 21.8444 25.9246 21.8444C26.2492 21.8444 26.5122 21.5814 26.5122 21.2568V13.9114C26.5122 13.2559 27.0456 12.7225 27.7011 12.7225C28.3566 12.7225 28.89 13.2559 28.89 13.9114V21.2568C28.89 21.5814 29.153 21.8444 29.4776 21.8444C29.8021 21.8444 30.0651 21.5813 30.0651 21.2568Z" fill="#EF9034"/>
<path d="M31.2546 45.6096C30.93 45.6096 30.667 45.8726 30.667 46.1971V49.4124C30.667 49.737 30.93 50 31.2546 50C31.5792 50 31.8422 49.737 31.8422 49.4124V46.1971C31.8422 45.8726 31.5792 45.6096 31.2546 45.6096Z" fill="#EF9034"/>
<path d="M25.5925 47.2172C25.2679 47.2172 25.0049 47.4802 25.0049 47.8048V49.4125C25.0049 49.7371 25.2679 50.0001 25.5925 50.0001C25.9171 50.0001 26.1801 49.7371 26.1801 49.4125V47.8048C26.1801 47.4802 25.917 47.2172 25.5925 47.2172Z" fill="#EF9034"/>
<path d="M25.8109 33.4708C25.1649 33.4708 24.5597 33.7039 24.0916 34.1163C23.6234 33.7038 23.0183 33.4708 22.3722 33.4708C20.9349 33.4708 19.7656 34.6401 19.7656 36.0774C19.7656 37.362 20.6997 38.4326 21.9244 38.6455V49.4124C21.9244 49.737 22.1875 50 22.512 50C22.8365 50 23.0996 49.737 23.0996 49.4124V38.0911C23.0996 37.9284 23.032 37.7729 22.9132 37.6619C22.7944 37.5509 22.6345 37.4943 22.4723 37.505C22.4392 37.5072 22.4059 37.509 22.3723 37.509C21.583 37.509 20.9409 36.8669 20.9409 36.0775C20.9409 35.2882 21.583 34.6461 22.3723 34.6461C22.8725 34.6461 23.3283 34.9009 23.5916 35.3276C23.6986 35.5011 23.8878 35.6067 24.0917 35.6067C24.2955 35.6067 24.4847 35.5011 24.5917 35.3276C24.855 34.9009 25.3109 34.6461 25.8109 34.6461C26.6003 34.6461 27.2424 35.2882 27.2424 36.0775C27.2424 36.8669 26.6003 37.509 25.8109 37.509C25.7606 37.509 25.7085 37.5061 25.6559 37.5004C25.4895 37.4831 25.3244 37.536 25.2004 37.6475C25.0763 37.7589 25.0054 37.9178 25.0054 38.0846V45.3008C25.0054 45.6254 25.2684 45.8884 25.593 45.8884C25.9176 45.8884 26.1806 45.6254 26.1806 45.3008V38.658C27.4435 38.478 28.4177 37.3894 28.4177 36.0775C28.4175 34.6401 27.2482 33.4708 25.8109 33.4708Z" fill="#EF9034"/>
<path d="M38.5569 37.6818C38.3177 37.4804 37.9774 37.4727 37.7294 37.6629H37.7295L35.0432 39.7228L34.8024 39.2659C34.6209 38.9217 34.2807 38.701 33.8924 38.6755C33.5054 38.649 33.1381 38.8241 32.913 39.1416L29.7667 43.5805C29.5995 43.8164 29.6043 44.1299 29.7786 44.3605C29.9528 44.5912 30.2529 44.6816 30.5258 44.5851L33.338 43.5903L33.7258 44.2908C33.922 44.645 34.2935 44.8637 34.6977 44.8637C34.7018 44.8637 34.7059 44.8637 34.71 44.8637C35.1189 44.8591 35.4912 44.6315 35.6814 44.2694L38.7161 38.4939C38.8615 38.2172 38.796 37.8832 38.5569 37.6818ZM34.6964 43.6178L34.1252 42.5859C34.0192 42.3945 33.8198 42.2828 33.611 42.2828C33.5458 42.2828 33.4796 42.2937 33.4152 42.3165L31.6639 42.936L33.8114 39.9062L34.3284 40.8869C34.409 41.0401 34.5533 41.1498 34.7223 41.1869C34.8915 41.2239 35.0682 41.1845 35.2057 41.0791L36.5869 40.02L34.6964 43.6178ZM38.4441 38.5958L38.4446 38.5954H38.4447C38.4445 38.5955 38.4443 38.5956 38.4441 38.5958Z" fill="#EF9034"/>
<path d="M16.6144 39.1416C16.3893 38.8241 16.0231 38.6491 15.6349 38.6754C15.2466 38.701 14.9065 38.9218 14.725 39.266L14.4841 39.7228L11.7979 37.6629C11.5498 37.4727 11.2095 37.4804 10.9704 37.6818C10.7313 37.8832 10.6658 38.2172 10.8112 38.4942L13.8458 44.2696C14.0361 44.6316 14.4083 44.8592 14.8172 44.8637C14.8213 44.8637 14.8254 44.8638 14.8295 44.8638C15.2337 44.8637 15.6053 44.6451 15.8015 44.2908L16.1892 43.5903L19.0016 44.5852C19.2743 44.6815 19.5744 44.5912 19.7487 44.3605C19.923 44.1299 19.9277 43.8164 19.7605 43.5805L16.6144 39.1416ZM11.0828 38.5954C11.0829 38.5954 11.0829 38.5954 11.0828 38.5954L11.084 38.5963C11.0836 38.596 11.0833 38.5957 11.0828 38.5954ZM16.1123 42.3164C15.8415 42.2207 15.5413 42.3345 15.4022 42.5858L14.831 43.6177L12.9406 40.0199L14.3216 41.0791C14.459 41.1844 14.6359 41.2238 14.8049 41.1868C14.974 41.1497 15.1182 41.04 15.1989 40.8868L15.7159 39.9062L17.8634 42.9359L16.1123 42.3164Z" fill="#EF9034"/>
</g>
<defs>
<clipPath id="clip0">
<rect width="40" height="40" fill="white" transform="translate(5 10)"/>
</clipPath>
</defs>
</svg>
