<svg width="60" height="60" viewBox="0 0 60 60" fill="none" xmlns="http://www.w3.org/2000/svg">
<g>
<path d="M44.5294 24.6838L46.055 23.9213L44.7475 22.6137L49.0812 19.9056L48.4188 18.8456L42.7525 22.3875L43.945 23.58L43.3075 23.8988C42.7044 23.56 42.0706 23.2662 41.4013 23.0338L40.4163 22.6912L43.0431 18.75H40.9019L42.4606 14.5944L41.29 14.1556L39.0981 20H40.7069L39.1969 22.2656L36.6788 21.39C35.675 21.0406 35 20.0912 35 19.0281V18.4519C37.5725 16.7706 39.6531 14.3856 40.9775 11.5113L41.3856 10.625H18.6144L19.0225 11.5113C20.3469 14.3863 22.4275 16.7706 25 18.4519V19.0281C25 20.0912 24.325 21.04 23.3212 21.3894L18.5988 23.0319C13.8294 24.6912 10.625 29.1981 10.625 34.2481V42.5C10.625 46.2906 13.7094 49.375 17.5 49.375H18.75H20.2456H49.375V34.2481C49.375 30.4062 47.5169 26.8825 44.5294 24.6838ZM20.6006 11.875H39.3987C37.4144 15.5494 34.0425 18.2431 30 19.3525C25.9575 18.2431 22.5856 15.5494 20.6006 11.875ZM48.125 48.125H41.875V37.0269C41.875 35.4837 42.4756 34.0331 43.5669 32.9419L42.6831 32.0581C41.3556 33.3856 40.625 35.15 40.625 37.0269V48.125H21.5912L29.0375 41.2106L31.4175 40.8137C32.3219 40.6631 33.1431 40.2406 33.7913 39.5919L38.8037 34.5794C39.1719 34.2119 39.375 33.7219 39.375 33.2006C39.375 32.4044 38.8944 31.7206 38.2094 31.4175C38.5562 31.0538 38.75 30.5806 38.75 30.0756C38.75 29.2794 38.2694 28.5956 37.5844 28.2925C37.9312 27.9287 38.125 27.4556 38.125 26.9506C38.125 25.875 37.25 25 36.1744 25C35.6531 25 35.1631 25.2031 34.795 25.5712L34.205 26.1613C33.9006 25.4788 33.2188 25 32.4244 25C31.9031 25 31.4131 25.2031 31.045 25.5712L28.6544 27.9619C28.43 26.8725 27.795 25.9012 26.85 25.2688C26.5875 25.0931 26.2812 25 25.965 25C25.0888 25 24.375 25.7138 24.375 26.59V27.2344C24.375 28.0444 24.0594 28.8069 23.4869 29.3794L22.5319 30.3344C21.7056 31.1606 21.2506 32.2594 21.2506 33.4281V35.3662L19.3756 37.2412V37.0269C19.3756 35.15 18.645 33.3856 17.3175 32.0581L16.4337 32.9419C17.5244 34.0331 18.125 35.4837 18.125 37.0269V38.4912L13.9331 42.6831L14.8169 43.5669L22.5 35.8838V33.4281C22.5 32.5938 22.825 31.8088 23.415 31.2181L24.37 30.2631C25.1794 29.4544 25.625 28.3787 25.625 27.2344V26.59C25.625 26.335 25.9412 26.165 26.155 26.3075C26.9969 26.8719 27.5 27.8137 27.5 28.8281V29.1163L25.1831 31.4331L25.1513 31.465L26.035 32.3487L26.0669 32.3169L28.75 29.6337L31.9287 26.455C32.0612 26.3231 32.2369 26.25 32.4244 26.25C32.8106 26.25 33.125 26.5644 33.125 26.9506C33.125 27.1381 33.0519 27.3137 32.92 27.4462L28.3081 32.0581L29.1919 32.9419L33.8037 28.33L35.6787 26.455C35.8112 26.3231 35.9869 26.25 36.1744 26.25C36.5606 26.25 36.875 26.5644 36.875 26.9506C36.875 27.1381 36.8019 27.3137 36.67 27.4462L35.42 28.6962L30.1831 33.9331L31.0669 34.8169L36.3037 29.58C36.4362 29.4481 36.6119 29.375 36.7994 29.375C37.1856 29.375 37.5 29.6894 37.5 30.0756C37.5 30.2631 37.4269 30.4388 37.295 30.5713L36.045 31.8213L32.0581 35.8081L32.9419 36.6919L36.9287 32.705C37.0612 32.5731 37.2369 32.5 37.4244 32.5C37.8106 32.5 38.125 32.8144 38.125 33.2006C38.125 33.3881 38.0519 33.5638 37.92 33.6963L32.9075 38.7087C32.4444 39.1719 31.8581 39.4738 31.2119 39.5813L28.4625 40.0394L19.7544 48.125H18.75H17.5C14.3988 48.125 11.875 45.6012 11.875 42.5V34.2481C11.875 29.73 14.7419 25.6969 19.0094 24.2125L23.7319 22.57C25.1875 22.0637 26.1725 20.7144 26.2375 19.185C27.3675 19.79 28.5731 20.2706 29.8406 20.6044L30 20.6462L30.1588 20.6044C31.4263 20.2706 32.6325 19.79 33.7619 19.185C33.8269 20.7144 34.8119 22.0637 36.2675 22.57L38.48 23.3394L37.6044 24.6531L38.6444 25.3463L39.6994 23.7638L40.99 24.2125C41.3088 24.3231 41.6169 24.4525 41.9194 24.5913L38.47 26.3156L39.0294 27.4338L43.2575 25.3194C46.2419 27.2463 48.125 30.5875 48.125 34.2481V48.125Z" fill="#EF9034"/>
<path d="M31.25 16.875H32.5C32.5 15.8237 31.4019 15 30 15C28.5981 15 27.5 15.8237 27.5 16.875H28.75C28.75 16.62 29.2369 16.25 30 16.25C30.7631 16.25 31.25 16.62 31.25 16.875Z" fill="#EF9034"/>
</g>
</svg>
