<svg width="58" height="58" viewBox="0 0 58 58" fill="none" xmlns="http://www.w3.org/2000/svg">
<g>
<path d="M10.2505 47.0951C10.2425 47.266 10.3048 47.4326 10.4226 47.5565C10.5404 47.6798 10.7039 47.75 10.8748 47.75H15.2498C15.5623 47.75 15.8266 47.5193 15.8693 47.2092C16.0319 46.016 17.2629 36.9621 17.6402 33.4292C17.9471 34.9201 18.2258 36.1535 18.4072 36.6978C18.893 38.1565 18.9998 44.7196 18.9998 47.125C18.9998 47.4705 19.2794 47.75 19.6248 47.75H38.3748C38.7203 47.75 38.9998 47.4705 38.9998 47.125C38.9998 44.7196 39.1067 38.1571 39.5925 36.6978C39.7739 36.1535 40.0526 34.9201 40.3595 33.4292C40.7367 36.9621 41.9678 46.016 42.1303 47.2092C42.1731 47.5193 42.4373 47.75 42.7498 47.75H47.1248C47.2957 47.75 47.4593 47.6798 47.5771 47.5565C47.6949 47.4326 47.7572 47.266 47.7492 47.0951L47.1267 34.0275C47.3537 32.3496 48.9443 19.9845 47.0357 16.804C45.7631 14.6799 40.7747 14.191 37.1322 13.834C35.9273 13.7162 34.5614 13.5819 34.2794 13.4409C33.6001 13.1016 33.3767 11.5653 33.3748 10.8744C33.3736 10.5295 33.0941 10.25 32.7498 10.25H25.2498C24.9044 10.25 24.6248 10.5295 24.6248 10.875C24.6248 11.5647 24.4039 13.0991 23.7203 13.4409C23.4383 13.5819 22.0723 13.7162 20.8675 13.834C17.2249 14.191 12.2365 14.6799 10.964 16.8033C9.05539 19.9845 10.646 32.3496 10.873 34.0275L10.2505 47.0951ZM12.0357 17.446C12.9848 15.8622 17.9958 15.3715 20.989 15.0779C22.8298 14.8978 23.8119 14.7929 24.2794 14.5591C25.4281 13.9847 25.7503 12.4021 25.8401 11.5H32.1596C32.2494 12.4021 32.5716 13.9847 33.7203 14.5591C34.1878 14.7928 35.1699 14.8978 37.0107 15.0779C40.0039 15.3715 45.0149 15.8622 45.964 17.4467C47.4087 19.8551 46.3937 30.1511 45.8803 33.9158C45.8755 33.9536 45.8736 33.9915 45.8755 34.0299L46.4693 46.5H43.2955C42.7328 42.3527 41.4998 33.0717 41.4998 32.125C41.4998 31.5132 41.3659 30.0326 41.2494 28.8608C41.7089 26.406 42.0811 24.3009 42.1151 24.1086L40.8846 23.8914C40.8657 23.997 39.0102 34.4919 38.4072 36.3022C37.8463 37.9844 37.7639 44.3564 37.7517 46.5H20.248C20.2358 44.3564 20.1534 37.9844 19.5925 36.3022C18.9895 34.4919 17.134 23.9969 17.1151 23.8914L15.8846 24.1086C15.9186 24.3009 16.2908 26.406 16.7502 28.8608C16.6338 30.0326 16.4998 31.5132 16.4998 32.125C16.4998 33.0717 15.2669 42.3527 14.7042 46.5H11.5304L12.1242 34.0299C12.1261 33.9915 12.1242 33.9536 12.1194 33.9158C11.606 30.1511 10.591 19.8551 12.0357 17.446Z" fill="#EF9034"/>
<path d="M25.25 31.5H27.75V38.375C27.75 38.6539 27.935 38.8987 28.2029 38.9756C28.2597 38.9921 28.3176 39 28.375 39C28.5862 39 28.7888 38.8926 28.9048 38.7064L35.1548 28.7064C35.2757 28.5135 35.2818 28.2706 35.1719 28.0723C35.0614 27.8733 34.8521 27.75 34.625 27.75H32.4619L34.5713 23.0039C34.6574 22.8104 34.6397 22.587 34.5243 22.4094C34.4089 22.2318 34.2118 22.125 34 22.125H24.625C24.4511 22.125 24.2845 22.1976 24.1667 22.3252C24.0482 22.4534 23.9884 22.6243 24.0019 22.7982L24.6269 30.9232C24.6519 31.2485 24.9235 31.5 25.25 31.5ZM33.0381 23.375L30.9287 28.1211C30.8427 28.3146 30.8604 28.538 30.9757 28.7156C31.0911 28.8932 31.2882 29 31.5 29H33.4971L29 36.196V30.875C29 30.5295 28.7205 30.25 28.375 30.25H25.8286L25.3001 23.375H33.0381Z" fill="#EF9034"/>
</g>
</svg>
