<svg width="58" height="60" viewBox="0 0 58 60" fill="none" xmlns="http://www.w3.org/2000/svg">
<g>
<path d="M31.5464 14.0216L29.1544 11.3635C29.0433 11.2402 28.8883 11.1661 28.7229 11.1575C28.5593 11.1487 28.3945 11.2061 28.2719 11.3171L27.8504 11.6965L27.0725 10.8319L26.1436 11.6681L26.9214 12.5327L26.5 12.912C26.2437 13.1427 26.2229 13.5379 26.4536 13.7946L28.8456 16.4526C28.9567 16.5759 29.1117 16.6501 29.2771 16.6586C29.2881 16.6592 29.2991 16.6595 29.3101 16.6595C29.4639 16.6595 29.6134 16.6025 29.7282 16.499L30.1496 16.1196L30.9275 16.9842L31.8565 16.1481L31.0786 15.2835L31.5 14.9042C31.7564 14.6735 31.7771 14.2783 31.5464 14.0216ZM29.3564 15.152L27.8007 13.4228L28.6436 12.6642L30.1993 14.3933L29.3564 15.152Z" fill="#EF9034"/>
<path d="M24.8602 15.2664C24.7052 15.325 24.5801 15.4431 24.5117 15.5942L24.279 16.1108L23.219 15.6332L22.7051 16.7728L23.7656 17.2506L23.5327 17.7676C23.3911 18.0823 23.5315 18.4521 23.8458 18.5941L27.1057 20.0632C27.1893 20.1007 27.2766 20.1187 27.3621 20.1187C27.6007 20.1187 27.8284 19.9817 27.9327 19.7504L28.1658 19.2334L29.2255 19.711L29.7394 18.5715L28.6794 18.0937L28.9124 17.5769C28.9801 17.4255 28.9856 17.2537 28.927 17.0987C28.8678 16.9437 28.75 16.8182 28.5993 16.7502L25.3388 15.2811C25.1874 15.2124 25.0153 15.2078 24.8602 15.2664ZM27.5159 17.6331L27.0496 18.6667L24.9292 17.7112L25.3949 16.6775L27.5159 17.6331Z" fill="#EF9034"/>
<path d="M21.7207 22.579H22.8834V23.1461C22.8834 23.4912 23.163 23.7711 23.5084 23.7711H27.0845C27.4299 23.7711 27.7095 23.4912 27.7095 23.1461V22.579H28.8728V21.329H27.7095V20.762C27.7095 20.4169 27.4299 20.137 27.0845 20.137H23.5084C23.163 20.137 22.8834 20.4169 22.8834 20.762V21.329H21.7207V22.579ZM24.1334 21.387H26.4595V22.5211H24.1334V21.387Z" fill="#EF9034"/>
<path d="M23.219 28.2745L24.2789 27.797L24.5117 28.3139C24.5801 28.465 24.7052 28.5831 24.8602 28.6417C24.9317 28.6688 25.0067 28.6823 25.0818 28.6823C25.1697 28.6823 25.257 28.6639 25.3388 28.627L28.5993 27.1579C28.75 27.0898 28.8678 26.9644 28.927 26.8094C28.9856 26.6544 28.9801 26.4825 28.9124 26.3312L28.6794 25.8144L29.7394 25.3366L29.2255 24.1971L28.1658 24.6747L27.9327 24.1577C27.7905 23.8434 27.4225 23.7018 27.1057 23.8449L23.8458 25.3137C23.5315 25.4553 23.3911 25.8255 23.5327 26.1401L23.7656 26.6572L22.7051 27.135L23.219 28.2745ZM27.0496 25.2411L27.5159 26.275L25.3949 27.2305L24.9292 26.1966L27.0496 25.2411Z" fill="#EF9034"/>
<path d="M27.0725 33.0762L27.8504 32.2116L28.2718 32.5909C28.3866 32.6947 28.5361 32.7515 28.6899 32.7515C28.7009 32.7515 28.7119 32.7512 28.7229 32.7506C28.8883 32.742 29.0433 32.6679 29.1544 32.5446L31.5464 29.8865C31.7771 29.6298 31.7563 29.2346 31.5 29.0039L31.0786 28.6246L31.8564 27.76L30.9275 26.9238L30.1496 27.7884L29.7281 27.4091C29.6055 27.298 29.4431 27.2397 29.2771 27.2495C29.1117 27.258 28.9567 27.3322 28.8456 27.4555L26.4536 30.1135C26.2229 30.3702 26.2436 30.7654 26.5 30.9961L26.9214 31.3754L26.1436 32.24L27.0725 33.0762ZM29.3564 28.7561L30.1993 29.5148L28.6435 31.2439L27.8007 30.4852L29.3564 28.7561Z" fill="#EF9034"/>
<path d="M34.7811 31.7255L33.7212 32.203L33.4884 31.6861C33.42 31.535 33.2949 31.4169 33.1399 31.3583C32.9849 31.2994 32.8127 31.3046 32.6614 31.373L29.4009 32.8421C29.2501 32.9102 29.1323 33.0356 29.0731 33.1906C29.0145 33.3456 29.02 33.5175 29.0878 33.6688L29.3207 34.1856L28.2607 34.6634L28.7747 35.8029L29.8343 35.3253L30.0674 35.8423C30.1718 36.0736 30.3994 36.2106 30.6381 36.2106C30.7235 36.2106 30.8108 36.1926 30.8944 36.1551L34.1543 34.6863C34.4686 34.5447 34.609 34.1745 34.4674 33.8599L34.2346 33.3428L35.2951 32.865L34.7811 31.7255ZM30.9506 34.7589L30.4843 33.725L32.6052 32.7695L33.0709 33.8034L30.9506 34.7589Z" fill="#EF9034"/>
<path d="M36.2791 37.421H35.1163V36.8539C35.1163 36.5088 34.8368 36.2289 34.4913 36.2289H30.9153C30.5698 36.2289 30.2903 36.5088 30.2903 36.8539V37.421H29.127V38.671H30.2903V39.238C30.2903 39.5831 30.5698 39.863 30.9153 39.863H34.4913C34.8368 39.863 35.1163 39.5831 35.1163 39.238V38.671H36.2791V37.421ZM33.8663 38.613H31.5403V37.4789H33.8663V38.613Z" fill="#EF9034"/>
<path d="M32.9173 44.7742C32.9924 44.7742 33.0675 44.7607 33.1389 44.7336C33.2939 44.675 33.4191 44.5569 33.4874 44.4058L33.7202 43.8892L34.7801 44.3668L35.2941 43.2272L34.2335 42.7494L34.4664 42.2324C34.608 41.9177 34.4676 41.5479 34.1533 41.4059L30.8934 39.9368C30.576 39.7955 30.208 39.9359 30.0664 40.2496L29.8334 40.7666L28.7737 40.289L28.2598 41.4285L29.3197 41.9063L29.0868 42.4231C29.019 42.5745 29.0135 42.7463 29.0721 42.9013C29.1313 43.0563 29.2491 43.1818 29.3999 43.2498L32.6604 44.7189C32.7422 44.7559 32.8295 44.7742 32.9173 44.7742ZM30.4833 42.3669L30.9496 41.3333L33.0699 42.2888L32.6042 43.3225L30.4833 42.3669Z" fill="#EF9034"/>
<path d="M26.4536 45.9784L28.8456 48.6365C28.9567 48.7598 29.1117 48.8339 29.2771 48.8425C29.2881 48.8431 29.2991 48.8434 29.3101 48.8434C29.4639 48.8434 29.6134 48.7863 29.7282 48.6829L30.1496 48.3035L30.9275 49.1681L31.8565 48.3319L31.0786 47.4673L31.5 47.088C31.7564 46.8573 31.7771 46.4621 31.5464 46.2054L29.1544 43.5474C29.0433 43.4241 28.8883 43.3499 28.7229 43.3414C28.5593 43.3295 28.3945 43.3899 28.2719 43.501L27.8504 43.8803L27.0725 43.0157L26.1436 43.8519L26.9214 44.7165L26.5 45.0958C26.2437 45.3265 26.2229 45.7217 26.4536 45.9784ZM28.6436 44.848L30.1993 46.5772L29.3565 47.3358L27.8007 45.6067L28.6436 44.848Z" fill="#EF9034"/>
<path d="M10.875 25H14.625V26.25C14.625 26.5027 14.777 26.7307 15.0107 26.8274C15.0883 26.8594 15.1694 26.875 15.25 26.875C15.4124 26.875 15.5723 26.8115 15.6919 26.6919L20.0669 22.3169C20.311 22.0728 20.311 21.6772 20.0669 21.4331L15.6919 17.0581C15.5131 16.8793 15.2451 16.8262 15.0107 16.9226C14.777 17.0194 14.625 17.2473 14.625 17.5V18.75H10.875C10.5295 18.75 10.25 19.0298 10.25 19.375V24.375C10.25 24.7202 10.5295 25 10.875 25ZM11.5 20H15.25C15.5955 20 15.875 19.7202 15.875 19.375V19.0088L18.7412 21.875L15.875 24.7412V24.375C15.875 24.0298 15.5955 23.75 15.25 23.75H11.5V20Z" fill="#EF9034"/>
<path d="M47.125 35H43.375V33.75C43.375 33.4973 43.223 33.2694 42.9893 33.1726C42.7555 33.0756 42.4869 33.129 42.3081 33.3081L37.9331 37.6831C37.689 37.9272 37.689 38.3228 37.9331 38.5669L42.3081 42.9419C42.4277 43.0615 42.5876 43.125 42.75 43.125C42.8306 43.125 42.9117 43.1094 42.9893 43.0774C43.223 42.9807 43.375 42.7527 43.375 42.5V41.25H47.125C47.4705 41.25 47.75 40.9702 47.75 40.625V35.625C47.75 35.2798 47.4705 35 47.125 35ZM46.5 40H42.75C42.4045 40 42.125 40.2798 42.125 40.625V40.9912L39.2588 38.125L42.125 35.2588V35.625C42.125 35.9702 42.4045 36.25 42.75 36.25H46.5V40Z" fill="#EF9034"/>
<path d="M36.1558 16.8085L35.875 16.25L35.5955 15.6909C35.4282 15.7745 31.5 17.7856 31.5 21.875C31.5 25.9644 35.4282 27.9755 35.5955 28.0591L36.1558 26.9415C36.1216 26.9244 32.75 25.1828 32.75 21.875C32.75 18.5672 36.1216 16.8256 36.1558 16.8085Z" fill="#EF9034"/>
<path d="M21.8438 43.1915L22.1245 43.75L22.4041 44.3091C22.5713 44.2255 26.4995 42.2144 26.4995 38.125C26.4995 34.0356 22.5713 32.0245 22.4041 31.9409L21.8438 33.0585C21.8779 33.0756 25.2495 34.8172 25.2495 38.125C25.2495 41.4328 21.8779 43.1744 21.8438 43.1915Z" fill="#EF9034"/>
</g>
</svg>
