<svg width="57" height="58" viewBox="0 0 57 58" fill="none" xmlns="http://www.w3.org/2000/svg">
<g>
<path d="M28.8793 26.1179C28.1615 25.4004 27.7666 24.4465 27.7666 23.4318C27.7666 21.337 29.4707 19.6329 31.5654 19.6329C32.5798 19.6329 33.5344 20.0281 34.2522 20.7459L35.136 19.8615C34.1814 18.9081 32.9137 18.3829 31.5654 18.3829C28.7816 18.3829 26.5166 20.6479 26.5166 23.4318C26.5166 24.7803 27.0415 26.048 27.9955 27.0017L28.8793 26.1179Z" fill="#EF9034"/>
<path d="M29.0051 29.8453C29.0051 30.742 28.656 31.5848 28.0225 32.2187L25.4346 34.8063L26.3184 35.6901L28.9062 33.1025C29.776 32.2324 30.2551 31.0755 30.2551 29.8453V29.2197H29.0051V29.8453H29.0051Z" fill="#EF9034"/>
<path d="M23.5537 36.6817L24.8049 35.4305L25.6887 36.3144L24.4376 37.5656L23.5537 36.6817Z" fill="#EF9034"/>
<path d="M28.5723 27.5833L29.4562 26.6994L30.0819 27.3252L29.1981 28.2091L28.5723 27.5833Z" fill="#EF9034"/>
<path d="M21.5107 18.3831H22.762V19.6331H21.5107V18.3831Z" fill="#EF9034"/>
<path d="M22.7627 20.8856H24.0139V22.1356H22.7627V20.8856Z" fill="#EF9034"/>
<path d="M24.0127 18.3831H25.2639V19.6331H24.0127V18.3831Z" fill="#EF9034"/>
<path d="M11.5 31.1536L17.8158 24.8379C17.9672 25.8734 18.4392 26.8303 19.1923 27.5831C19.2537 27.6446 19.3101 27.7104 19.3667 27.7761L17.941 29.2017C17.8238 29.3189 17.7579 29.4779 17.7579 29.6436V32.1461C17.7579 32.4912 18.0375 32.7711 18.3829 32.7711H19.0085C19.1746 32.7711 19.3332 32.7051 19.4504 32.588L23.8083 28.2307C24.1031 27.9356 24.5115 27.7662 24.9296 27.7662C25.8048 27.7662 26.5165 28.4782 26.5165 29.3531C26.5165 29.7709 26.3474 30.1798 26.052 30.4752L20.4435 36.0834C20.3263 36.2006 20.2604 36.3596 20.2604 36.5253V39.625V47.7579H21.5104V43.9373C22.9506 46.2274 25.4933 47.7573 28.3927 47.7573C31.2922 47.7573 33.8353 46.2273 35.2756 43.937V47.7579H36.5256V39.625V30.8948C36.5256 30.7291 36.4597 30.5701 36.3425 30.4529L30.734 24.8447C30.4343 24.5447 30.2689 24.1462 30.2689 23.7223C30.2689 22.8474 30.9812 22.1357 31.8564 22.1357C32.28 22.1357 32.6786 22.3008 32.9783 22.6002L37.3356 26.9575C37.4528 27.0746 37.6115 27.1406 37.7775 27.1406H38.4031C38.7485 27.1406 39.0281 26.8607 39.0281 26.5156V24.0131C39.0281 23.8474 38.9622 23.6884 38.845 23.5712L36.5256 21.2519V16.763L45.286 25.5231V47.7579H46.536V25.2643C46.536 25.0986 46.4701 24.9396 46.3529 24.8224L36.5256 14.9955V12.439C36.5256 11.2321 35.5436 10.25 34.3363 10.25C33.7234 10.25 33.1703 10.5049 32.7725 10.9124C32.3747 10.5049 31.8214 10.25 31.2083 10.25C30.5951 10.25 30.0418 10.5049 29.644 10.9124C29.2462 10.5049 28.6931 10.25 28.0802 10.25C27.467 10.25 26.9137 10.5049 26.5159 10.9124C26.1181 10.5049 25.565 10.25 24.9521 10.25C24.1973 10.25 23.5305 10.634 23.1368 11.2168C22.5672 10.6235 21.7707 10.25 20.8854 10.25C19.1611 10.25 17.7579 11.6529 17.7579 13.3774V23.1281L10.4331 30.4529C10.3159 30.5701 10.25 30.7291 10.25 30.8948V47.7579H11.5V31.1536ZM19.0079 31.2629V29.9024L20.0237 28.8866C20.1591 29.248 20.2374 29.6298 20.2531 30.0178L19.0079 31.2629ZM37.7781 24.2719V25.6324L36.5256 24.3798V23.0195L37.7781 24.2719ZM19.0079 13.3774C19.0079 12.3423 19.8502 11.5 20.8854 11.5C21.9205 11.5 22.7628 12.3423 22.7628 13.3774V17.1311H24.0128V13.3774V12.439C24.0128 11.9211 24.434 11.5 24.9521 11.5C25.4697 11.5 25.8909 11.9211 25.8909 12.439V17.1311H27.1409V12.439C27.1409 11.9211 27.562 11.5 28.0802 11.5C28.5978 11.5 29.0189 11.9211 29.0189 12.439V17.1311H30.2689V12.439C30.2689 11.9211 30.6901 11.5 31.2083 11.5C31.7264 11.5 32.1476 11.9211 32.1476 12.439V17.1311H33.3976V12.439C33.3976 11.9211 33.8187 11.5 34.3363 11.5C34.8545 11.5 35.2756 11.9211 35.2756 12.439V23.1297L33.8621 21.7161C33.3262 21.1805 32.6139 20.8857 31.8564 20.8857C30.2921 20.8857 29.0189 22.1583 29.0189 23.7223C29.0189 24.48 29.3143 25.1926 29.8502 25.7285L35.2756 31.1536V39.625C35.2756 43.4199 32.1879 46.5073 28.3927 46.5073C24.5975 46.5073 21.5104 43.4199 21.5104 39.625V36.7841L26.9358 31.359C27.4717 30.8228 27.7665 30.1105 27.7665 29.3531C27.7665 27.7888 26.4939 26.5162 24.9296 26.5162C24.1715 26.5162 23.4586 26.8113 22.924 27.3472L21.3475 28.9235C21.131 28.0903 20.7012 27.3245 20.076 26.6993C19.387 26.0105 19.0079 25.0947 19.0079 24.1202V13.3774Z" fill="#EF9034"/>
</g>
<defs>
</defs>
</svg>
