<svg width="50" height="50" viewBox="0 0 50 50" fill="none" xmlns="http://www.w3.org/2000/svg">
<path d="M24.9997 0C15.8099 0 8.33301 7.47686 8.33301 16.6667C8.33301 19.4255 9.02275 22.1608 10.334 24.587L24.0883 49.4629C24.2714 49.7945 24.6203 50 24.9997 50C25.3791 50 25.728 49.7945 25.9111 49.4629L39.6705 24.5788C40.9767 22.1608 41.6664 19.4254 41.6664 16.6666C41.6664 7.47686 34.1896 0 24.9997 0ZM24.9997 25C20.4048 25 16.6664 21.2616 16.6664 16.6667C16.6664 12.0718 20.4048 8.3334 24.9997 8.3334C29.5946 8.3334 33.333 12.0718 33.333 16.6667C33.333 21.2616 29.5946 25 24.9997 25Z" fill="#649D1A"/>
</svg>
