<svg width="246" height="246" viewBox="0 0 246 246" fill="none" xmlns="http://www.w3.org/2000/svg">
<g filter="url(#filter0_d)">
<ellipse rx="83" ry="83" transform="matrix(-1 -8.74228e-08 -8.74228e-08 1 123 123)" fill="white"/>
</g>
<path d="M196 123C196 162.771 163.982 195 124.5 195C85.0181 195 53 162.771 53 123C53 83.229 85.0181 51 124.5 51C163.982 51 196 83.229 196 123Z" stroke="#649D1A" stroke-width="2"/>
<path d="M157.353 151.506H150.001C150.001 148.749 147.758 146.506 145.001 146.506H144.788L142.151 132.44C141.584 129.42 139.194 127.13 136.251 126.618V119.006H156.251C159.697 119.006 162.501 116.202 162.501 112.756C162.501 110.24 160.987 108.005 158.722 107.032C158.352 102.545 154.582 99.0063 150.001 99.0063C149.402 99.0063 148.813 99.0887 148.231 99.2087C147.374 98.185 146.262 97.3725 144.962 96.92C144.539 92.4863 140.794 89.0063 136.251 89.0063C131.808 89.0063 128.129 92.3337 127.574 96.6262C127.138 96.5462 126.696 96.5063 126.251 96.5063C122.114 96.5063 118.751 99.87 118.751 104.006C118.751 108.142 122.114 111.506 126.251 111.506H128.751V125.054L120.457 127.818L121.099 127.175C122.003 126.271 122.501 125.07 122.501 123.792C122.501 121.152 120.353 119.006 117.716 119.006C116.437 119.006 115.236 119.504 114.332 120.409L111.501 123.239C110.434 120.821 108.556 118.882 106.251 117.719L106.252 113.732L106.667 113.836C107.118 113.949 107.583 114.006 108.049 114.006C111.194 114.006 113.752 111.449 113.752 108.304V104.779L116.488 103.41L114.282 95.6862C116.192 94.6163 117.501 92.5975 117.501 90.2575C117.501 88.5825 116.848 87.0075 115.662 85.8263C114.482 84.6475 112.914 84 111.251 84C111.246 84 111.241 84 111.236 84H101.251C99.3968 84 97.7943 85.025 96.9306 86.53C91.6918 86.77 87.5006 91.095 87.5006 96.3913C87.5006 98.35 88.0743 100.246 89.1606 101.875L89.8081 102.846L89.3693 103.724C88.9643 104.534 88.7506 105.441 88.7506 106.346C88.7506 109.226 90.8118 111.659 93.6531 112.132L96.2506 112.565V117.822C96.0393 117.992 95.8243 118.155 95.6343 118.356C95.2318 118.781 94.9281 119.265 94.6718 119.77C93.9493 117.835 92.0906 116.506 90.0006 116.506C89.5331 116.506 89.0706 116.571 88.6268 116.7C85.9781 117.456 84.4368 120.229 85.1918 122.881L94.1568 154.255C95.3781 158.524 99.3318 161.506 103.773 161.506H157.501C158.997 161.506 160.403 160.842 161.359 159.684C162.313 158.528 162.693 157.009 162.404 155.52C161.953 153.195 159.828 151.506 157.353 151.506ZM145.001 149.006C146.379 149.006 147.501 150.128 147.501 151.506H138.751C138.061 151.506 137.501 150.945 137.501 150.256V149.006H142.713H143.751H145.001ZM135.001 147.998V150.256C135.001 150.696 135.091 151.114 135.231 151.506H118.197C118.684 151.181 119.161 150.836 119.609 150.451L131.801 140L135.001 147.998ZM139.694 132.901L142.244 146.506H137.097L132.411 134.791L130.089 135.72L130.821 137.549L117.983 148.553C115.761 150.458 112.927 151.506 110.001 151.506H107.543C106.422 151.506 105.364 151.125 104.512 150.474L106.716 149.096C110.857 146.507 113.747 142.349 114.786 137.601C114.836 137.586 114.887 137.58 114.937 137.564L134.542 131.029C135.396 130.744 135.988 130.024 136.169 129.169C137.937 129.618 139.346 131.041 139.694 132.901ZM111.376 136.899C111.646 137.12 111.944 137.304 112.264 137.443C111.301 141.379 108.852 144.812 105.391 146.975L102.967 148.49C102.881 148.291 102.797 148.091 102.736 147.879L100.813 141.15C101.584 141.374 102.383 141.506 103.204 141.506C105.503 141.506 107.663 140.611 109.287 138.986L111.376 136.899ZM150.001 101.506C153.447 101.506 156.251 104.31 156.249 107.765L156.222 108.894L157.182 109.14C158.841 109.567 160.001 111.055 160.001 112.756C160.001 114.824 158.318 116.506 156.251 116.506H136.251V111.506H142.501C146.637 111.506 150.001 108.142 150.001 104.006C150.001 103.146 149.843 102.318 149.569 101.539C149.713 101.529 149.856 101.506 150.001 101.506ZM126.251 109.006C123.493 109.006 121.251 106.764 121.251 104.006C121.251 101.249 123.493 99.0063 126.251 99.0063C126.941 99.0063 127.621 99.1525 128.269 99.4412L130.164 100.208L130.019 98.135C130.011 98.01 130.001 97.8837 130.001 97.7563C130.001 94.31 132.804 91.5063 136.251 91.5063C139.697 91.5063 142.501 94.31 142.501 97.7275L142.494 98.905L143.497 99.1075C145.817 99.575 147.501 101.636 147.501 104.006C147.501 106.764 145.258 109.006 142.501 109.006H136.251V106.506C136.251 105.127 135.129 104.006 133.751 104.006H131.251C129.872 104.006 128.751 105.127 128.751 106.506V109.006H126.251ZM131.251 126.855V106.506H133.751V128.658L114.146 135.193C113.818 135.301 113.472 135.249 113.178 135.096L116.503 131.771L131.251 126.855ZM116.099 122.175C116.526 121.75 117.113 121.506 117.716 121.506C118.976 121.506 120.001 122.531 120.001 123.792C120.001 124.402 119.763 124.978 119.332 125.409L107.521 137.22C106.368 138.371 104.836 139.006 103.204 139.006C102.024 139.006 100.903 138.658 99.9206 138.026L97.8093 130.638L104.599 128.374L104.893 129.845L102.866 131.873L104.633 133.64L116.099 122.175ZM96.5218 122.607C96.4693 121.662 96.7993 120.763 97.4493 120.074C98.1006 119.385 98.9818 119.006 99.9281 119.006C101.549 119.006 102.957 120.16 103.274 121.749L104.106 125.904L97.1231 128.231L96.7643 126.975L96.5218 122.607ZM109.557 125.183L107.018 127.721L105.726 121.259C105.641 120.834 105.497 120.434 105.327 120.049C107.317 121.116 108.866 122.94 109.557 125.183ZM94.0631 109.666C92.4331 109.395 91.2506 107.997 91.2506 106.346C91.2506 105.826 91.3743 105.306 91.6056 104.841L92.6931 102.667L91.2406 100.489C90.4293 99.2712 90.0006 97.855 90.0006 96.3913C90.0006 92.7025 92.7218 89.6463 96.2606 89.1013C96.3118 91.8138 98.5256 94.0063 101.251 94.0063V91.5063C99.8718 91.5063 98.7506 90.385 98.7506 89C98.7506 87.6212 99.8718 86.5 101.251 86.5H111.238H111.247C112.248 86.5 113.189 86.8887 113.897 87.595C114.609 88.305 115.001 89.2513 115.001 90.2575C115.001 92.325 113.318 94.0063 111.251 94.0063H108.752C101.859 94.0063 96.2518 99.6137 96.2518 106.506V110.031L94.0631 109.666ZM98.7518 106.506C98.7518 100.992 103.238 96.5063 108.752 96.5063H111.251C111.472 96.5063 111.682 96.4637 111.897 96.4412L113.514 102.103L111.251 103.234V108.305C111.251 110.071 109.814 111.507 108.048 111.507C107.787 111.507 107.526 111.475 107.271 111.411L102.803 110.294L102.198 112.719L103.751 113.106V116.807C102.928 116.614 102.077 116.506 101.208 116.506H99.9293C99.5281 116.506 99.1343 116.547 98.7518 116.625V106.506ZM159.429 158.094C158.952 158.674 158.249 159.006 157.501 159.006H103.773C100.442 159.006 97.4768 156.769 96.5618 153.566L87.5968 122.194C87.2181 120.867 87.9881 119.481 89.3168 119.101C89.5381 119.037 89.7681 119.006 90.0006 119.006C91.1106 119.006 92.0993 119.751 92.4043 120.817L100.332 148.567C101.247 151.769 104.212 154.006 107.543 154.006H157.353C158.614 154.006 159.729 154.863 159.951 155.997C160.098 156.761 159.914 157.506 159.429 158.094Z" fill="#EF9034"/>
<path d="M152.5 96.5059C155.946 96.5059 158.75 93.7021 158.75 90.2559C158.75 86.8096 155.946 84.0059 152.5 84.0059C149.054 84.0059 146.25 86.8096 146.25 90.2559C146.25 93.7021 149.054 96.5059 152.5 96.5059ZM152.5 86.5059C154.568 86.5059 156.25 88.1884 156.25 90.2559C156.25 92.3234 154.568 94.0059 152.5 94.0059C150.433 94.0059 148.75 92.3234 148.75 90.2559C148.75 88.1884 150.433 86.5059 152.5 86.5059Z" fill="#EF9034"/>
<defs>
<filter id="filter0_d" x="0" y="0" width="246" height="246" filterUnits="userSpaceOnUse" color-interpolation-filters="sRGB">
<feFlood flood-opacity="0" result="BackgroundImageFix"/>
<feColorMatrix in="SourceAlpha" type="matrix" values="0 0 0 0 0 0 0 0 0 0 0 0 0 0 0 0 0 0 127 0"/>
<feMorphology radius="10" operator="dilate" in="SourceAlpha" result="effect1_dropShadow"/>
<feOffset/>
<feGaussianBlur stdDeviation="15"/>
<feColorMatrix type="matrix" values="0 0 0 0 0 0 0 0 0 0 0 0 0 0 0 0 0 0 0.05 0"/>
<feBlend mode="normal" in2="BackgroundImageFix" result="effect1_dropShadow"/>
<feBlend mode="normal" in="SourceGraphic" in2="effect1_dropShadow" result="shape"/>
</filter>
</defs>
</svg>
