<svg width="246" height="246" viewBox="0 0 246 246" fill="none" xmlns="http://www.w3.org/2000/svg">
<g filter="url(#filter0_d)">
<ellipse rx="83" ry="83" transform="matrix(-1 -8.74228e-08 -8.74228e-08 1 123 123)" fill="white"/>
</g>
<path d="M118.75 104.25H116.25C116.25 106.318 117.932 108 120 108C122.068 108 123.75 106.318 123.75 104.25H121.25C121.25 104.939 120.69 105.5 120 105.5C119.31 105.5 118.75 104.939 118.75 104.25Z" fill="#EF9034"/>
<path d="M161.25 149.25C162.629 149.25 163.75 148.129 163.75 146.75V124.25C163.75 122.871 162.629 121.75 161.25 121.75H128.75C127.371 121.75 126.25 122.871 126.25 124.25V127.539C125.036 126.976 123.744 126.584 122.417 126.419L116.25 125.646V124.25H118.749H118.756C120.759 124.25 122.639 123.47 124.054 122.055C125.47 120.639 126.25 118.755 126.25 116.75V112.522L128.75 111.272V110.5C128.75 106.409 126.583 101.826 125.504 99.7963C125.74 99.605 125.969 99.4012 126.188 99.1837C127.839 97.5312 128.75 95.335 128.75 92.9963C128.75 88.1738 124.826 84.25 120.004 84.25H115C103.283 84.25 93.75 93.7825 93.75 105.5C93.75 112.154 96.9275 118.509 102.25 122.5L103.75 123.625V125.646L97.5825 126.418C95.5988 126.665 93.6725 127.381 92.01 128.49C88.4037 130.895 86.25 134.919 86.25 139.255V151.75C86.25 155.886 89.6137 159.25 93.75 159.25H126.25C126.25 160.629 127.371 161.75 128.75 161.75H161.25C162.629 161.75 163.75 160.629 163.75 159.25C163.75 156.493 161.507 154.25 158.75 154.25H151.25V149.25H161.25ZM128.75 124.25H161.25V146.75H151.25V141.75C151.25 140.371 150.129 139.25 148.75 139.25H141.25C139.871 139.25 138.75 140.371 138.75 141.75V146.75H128.75V124.25ZM109.681 139.25H110.32L113.32 149.25H106.68L109.681 139.25ZM110.404 136.75H109.597L108.464 133.916L110 133.147L111.537 133.916L110.404 136.75ZM107.89 131.408L103.493 133.606L102.734 128.293L104.549 128.065L107.89 131.408ZM112.11 131.408L115.451 128.066L117.266 128.294L116.507 133.607L112.11 131.408ZM126.221 109.742L123.75 110.978V116.75H121.545C120.298 116.75 119.175 116.056 118.618 114.941L116.381 116.06C117.368 118.028 119.346 119.25 121.545 119.25H123.06C122.844 119.621 122.597 119.976 122.286 120.287C121.344 121.23 120.09 121.75 118.755 121.75C118.754 121.75 118.751 121.75 118.75 121.75H111.25V124.25H113.75V126.232L110 129.982L106.25 126.232V113.625L102.417 110.75C101.686 110.203 101.25 109.33 101.25 108.416C101.25 106.809 102.559 105.5 104.166 105.5H106.25V103.177C106.25 101.997 106.74 100.895 107.571 100.106C107.624 100.164 107.663 100.229 107.717 100.284C108.66 101.224 109.91 101.741 111.241 101.741H111.253C112.781 101.74 116.485 101.741 119.997 101.744H120.006C121.174 101.744 122.306 101.516 123.354 101.083C124.264 102.819 125.978 106.466 126.221 109.742ZM96.25 105.5C96.25 95.1613 104.661 86.75 115 86.75H120.004C123.449 86.75 126.25 89.5525 126.25 92.9987C126.25 94.6675 125.599 96.2362 124.419 97.4163C123.24 98.5938 121.673 99.2425 120.006 99.2425C120.004 99.2425 120.002 99.2425 120 99.2425C119.584 99.2425 119.165 99.2413 118.747 99.2413V99.24C118.745 99.24 118.743 99.24 118.741 99.24C118.077 99.24 117.453 98.9812 116.983 98.5125C116.51 98.0425 116.25 97.4138 116.25 96.745C116.25 95.37 117.37 94.25 118.745 94.25V91.75C115.991 91.75 113.75 93.99 113.75 96.745C113.75 97.6388 114.001 98.4862 114.439 99.2388C113.081 99.2388 111.936 99.2387 111.249 99.24C111.246 99.24 111.244 99.24 111.243 99.24C110.579 99.24 109.954 98.9812 109.484 98.5125C109.01 98.0425 108.75 97.4138 108.75 96.745C108.75 95.37 109.87 94.25 111.245 94.25H111.25L111.245 91.75C108.491 91.75 106.25 93.99 106.25 96.745C106.25 97.1213 106.301 97.4888 106.381 97.8475C104.782 99.0775 103.8 100.965 103.751 103.016C100.959 103.229 98.75 105.57 98.75 108.416C98.75 110.111 99.5588 111.731 100.916 112.749L103.75 114.875V120.5C99.0538 116.978 96.25 111.37 96.25 105.5ZM88.75 151.75V139.255C88.75 135.756 90.4875 132.51 93.3975 130.571C94.7387 129.676 96.2925 129.099 97.8937 128.899L100.252 128.604L101.509 137.394L106.22 135.039L107.427 138.059L104.07 149.25H98.75V140.205L97.3688 137.441L95.1325 138.56L96.25 140.795V149.978L94.1213 152.085L95.8787 153.862L98.0138 151.75H116.25V156.75H93.75C90.9925 156.75 88.75 154.507 88.75 151.75ZM118.75 156.75V151.75H120C123.019 151.75 125.544 153.901 126.124 156.75H118.75ZM120 149.25H115.93L112.573 138.059L113.78 135.039L118.491 137.394L119.748 128.604L122.106 128.899C123.57 129.081 124.986 129.594 126.249 130.364V146.75C126.249 148.129 127.37 149.25 128.749 149.25H138.749V154.25H131.249C130.14 154.25 129.125 154.625 128.295 155.238C127.135 151.764 123.859 149.25 120 149.25ZM161.253 159.25H128.75C128.75 157.871 129.871 156.75 131.25 156.75H158.75C160.129 156.75 161.25 157.871 161.253 159.25ZM141.25 154.25V141.75H148.75V154.25H141.25Z" fill="#EF9034"/>
<path d="M196 123C196 162.771 163.982 195 124.5 195C85.0181 195 53 162.771 53 123C53 83.229 85.0181 51 124.5 51C163.982 51 196 83.229 196 123Z" stroke="#649D1A" stroke-width="2"/>
<defs>
<filter id="filter0_d" x="0" y="0" width="246" height="246" filterUnits="userSpaceOnUse" color-interpolation-filters="sRGB">
<feFlood flood-opacity="0" result="BackgroundImageFix"/>
<feColorMatrix in="SourceAlpha" type="matrix" values="0 0 0 0 0 0 0 0 0 0 0 0 0 0 0 0 0 0 127 0"/>
<feMorphology radius="10" operator="dilate" in="SourceAlpha" result="effect1_dropShadow"/>
<feOffset/>
<feGaussianBlur stdDeviation="15"/>
<feColorMatrix type="matrix" values="0 0 0 0 0 0 0 0 0 0 0 0 0 0 0 0 0 0 0.05 0"/>
<feBlend mode="normal" in2="BackgroundImageFix" result="effect1_dropShadow"/>
<feBlend mode="normal" in="SourceGraphic" in2="effect1_dropShadow" result="shape"/>
</filter>
</defs>
</svg>
