<svg width="246" height="246" viewBox="0 0 246 246" fill="none" xmlns="http://www.w3.org/2000/svg">
<g filter="url(#filter0_d)">
<ellipse rx="83" ry="83" transform="matrix(-1 -8.74228e-08 -8.74228e-08 1 123 123)" fill="white"/>
</g>
<path d="M105.336 131.001C104.018 131.001 102.729 131.392 101.633 132.125C100.536 132.857 99.6819 133.898 99.1774 135.116C98.6728 136.334 98.5408 137.675 98.798 138.968C99.0552 140.261 99.6901 141.448 100.622 142.381C101.555 143.313 102.743 143.948 104.036 144.205C105.329 144.462 106.669 144.33 107.887 143.826C109.105 143.321 110.147 142.467 110.879 141.371C111.612 140.274 112.003 138.986 112.003 137.667C112 135.9 111.297 134.206 110.048 132.956C108.798 131.707 107.104 131.004 105.336 131.001ZM105.336 141.667C104.545 141.667 103.772 141.432 103.114 140.993C102.456 140.553 101.944 139.929 101.641 139.198C101.338 138.467 101.259 137.663 101.413 136.887C101.568 136.111 101.949 135.399 102.508 134.839C103.067 134.28 103.78 133.899 104.556 133.745C105.332 133.59 106.136 133.67 106.867 133.972C107.598 134.275 108.222 134.788 108.662 135.445C109.101 136.103 109.336 136.876 109.336 137.667C109.336 138.728 108.915 139.745 108.165 140.495C107.414 141.245 106.397 141.667 105.336 141.667Z" fill="#EF9034"/>
<path d="M97.3364 129.666C98.8091 129.666 100.003 128.472 100.003 127C100.003 125.527 98.8091 124.333 97.3364 124.333C95.8638 124.333 94.6699 125.527 94.6699 127C94.6699 128.472 95.8638 129.666 97.3364 129.666Z" fill="#EF9034"/>
<path d="M133.334 110.997C134.807 110.997 136.001 109.804 136.001 108.331C136.001 106.859 134.807 105.665 133.334 105.665C131.862 105.665 130.668 106.859 130.668 108.331C130.668 109.804 131.862 110.997 133.334 110.997Z" fill="#EF9034"/>
<path d="M144.001 110.997C145.474 110.997 146.668 109.804 146.668 108.331C146.668 106.859 145.474 105.665 144.001 105.665C142.529 105.665 141.335 106.859 141.335 108.331C141.335 109.804 142.529 110.997 144.001 110.997Z" fill="#EF9034"/>
<path d="M151.401 129.373L145.334 128.507V123.867C147.196 122.795 148.77 121.287 149.922 119.474C151.073 117.66 151.768 115.595 151.947 113.454C152.74 113.187 153.43 112.678 153.918 111.999C154.406 111.319 154.668 110.504 154.667 109.667V107C154.665 105.989 154.279 105.017 153.587 104.28C153.888 104.226 154.161 104.068 154.358 103.835C154.555 103.601 154.664 103.306 154.667 103V84.3337C154.668 84.1219 154.618 83.9129 154.52 83.7248C154.423 83.5367 154.281 83.3751 154.107 83.2537C153.936 83.1298 153.738 83.0483 153.53 83.0158C153.321 82.9834 153.108 83.0009 152.907 83.0671L146.668 85.1471V84.3337C146.667 84.1064 146.608 83.8831 146.497 83.6849C146.386 83.4868 146.225 83.3203 146.032 83.2014C145.838 83.0825 145.617 83.0151 145.39 83.0056C145.163 82.9961 144.937 83.0448 144.734 83.1471L141.335 84.8404V84.3337C141.335 83.9801 141.194 83.641 140.944 83.3909C140.694 83.1409 140.355 83.0004 140.001 83.0004H112.003C111.858 83.003 111.715 83.0254 111.576 83.0671L95.5769 88.4004C95.367 88.4729 95.1781 88.5959 95.027 88.7587C94.8758 88.9215 94.7671 89.119 94.7103 89.3337L90.1905 106.534C89.5927 105.986 88.8145 105.678 88.004 105.667C85.7641 105.667 84.0042 108.014 84.0042 111C84.0042 113.987 85.7641 116.334 88.004 116.334V147.187C87.0849 147.424 86.2438 147.897 85.5641 148.56C84.8174 149.306 84.3088 150.257 84.1027 151.292C83.8966 152.327 84.0022 153.4 84.4062 154.375C84.8102 155.35 85.4944 156.183 86.3722 156.769C87.25 157.355 88.2819 157.668 89.3373 157.667H92.0038V159C92.0069 160.06 92.4294 161.075 93.1788 161.825C93.9282 162.574 94.9437 162.997 96.0036 163H102.67C103.73 162.997 104.745 162.574 105.495 161.825C106.244 161.075 106.667 160.06 106.67 159V157.667H118.189L132.962 162.92C133.107 162.972 133.26 162.999 133.415 163H143.961C144.116 162.999 144.269 162.972 144.414 162.92L163.12 156.253C163.377 156.159 163.599 155.989 163.756 155.765C163.914 155.541 163.999 155.274 164 155V143.893C163.981 140.367 162.699 136.964 160.388 134.301C158.077 131.637 154.889 129.89 151.401 129.373ZM152.001 109.667C152.001 110.021 151.86 110.36 151.61 110.61C151.36 110.86 151.021 111 150.667 111C150.314 111 149.975 111.141 149.725 111.391C149.475 111.641 149.334 111.98 149.334 112.334C149.334 115.163 148.21 117.876 146.21 119.876C144.21 121.876 141.497 123 138.668 123C135.839 123 133.126 121.876 131.126 119.876C129.126 117.876 128.002 115.163 128.002 112.334C128.002 111.98 127.861 111.641 127.611 111.391C127.361 111.141 127.022 111 126.669 111C126.315 111 125.976 110.86 125.726 110.61C125.476 110.36 125.335 110.021 125.335 109.667V107C125.335 106.647 125.476 106.308 125.726 106.057C125.976 105.807 126.315 105.667 126.669 105.667C127.022 105.667 127.361 105.526 127.611 105.276C127.861 105.026 128.002 104.687 128.002 104.334V101.054L130.535 99.3603C131.711 98.5707 133.108 98.1771 134.523 98.2371C135.938 98.2971 137.297 98.8074 138.401 99.6936L140.508 101.374C140.741 101.564 141.033 101.668 141.335 101.667H149.334V104.334C149.334 104.687 149.475 105.026 149.725 105.276C149.975 105.526 150.314 105.667 150.667 105.667C151.021 105.667 151.36 105.807 151.61 106.057C151.86 106.308 152.001 106.647 152.001 107V109.667ZM142.668 125.04V129.667C142.668 130.728 142.246 131.745 141.496 132.495C140.746 133.245 139.729 133.667 138.668 133.667C137.607 133.667 136.59 133.245 135.84 132.495C135.09 131.745 134.668 130.728 134.668 129.667V125.04C137.269 125.876 140.067 125.876 142.668 125.04ZM139.295 88.1337C139.49 88.2532 139.712 88.3209 139.941 88.3302C140.17 88.3395 140.397 88.2903 140.601 88.187L144.001 86.4937V87.0004C144 87.2123 144.051 87.4212 144.148 87.6093C144.246 87.7974 144.387 87.959 144.561 88.0804C144.732 88.2043 144.93 88.2858 145.139 88.3183C145.347 88.3507 145.56 88.3332 145.761 88.267L152.001 86.187V100.334C152.001 99.98 151.86 99.6409 151.61 99.3908C151.36 99.1408 151.021 99.0003 150.667 99.0003H141.801L140.068 97.6137C138.523 96.3714 136.621 95.6549 134.64 95.5686C132.659 95.4822 130.703 96.0305 129.055 97.1337L125.935 99.227C125.752 99.3478 125.601 99.512 125.497 99.705C125.392 99.8981 125.336 100.114 125.335 100.334C125.34 96.6751 126.708 93.1497 129.174 90.4471C131.64 87.7445 135.025 86.059 138.668 85.7204V87.0004C138.668 87.227 138.725 87.4499 138.834 87.6482C138.944 87.8465 139.102 88.0136 139.295 88.1337ZM112.216 85.6671H130.802C129.608 86.4244 128.507 87.3194 127.522 88.3337H104.216L112.216 85.6671ZM90.6705 115.174L97.0302 91.0004H125.415C124.874 91.85 124.401 92.7417 124.002 93.667H100.003C99.703 93.6648 99.4109 93.7655 99.1757 93.9522C98.9404 94.139 98.7761 94.4006 98.7101 94.6937L94.7103 112.027C94.6641 112.222 94.6627 112.426 94.7061 112.622C94.7495 112.818 94.8366 113.002 94.9609 113.159C95.0853 113.317 95.2436 113.444 95.4242 113.532C95.6047 113.62 95.8028 113.666 96.0036 113.667H125.415C125.627 115.767 126.335 117.787 127.48 119.56C128.625 121.333 130.175 122.809 132.002 123.867V128.507L125.935 129.373C124.274 129.611 122.667 130.139 121.189 130.933C113.136 119.4 95.5636 116.907 90.6705 116.44V115.174ZM122.909 111H109.39L117.056 101.147L114.949 99.5203L106.016 111H97.6835L101.07 96.3337H123.149C122.833 97.6436 122.672 98.9861 122.669 100.334V103C122.672 103.306 122.781 103.601 122.978 103.835C123.175 104.068 123.448 104.226 123.749 104.28C123.057 105.017 122.671 105.989 122.669 107V109.667C122.666 110.122 122.747 110.574 122.909 111ZM86.6707 111C86.6707 109.4 87.4707 108.334 88.004 108.334C88.444 108.334 89.0173 109.04 89.2439 110.107L88.3373 113.547C88.2409 113.62 88.1247 113.662 88.004 113.667C87.4707 113.667 86.6707 112.6 86.6707 111ZM104.003 159C104.003 159.354 103.863 159.693 103.613 159.943C103.363 160.193 103.023 160.333 102.67 160.333H96.0036C95.65 160.333 95.3108 160.193 95.0608 159.943C94.8108 159.693 94.6703 159.354 94.6703 159V157.667H104.003V159ZM113.336 155H89.3373C88.6307 154.998 87.9537 154.716 87.4541 154.217C86.9545 153.717 86.6728 153.04 86.6707 152.333C86.676 151.628 86.9586 150.953 87.4575 150.454C87.9565 149.955 88.6317 149.672 89.3373 149.667H113.336V155ZM113.336 147H90.6705V119.12C95.5236 119.654 111.723 122.147 118.949 132.387C117.208 133.759 115.799 135.506 114.827 137.498C113.855 139.491 113.345 141.677 113.336 143.893V147ZM124.002 155C124.002 155.354 123.862 155.693 123.612 155.943C123.362 156.193 123.022 156.333 122.669 156.333H122.402L121.336 155.96V151H122.669C123.022 151 123.362 151.141 123.612 151.391C123.862 151.641 124.002 151.98 124.002 152.333V155ZM130.735 159.307L125.749 157.52C126.338 156.812 126.663 155.921 126.669 155V152.333C126.666 151.444 126.367 150.581 125.818 149.881C125.27 149.181 124.505 148.683 123.642 148.467C127.133 144.493 132.057 142.067 137.335 141.72V152.453C135.647 152.742 134.097 153.563 132.909 154.796C131.722 156.029 130.96 157.61 130.735 159.307ZM143.734 160.333H133.642L133.348 160.227C133.381 158.836 133.957 157.514 134.952 156.543C135.948 155.572 137.284 155.029 138.675 155.031C140.065 155.033 141.4 155.579 142.393 156.552C143.386 157.526 143.958 158.85 143.988 160.24L143.734 160.333ZM151.601 157.533L146.601 159.307C146.376 157.61 145.614 156.029 144.427 154.796C143.239 153.563 141.689 152.742 140.001 152.453V141.72C145.279 142.067 150.203 144.493 153.694 148.467C152.831 148.683 152.066 149.181 151.518 149.881C150.969 150.581 150.67 151.444 150.667 152.333V155C150.673 155.928 151.003 156.824 151.601 157.533ZM156 155.96L154.96 156.333H154.667C154.314 156.333 153.974 156.193 153.724 155.943C153.474 155.693 153.334 155.354 153.334 155V152.333C153.334 151.98 153.474 151.641 153.724 151.391C153.974 151.141 154.314 151 154.667 151H156V155.96ZM161.333 154.053L158.667 155.013V149.667C158.667 149.313 158.526 148.974 158.276 148.724C158.026 148.474 157.687 148.333 157.334 148.333H156.987C154.886 145.443 152.132 143.09 148.948 141.468C145.764 139.846 142.241 139 138.668 139C135.095 139 131.572 139.846 128.388 141.468C125.204 143.09 122.45 145.443 120.349 148.333H120.002C119.649 148.333 119.31 148.474 119.06 148.724C118.81 148.974 118.669 149.313 118.669 149.667V155.013L116.003 154.053V143.893C116.017 141.008 117.064 138.223 118.955 136.044C120.845 133.864 123.454 132.435 126.309 132.013L132.188 131.173C132.526 132.64 133.35 133.948 134.527 134.885C135.704 135.822 137.164 136.332 138.668 136.332C140.172 136.332 141.632 135.822 142.809 134.885C143.986 133.948 144.81 132.64 145.148 131.173L151.027 132.013C153.882 132.435 156.491 133.864 158.381 136.044C160.272 138.223 161.319 141.008 161.333 143.893V154.053Z" fill="#EF9034"/>
<path d="M196 123C196 162.771 163.982 195 124.5 195C85.0181 195 53 162.771 53 123C53 83.229 85.0181 51 124.5 51C163.982 51 196 83.229 196 123Z" stroke="#649D1A" stroke-width="2"/>
<defs>
<filter id="filter0_d" x="0" y="0" width="246" height="246" filterUnits="userSpaceOnUse" color-interpolation-filters="sRGB">
<feFlood flood-opacity="0" result="BackgroundImageFix"/>
<feColorMatrix in="SourceAlpha" type="matrix" values="0 0 0 0 0 0 0 0 0 0 0 0 0 0 0 0 0 0 127 0"/>
<feMorphology radius="10" operator="dilate" in="SourceAlpha" result="effect1_dropShadow"/>
<feOffset/>
<feGaussianBlur stdDeviation="15"/>
<feColorMatrix type="matrix" values="0 0 0 0 0 0 0 0 0 0 0 0 0 0 0 0 0 0 0.05 0"/>
<feBlend mode="normal" in2="BackgroundImageFix" result="effect1_dropShadow"/>
<feBlend mode="normal" in="SourceGraphic" in2="effect1_dropShadow" result="shape"/>
</filter>
</defs>
</svg>
