<svg width="246" height="246" viewBox="0 0 246 246" fill="none" xmlns="http://www.w3.org/2000/svg">
<g filter="url(#filter0_d)">
<ellipse rx="83" ry="83" transform="matrix(-1 -8.74228e-08 -8.74228e-08 1 123 123)" fill="white"/>
</g>
<path d="M116.5 136.75C113.75 136.75 111.5 139 111.5 141.75C111.5 144.5 113.75 146.75 116.5 146.75C119.25 146.75 121.5 144.5 121.5 141.75C121.5 139 119.25 136.75 116.5 136.75ZM116.5 144.25C115.125 144.25 114 143.125 114 141.75C114 140.375 115.125 139.25 116.5 139.25C117.875 139.25 119 140.375 119 141.75C119 143.125 117.875 144.25 116.5 144.25Z" fill="#EF9034"/>
<path d="M145.75 127.375L134.875 122.625C137.25 120.25 138.75 117 138.875 113.625L142.375 111C143.375 110.25 143.875 109.125 143.875 108V106.25C143.875 104.5 142.75 103 141 102.625L140.5 102.5C142.625 100.5 143.75 97.8755 143.75 95.0005V94.6255C143.75 92.3755 142.875 90.2505 141.25 88.7505L137.625 85.1255L136.5 86.1255C134.625 87.3755 132.5 88.0005 130.25 88.0005H112.375C107.75 88.0005 104 91.7505 104 96.3755C104 98.6255 105 100.75 106.875 102L107.375 102.375L106.875 102.5C105.125 103 104 104.5 104 106.25V108C104 109.125 104.5 110.25 105.5 111L109 113.625C109.25 117 110.625 120.25 113 122.625L102.125 127.375C97.125 129.5 93.875 134.5 93.875 140V160.5H141.375C149.625 160.5 156.375 153.875 156.375 145.5C156.375 142.25 155.375 139.125 153.5 136.625C152.5 132.5 149.625 129 145.75 127.375ZM149.625 144.25L145.75 139.375L149.375 135.75C152 137.875 153.75 140.875 154 144.25H149.625ZM143.375 150.5H139.625L135.625 145.5L139.625 140.5H143.375L147.375 145.5L143.375 150.5ZM129.125 146.75H133.5L137.375 151.625L133.75 155.25C131.125 153.125 129.375 150.125 129.125 146.75ZM143.5 138H139.5L135.875 134.375C139.375 132.625 143.625 132.625 147.125 134.375L143.5 138ZM133.75 135.75L137.375 139.375L133.375 144.25H129C129.375 140.875 131.125 137.875 133.75 135.75ZM115.25 124.375L118.875 127C122 129.25 126.125 129.25 129.125 127L132.75 124.375L136 125.75L127.125 130.875C125.125 132 122.75 132 120.875 130.875L112 125.75L115.25 124.375ZM141.5 106.25V108C141.5 108.375 141.375 108.75 141 109L139 110.5V104.625L140.5 105C141.125 105.125 141.5 105.625 141.5 106.25ZM106.5 96.3755C106.5 93.1255 109.125 90.5005 112.375 90.5005H130.25C132.875 90.5005 135.375 89.7505 137.625 88.3755L139.875 90.6255C140.875 91.6255 141.5 93.1255 141.5 94.6255V94.8755C141.5 97.0005 140.625 99.1255 139 100.625V99.7505C139 97.6255 137.375 96.0005 135.25 96.0005C135 96.0005 134.75 96.0005 134.625 96.0005L109.25 100.625L108.375 100C107.125 99.1255 106.5 97.7505 106.5 96.3755ZM106.5 108V106.25C106.5 105.625 106.875 105.125 107.5 105L109 104.625V110.5L107 109C106.625 108.75 106.5 108.375 106.5 108ZM111.5 102.75L135 98.5005C135.625 98.3755 136.375 98.8755 136.5 99.5005V99.7505V112.875C136.5 116.5 134.75 119.875 131.875 122L127.625 125C125.375 126.625 122.5 126.625 120.25 125L116 122C113.125 119.875 111.375 116.5 111.375 112.875V102.75H111.5ZM110.25 158V146.75H107.75V158H96.5V140C96.5 138.5 96.75 137 97.375 135.75L101.875 140.25L103.625 138.5L98.625 133.5C99.125 132.75 99.75 132 100.5 131.375L104.375 135.25L106.125 133.5L102.75 129.875C103 129.75 103.125 129.625 103.375 129.625L109.25 127L119.625 133.125C122.375 134.75 125.75 134.75 128.5 133.125L138.875 127L144.75 129.625C146.125 130.25 147.375 131.125 148.375 132.125C141 128.375 132 131.25 128.25 138.625C124.75 145.375 126.875 153.75 133.375 158H110.25ZM135.875 156.625L139.5 153H143.5L147.125 156.625C143.625 158.5 139.375 158.5 135.875 156.625ZM149.25 155.25L145.625 151.625L149.5 146.75H153.875C153.625 150.125 151.875 153.125 149.25 155.25Z" fill="#EF9034"/>
<path d="M196 123C196 162.771 163.982 195 124.5 195C85.0181 195 53 162.771 53 123C53 83.229 85.0181 51 124.5 51C163.982 51 196 83.229 196 123Z" stroke="#649D1A" stroke-width="2"/>
<defs>
<filter id="filter0_d" x="0" y="0" width="246" height="246" filterUnits="userSpaceOnUse" color-interpolation-filters="sRGB">
<feFlood flood-opacity="0" result="BackgroundImageFix"/>
<feColorMatrix in="SourceAlpha" type="matrix" values="0 0 0 0 0 0 0 0 0 0 0 0 0 0 0 0 0 0 127 0"/>
<feMorphology radius="10" operator="dilate" in="SourceAlpha" result="effect1_dropShadow"/>
<feOffset/>
<feGaussianBlur stdDeviation="15"/>
<feColorMatrix type="matrix" values="0 0 0 0 0 0 0 0 0 0 0 0 0 0 0 0 0 0 0.05 0"/>
<feBlend mode="normal" in2="BackgroundImageFix" result="effect1_dropShadow"/>
<feBlend mode="normal" in="SourceGraphic" in2="effect1_dropShadow" result="shape"/>
</filter>
</defs>
</svg>
