<svg width="246" height="246" viewBox="0 0 246 246" fill="none" xmlns="http://www.w3.org/2000/svg">
<g filter="url(#filter0_d)">
<ellipse rx="83" ry="83" transform="matrix(-1 -8.74228e-08 -8.74228e-08 1 123 123)" fill="white"/>
</g>
<path d="M196 123C196 162.771 163.982 195 124.5 195C85.0181 195 53 162.771 53 123C53 83.229 85.0181 51 124.5 51C163.982 51 196 83.229 196 123Z" stroke="#649D1A" stroke-width="2"/>
<path d="M118.627 110.927C119.396 111.281 120.205 111.449 121.002 111.449C123.159 111.449 125.227 110.219 126.187 108.134C127.502 105.28 126.249 101.888 123.394 100.573C122.012 99.9368 120.464 99.8765 119.036 100.404C117.608 100.931 116.471 101.983 115.834 103.366C115.197 104.749 115.137 106.297 115.664 107.725C116.192 109.153 117.244 110.29 118.627 110.927ZM117.963 104.346C118.338 103.532 119.007 102.913 119.848 102.602C120.227 102.462 120.62 102.392 121.012 102.392C121.49 102.392 121.967 102.496 122.414 102.702C124.095 103.476 124.832 105.473 124.058 107.153C123.284 108.834 121.287 109.572 119.607 108.798C118.793 108.423 118.173 107.753 117.863 106.912C117.552 106.072 117.588 105.16 117.963 104.346Z" fill="#EF9034"/>
<path d="M109.634 136.536L113.635 138.379C113.793 138.452 113.96 138.487 114.124 138.487C114.567 138.487 114.992 138.234 115.189 137.805C115.46 137.217 115.203 136.521 114.615 136.25L110.92 134.548L113.746 130.18C113.777 130.133 113.803 130.084 113.827 130.033C114.233 129.152 114.271 128.165 113.935 127.255C113.599 126.345 112.928 125.62 112.047 125.214C111.165 124.808 110.178 124.77 109.268 125.106C108.358 125.442 107.633 126.113 107.227 126.994C107.204 127.045 107.184 127.097 107.168 127.151L105.687 132.137L102.745 130.783C103.616 121.922 106.121 110.318 108.927 102.229C109.139 101.617 108.816 100.95 108.204 100.737C107.592 100.525 106.925 100.849 106.713 101.461C103.763 109.963 101.14 122.273 100.334 131.397C100.29 131.89 100.561 132.358 101.011 132.565L105.012 134.407L103.604 139.145C103.338 140.04 103.761 140.973 104.609 141.364C104.864 141.481 105.132 141.538 105.395 141.538C106.006 141.538 106.594 141.233 106.949 140.685L109.634 136.536ZM109.387 127.911C109.536 127.63 109.78 127.416 110.081 127.305C110.404 127.185 110.754 127.199 111.067 127.343C111.379 127.487 111.617 127.744 111.737 128.067C111.848 128.368 111.844 128.693 111.726 128.988L106.81 136.585L109.387 127.911Z" fill="#EF9034"/>
<path d="M155.825 98.7696C155.548 98.4582 155.127 98.3173 154.718 98.3995L150.175 99.3136C150.117 99.3253 150.056 99.3217 150 99.3033L145.56 97.8515C142.427 96.8285 139.047 98.544 138.024 101.675L137.534 103.175C137.582 102.561 137.605 101.935 137.6 101.297C137.605 101.247 137.608 101.196 137.607 101.145C137.471 92.2068 132.159 83.8839 131.934 83.534C131.697 83.1679 131.278 82.967 130.847 83.0051C130.829 83.0066 130.811 83.006 130.792 83.0085C130.786 83.0093 130.773 83.0113 130.755 83.0137C129.989 83.121 120.465 84.5522 113.722 90.1447C113.682 90.1775 113.645 90.2127 113.611 90.2497C111.396 92.1146 109.72 94.2404 108.644 96.5761L108.452 96.9997C108.186 97.5898 108.449 98.2837 109.039 98.5496C109.629 98.8154 110.323 98.5528 110.588 97.9627L110.775 97.5512C111.699 95.5445 113.069 93.8525 114.667 92.4279L135.261 101.912C135.216 104.051 134.819 106.191 133.894 108.199C132.616 110.975 130.525 114.519 127.832 118.478L115.585 117.11C115.579 117.109 115.574 117.109 115.568 117.108C113.588 116.915 111.822 118.369 111.629 120.349C111.627 120.372 111.626 120.395 111.624 120.418C111.621 120.455 111.618 120.493 111.616 120.531C111.615 120.547 111.615 120.563 111.615 120.579C111.613 120.624 111.612 120.67 111.612 120.715C111.612 120.72 111.612 120.725 111.612 120.73C111.618 121.554 111.903 122.344 112.434 122.99C112.449 123.008 112.467 123.025 112.482 123.043C112.528 123.097 112.575 123.149 112.624 123.2C112.661 123.237 112.698 123.274 112.735 123.31C112.78 123.352 112.825 123.394 112.872 123.434C112.916 123.472 112.962 123.509 113.008 123.546C113.052 123.58 113.098 123.614 113.144 123.646C113.193 123.681 113.242 123.714 113.293 123.746C113.345 123.779 113.397 123.81 113.45 123.84C113.495 123.866 113.541 123.89 113.587 123.914C113.654 123.948 113.722 123.98 113.791 124.01C113.823 124.024 113.856 124.037 113.889 124.05C113.974 124.084 114.06 124.115 114.148 124.143C114.165 124.148 114.183 124.152 114.201 124.158C114.299 124.187 114.399 124.212 114.501 124.233C114.508 124.234 114.516 124.235 114.524 124.237C114.634 124.258 114.746 124.276 114.861 124.287L125.122 125.433L121.319 130.569C121.318 130.571 121.316 130.573 121.315 130.575L119.433 133.116C119.429 133.121 119.427 133.126 119.423 133.131C119.392 133.174 119.364 133.22 119.339 133.267L119.338 133.267C119.337 133.271 119.334 133.274 119.332 133.277L118.969 133.929C118.966 133.935 118.963 133.941 118.959 133.947L106.807 155.735C106.501 156.285 106.683 156.979 107.22 157.306L112.592 160.585C112.782 160.7 112.993 160.756 113.202 160.756C113.556 160.756 113.905 160.596 114.134 160.296L123.937 147.485C124.33 146.971 124.233 146.235 123.719 145.842C123.205 145.449 122.469 145.547 122.076 146.061L112.913 158.034L109.403 155.893L117.456 141.453L118.776 139.087C119.229 140.06 119.962 140.916 120.944 141.522L131.744 148.192L128.519 159.744C128.347 160.362 128.703 161.004 129.318 161.184L135.36 162.953C135.467 162.984 135.578 163 135.689 163C135.886 163 136.081 162.95 136.257 162.853C136.531 162.701 136.732 162.446 136.817 162.145L141.547 145.318C142.097 143.44 141.311 141.422 139.636 140.409L132.531 136.114L139.71 126.417C140.501 125.347 140.92 124.082 140.92 122.758C140.92 120.814 139.988 118.963 138.426 117.806C136.196 116.157 133.208 116.242 131.087 117.819C132.8 115.193 134.223 112.777 135.293 110.678C135.037 113.905 137.006 117.017 140.215 118.065C140.936 118.302 141.687 118.422 142.446 118.422C145.559 118.422 148.299 116.434 149.265 113.475L150.277 110.38C150.277 110.38 150.277 110.38 150.278 110.379C150.494 109.717 150.609 109.04 150.629 108.356C152.538 107.627 154.054 106.064 154.696 104.098L156.064 99.9117C156.193 99.5161 156.102 99.0811 155.825 98.7696ZM116.742 90.8028C121.871 87.2551 128.211 85.851 130.357 85.4567C131.007 86.5752 132.346 89.0431 133.462 92.1574C133.466 92.1701 133.471 92.1827 133.475 92.1954C133.586 92.5051 133.694 92.8213 133.799 93.1431C133.812 93.1817 133.824 93.2206 133.837 93.2593C133.875 93.3774 133.913 93.4964 133.95 93.6159C133.964 93.6624 133.979 93.7089 133.993 93.7556C134.04 93.9062 134.085 94.0578 134.13 94.2106C134.144 94.2575 134.157 94.305 134.17 94.352C134.201 94.4594 134.232 94.567 134.261 94.6753C134.282 94.7484 134.302 94.822 134.321 94.8956C134.344 94.9794 134.366 95.0634 134.388 95.1477C134.409 95.2277 134.43 95.3077 134.45 95.3881C134.472 95.4756 134.493 95.5636 134.515 95.6516C134.55 95.7963 134.584 95.9416 134.617 96.0877C134.632 96.1519 134.646 96.2163 134.66 96.2807C134.682 96.3796 134.703 96.4789 134.724 96.5785C134.736 96.6354 134.748 96.6924 134.759 96.7494C134.831 97.1007 134.896 97.4549 134.954 97.812C134.961 97.8584 134.969 97.9046 134.976 97.951C134.994 98.0632 135.011 98.1757 135.027 98.2884C135.033 98.3331 135.039 98.3779 135.046 98.4228C135.085 98.707 135.119 98.9926 135.148 99.2792L116.742 90.8028ZM116.101 122.067L115.113 121.957C115.108 121.956 115.102 121.956 115.097 121.955C115.053 121.951 115.011 121.945 114.97 121.936C114.965 121.935 114.96 121.934 114.955 121.933C114.423 121.819 114.026 121.376 113.965 120.844C113.964 120.84 113.963 120.835 113.963 120.83C113.959 120.799 113.958 120.768 113.957 120.737C113.957 120.725 113.956 120.714 113.956 120.703C113.955 120.673 113.958 120.643 113.96 120.613C113.961 120.6 113.96 120.588 113.962 120.576C113.962 120.568 113.964 120.56 113.965 120.552C113.969 120.518 113.973 120.485 113.98 120.453C113.983 120.435 113.988 120.418 113.993 120.4C113.998 120.378 114.003 120.356 114.009 120.334C114.015 120.314 114.023 120.295 114.029 120.276C114.036 120.257 114.042 120.239 114.049 120.221C114.058 120.2 114.067 120.18 114.077 120.161C114.084 120.145 114.091 120.129 114.099 120.113C114.11 120.093 114.122 120.073 114.134 120.053C114.142 120.039 114.15 120.025 114.159 120.012C114.172 119.992 114.186 119.972 114.2 119.953C114.209 119.941 114.218 119.929 114.226 119.918C114.242 119.898 114.258 119.879 114.275 119.86C114.284 119.85 114.293 119.84 114.302 119.83C114.32 119.812 114.338 119.794 114.357 119.776C114.367 119.767 114.376 119.759 114.385 119.75C114.405 119.733 114.425 119.716 114.446 119.7C114.456 119.693 114.466 119.685 114.475 119.678C114.497 119.662 114.519 119.647 114.541 119.633C114.552 119.627 114.562 119.62 114.572 119.614C114.595 119.6 114.618 119.587 114.642 119.575C114.653 119.569 114.664 119.564 114.675 119.559C114.699 119.547 114.723 119.536 114.748 119.527C114.76 119.522 114.772 119.517 114.785 119.513C114.809 119.504 114.833 119.495 114.858 119.488C114.872 119.484 114.886 119.481 114.899 119.477C114.924 119.471 114.948 119.464 114.973 119.459C114.989 119.456 115.005 119.454 115.021 119.452C115.044 119.448 115.067 119.444 115.091 119.442C115.111 119.44 115.13 119.439 115.15 119.438C115.171 119.437 115.191 119.435 115.212 119.435C115.252 119.435 115.293 119.437 115.334 119.44L115.744 119.486L116.441 119.564L116.101 122.067ZM138.423 142.415C138.423 142.415 138.423 142.415 138.423 142.416C139.19 142.879 139.549 143.802 139.294 144.672L134.881 160.371L131.088 159.26L134.238 147.973C134.379 147.47 134.17 146.935 133.725 146.661L122.176 139.529C120.658 138.592 120.148 136.639 121.012 135.079L121.368 134.442L122.563 132.828L126.561 135.244L138.423 142.415ZM137.031 119.691C138.013 120.418 138.576 121.536 138.576 122.759C138.576 123.577 138.316 124.36 137.826 125.024L130.517 134.896L127.892 133.309L123.965 130.935L127.816 125.734L133.639 126.384C133.645 126.385 133.65 126.386 133.656 126.386C133.775 126.398 133.893 126.403 134.011 126.403C134.844 126.403 135.645 126.118 136.296 125.581C137.04 124.969 137.502 124.104 137.595 123.145C137.688 122.186 137.402 121.248 136.79 120.505C136.18 119.763 135.318 119.302 134.363 119.207L133.615 119.123C134.74 118.769 136.013 118.938 137.031 119.691ZM134.11 121.537C134.116 121.538 134.121 121.538 134.127 121.539C134.82 121.606 135.329 122.225 135.262 122.918C135.229 123.254 135.068 123.557 134.807 123.771C134.549 123.984 134.223 124.084 133.89 124.054L118.431 122.327L118.772 119.824L130.46 121.129C130.464 121.13 130.468 121.13 130.472 121.131L134.11 121.537ZM148.05 109.652L147.037 112.748C146.387 114.74 144.542 116.078 142.446 116.078C141.936 116.078 141.431 115.998 140.945 115.838C138.412 115.011 137.025 112.277 137.852 109.745L138.151 108.831L140.579 109.625C140.633 109.643 140.688 109.655 140.742 109.664C140.754 109.666 140.766 109.668 140.777 109.67C140.831 109.678 140.884 109.682 140.938 109.683C140.939 109.683 140.941 109.683 140.943 109.683C140.948 109.683 140.952 109.682 140.957 109.682C141.008 109.682 141.059 109.677 141.11 109.67C141.118 109.669 141.126 109.668 141.134 109.667C141.187 109.658 141.239 109.646 141.29 109.63C141.299 109.627 141.308 109.624 141.317 109.62C141.369 109.603 141.419 109.583 141.468 109.559C141.468 109.559 141.468 109.559 141.468 109.559C141.517 109.534 141.563 109.506 141.608 109.475C141.617 109.469 141.625 109.463 141.634 109.457C141.677 109.425 141.718 109.391 141.756 109.354C141.762 109.349 141.767 109.343 141.772 109.338C141.807 109.303 141.84 109.266 141.87 109.226C141.876 109.219 141.881 109.212 141.887 109.205C141.918 109.162 141.947 109.116 141.973 109.068C141.978 109.058 141.984 109.047 141.989 109.037C142.014 108.986 142.037 108.934 142.055 108.879L142.119 108.686C142.135 108.639 142.152 108.594 142.172 108.55C142.175 108.543 142.179 108.537 142.182 108.53C142.199 108.492 142.217 108.455 142.237 108.42C142.238 108.419 142.239 108.417 142.24 108.416C142.499 107.964 142.985 107.69 143.498 107.693C143.502 107.693 143.506 107.693 143.51 107.693C143.547 107.693 143.585 107.696 143.622 107.7C143.633 107.701 143.643 107.701 143.654 107.702C143.686 107.706 143.719 107.712 143.752 107.718C143.766 107.721 143.781 107.723 143.796 107.726C143.843 107.736 143.89 107.749 143.936 107.764L146.085 108.467C146.217 108.51 146.351 108.548 146.485 108.583C146.507 108.589 146.529 108.595 146.552 108.601C146.684 108.634 146.817 108.663 146.951 108.688C146.967 108.692 146.984 108.694 147 108.697C147.28 108.748 147.563 108.781 147.846 108.795C147.862 108.796 147.878 108.797 147.894 108.798C148.011 108.803 148.128 108.807 148.245 108.806C148.206 109.09 148.141 109.373 148.05 109.652ZM152.468 103.371C151.979 104.87 150.716 106.014 149.171 106.356C148.392 106.53 147.577 106.489 146.814 106.24L144.665 105.536C144.569 105.505 144.472 105.478 144.374 105.455C144.362 105.452 144.35 105.449 144.339 105.446C144.242 105.424 144.145 105.405 144.048 105.391C144.04 105.39 144.033 105.388 144.025 105.387C143.26 105.276 142.48 105.402 141.776 105.758C141.738 105.778 141.701 105.8 141.664 105.82C141.656 105.824 141.649 105.828 141.641 105.833C141.285 106.032 140.968 106.283 140.699 106.576C140.695 106.58 140.692 106.584 140.688 106.588C140.622 106.66 140.559 106.735 140.499 106.812C140.497 106.815 140.494 106.818 140.492 106.822C140.429 106.903 140.368 106.986 140.313 107.072L138.883 106.605L138.879 106.603L140.252 102.403C140.873 100.5 142.927 99.4581 144.832 100.08L149.271 101.531C149.711 101.675 150.183 101.703 150.637 101.611L153.212 101.093L152.468 103.371Z" fill="#EF9034"/>
<path d="M104.695 157.981H93.0498C92.4026 157.981 91.8779 158.506 91.8779 159.153C91.8779 159.8 92.4026 160.325 93.0498 160.325H104.695C105.342 160.325 105.867 159.8 105.867 159.153C105.867 158.506 105.342 157.981 104.695 157.981Z" fill="#EF9034"/>
<path d="M104.696 151.253H96.5122C95.865 151.253 95.3403 151.778 95.3403 152.425C95.3403 153.073 95.865 153.597 96.5122 153.597H104.696C105.343 153.597 105.868 153.073 105.868 152.425C105.868 151.778 105.343 151.253 104.696 151.253Z" fill="#EF9034"/>
<path d="M104.695 144.526H101.232C100.585 144.526 100.06 145.051 100.06 145.698C100.06 146.345 100.585 146.87 101.232 146.87H104.695C105.342 146.87 105.866 146.345 105.866 145.698C105.866 145.051 105.342 144.526 104.695 144.526Z" fill="#EF9034"/>
<defs>
<filter id="filter0_d" x="0" y="0" width="246" height="246" filterUnits="userSpaceOnUse" color-interpolation-filters="sRGB">
<feFlood flood-opacity="0" result="BackgroundImageFix"/>
<feColorMatrix in="SourceAlpha" type="matrix" values="0 0 0 0 0 0 0 0 0 0 0 0 0 0 0 0 0 0 127 0"/>
<feMorphology radius="10" operator="dilate" in="SourceAlpha" result="effect1_dropShadow"/>
<feOffset/>
<feGaussianBlur stdDeviation="15"/>
<feColorMatrix type="matrix" values="0 0 0 0 0 0 0 0 0 0 0 0 0 0 0 0 0 0 0.05 0"/>
<feBlend mode="normal" in2="BackgroundImageFix" result="effect1_dropShadow"/>
<feBlend mode="normal" in="SourceGraphic" in2="effect1_dropShadow" result="shape"/>
</filter>
</defs>
</svg>
