<svg width="246" height="246" viewBox="0 0 246 246" fill="none" xmlns="http://www.w3.org/2000/svg">
<g filter="url(#filter0_d)">
<ellipse rx="83" ry="83" transform="matrix(-1 -8.74228e-08 -8.74228e-08 1 123 123)" fill="white"/>
</g>
<path d="M196 123C196 162.771 163.982 195 124.5 195C85.0181 195 53 162.771 53 123C53 83.229 85.0181 51 124.5 51C163.982 51 196 83.229 196 123Z" stroke="#649D1A" stroke-width="2"/>
<path d="M155.627 99.2359C155.627 95.9387 153.215 93.1944 150.063 92.6745C149.211 89.5037 146.342 87.1536 142.983 87.033C141.107 84.4916 138.176 83 134.973 83C130.825 83 127.177 85.5383 125.697 89.3119C122.446 89.4139 119.703 91.5665 118.72 94.5165C112.548 95.3856 106.859 98.3722 102.613 102.998C98.1022 107.911 95.6182 114.252 95.6182 120.853C95.6182 122.475 94.1737 125.456 91.7543 128.827C89.5037 131.963 89.8262 134.17 90.493 135.47C91.1962 136.84 92.936 138.446 97.2001 138.761V145.598C97.2001 150.222 100.996 153.983 105.661 153.983C109.74 153.983 111.986 154.135 112.942 154.962C113.879 155.771 114.175 157.812 114.419 161.54C114.473 162.362 115.155 163 115.978 163H138.384C138.816 163 139.229 162.821 139.524 162.506C139.82 162.191 139.971 161.767 139.943 161.336C139.745 158.315 139.662 156.089 139.676 154.118C139.682 153.255 138.987 152.55 138.124 152.545C138.12 152.545 138.117 152.545 138.113 152.545C137.255 152.545 136.557 153.237 136.551 154.097C136.54 155.761 136.593 157.588 136.723 159.876H117.433C117.161 156.476 116.701 154.08 114.986 152.597C113.109 150.976 110.211 150.859 105.661 150.859C102.719 150.859 100.325 148.499 100.325 145.598V143.504C101.289 143.504 102.786 144.023 104.231 144.857C104.477 144.999 104.746 145.067 105.011 145.067C105.551 145.067 106.076 144.787 106.366 144.286C106.797 143.538 106.541 142.583 105.794 142.151C104.648 141.489 102.413 140.379 100.325 140.379V137.254C100.325 136.391 99.6255 135.691 98.7626 135.691C95.8549 135.691 93.8029 135.076 93.2733 134.043C92.8982 133.312 93.2699 132.075 94.293 130.65C96.3232 127.821 98.743 123.825 98.743 120.853C98.743 110.508 105.477 101.652 115.052 98.5515C114.779 99.1873 114.627 99.8867 114.627 100.621C114.627 103.525 116.989 105.887 119.893 105.887H125.079L123.041 114.422C122.937 114.857 123.025 115.316 123.282 115.682C123.539 116.048 123.941 116.287 124.386 116.337L126.86 116.616L125.26 124.178C125.111 124.881 125.461 125.595 126.108 125.908C126.325 126.014 126.557 126.064 126.788 126.064C127.241 126.064 127.686 125.867 127.991 125.5L138.548 112.779C138.895 112.362 139 111.794 138.826 111.281C138.653 110.767 138.225 110.38 137.697 110.258L135.093 109.657L136.615 105.886H140.757C144.305 110.103 146.252 115.39 146.252 120.853C146.252 125.157 145.048 129.374 142.77 133.048C141.304 135.413 140.155 137.608 139.258 139.756C138.926 140.553 139.302 141.468 140.098 141.8C140.295 141.882 140.499 141.921 140.7 141.921C141.311 141.921 141.892 141.56 142.142 140.96C142.974 138.966 144.048 136.917 145.426 134.694C148.011 130.525 149.377 125.739 149.377 120.853C149.377 115.494 147.728 110.287 144.685 105.886H148.977C152.644 105.886 155.627 102.903 155.627 99.2359ZM117.752 100.62C117.752 99.4401 118.712 98.48 119.893 98.48C120.756 98.48 121.455 97.7803 121.455 96.9175C121.455 94.4448 123.467 92.4331 125.94 92.4331C126.156 92.4331 126.376 92.449 126.593 92.4804C127.388 92.5959 128.14 92.0898 128.334 91.3108C129.092 88.2573 131.822 86.125 134.973 86.125C137.386 86.125 139.575 87.3587 140.828 89.4255C141.138 89.9355 141.709 90.2256 142.304 90.1715C142.442 90.1592 142.579 90.153 142.712 90.153C145.033 90.153 146.996 91.9626 147.181 94.2729C147.246 95.0848 147.924 95.7108 148.739 95.7108H148.977C150.92 95.7108 152.502 97.2922 152.502 99.2359C152.502 101.18 150.921 102.761 148.977 102.761H119.893C118.712 102.761 117.752 101.801 117.752 100.62ZM131.574 111.49C131.785 111.895 132.163 112.188 132.608 112.291L134.525 112.733L129.627 118.634L130.274 115.58C130.365 115.149 130.27 114.699 130.012 114.342C129.755 113.985 129.358 113.753 128.921 113.704L126.491 113.429L128.292 105.886H133.245L131.511 110.183C131.34 110.607 131.362 111.085 131.574 111.49Z" fill="#EF9034"/>
<path d="M103.841 122.866C102.978 122.866 102.279 123.566 102.279 124.429C102.279 125.292 102.979 125.991 103.842 125.991C104.705 125.991 105.405 125.292 105.405 124.429C105.405 123.566 104.705 122.866 103.842 122.866H103.841Z" fill="#EF9034"/>
<path d="M138.7 145.537H138.699C137.836 145.537 137.137 146.237 137.137 147.1C137.137 147.962 137.837 148.662 138.7 148.662C139.563 148.662 140.263 147.962 140.263 147.1C140.263 146.237 139.563 145.537 138.7 145.537Z" fill="#EF9034"/>
<path d="M109.714 118.96C109.714 118.097 109.014 117.397 108.151 117.397C107.556 117.397 106.809 117.079 106.019 116.742C105.023 116.317 103.895 115.835 102.66 115.835C101.797 115.835 101.098 116.535 101.098 117.397C101.098 118.26 101.797 118.96 102.66 118.96C103.256 118.96 104.002 119.279 104.792 119.616C105.788 120.041 106.917 120.522 108.151 120.522C109.014 120.522 109.714 119.823 109.714 118.96Z" fill="#EF9034"/>
<defs>
<filter id="filter0_d" x="0" y="0" width="246" height="246" filterUnits="userSpaceOnUse" color-interpolation-filters="sRGB">
<feFlood flood-opacity="0" result="BackgroundImageFix"/>
<feColorMatrix in="SourceAlpha" type="matrix" values="0 0 0 0 0 0 0 0 0 0 0 0 0 0 0 0 0 0 127 0"/>
<feMorphology radius="10" operator="dilate" in="SourceAlpha" result="effect1_dropShadow"/>
<feOffset/>
<feGaussianBlur stdDeviation="15"/>
<feColorMatrix type="matrix" values="0 0 0 0 0 0 0 0 0 0 0 0 0 0 0 0 0 0 0.05 0"/>
<feBlend mode="normal" in2="BackgroundImageFix" result="effect1_dropShadow"/>
<feBlend mode="normal" in="SourceGraphic" in2="effect1_dropShadow" result="shape"/>
</filter>
</defs>
</svg>
