<svg width="33" height="30" viewBox="0 0 33 30" fill="none" xmlns="http://www.w3.org/2000/svg">
<path d="M15.1247 30C6.78555 30 0 23.2706 0 15.0001C0 6.72964 6.78555 0 15.1247 0C18.0245 0 20.8458 0.819483 23.2836 2.37131C23.7623 2.67693 23.9025 3.30964 23.5943 3.78555C23.2852 4.26146 22.6484 4.39904 22.1686 4.09367C20.0648 2.75308 17.6285 2.04546 15.1247 2.04546C7.92251 2.04546 2.06245 7.85724 2.06245 15.0001C2.06245 22.1428 7.92251 27.9545 15.1247 27.9545C22.3267 27.9545 28.1868 22.1428 28.1868 15.0001C28.1868 14.5732 28.1661 14.1504 28.1263 13.7347C28.0714 13.1714 28.4866 12.6723 29.0531 12.6178C29.6223 12.5659 30.1241 12.9751 30.1792 13.5369C30.2258 14.0183 30.2492 14.5065 30.2492 15.0001C30.2492 23.2706 23.4639 30 15.1247 30Z" fill="#70A43F"/>
<path d="M16.8431 18.4106C16.5792 18.4106 16.3151 18.311 16.1145 18.1108L9.92712 11.9752C9.52429 11.5754 9.52429 10.9278 9.92712 10.5284C10.3299 10.1289 10.983 10.1289 11.3858 10.5284L16.8446 15.9415L31.2389 1.66727C31.642 1.26781 32.2951 1.26781 32.6979 1.66727C33.1007 2.06672 33.1007 2.71433 32.6979 3.11379L17.5732 18.112C17.371 18.311 17.1072 18.4106 16.8431 18.4106Z" fill="#70A43F"/>
</svg>
