<svg width="158" height="158" viewBox="0 0 158 158" fill="none" xmlns="http://www.w3.org/2000/svg">
<g opacity="0.1">
<path d="M4.94032 150.476C4.90897 151.151 5.15488 151.809 5.62019 152.298C6.08548 152.785 6.7316 153.062 7.40665 153.062H24.6879C25.9223 153.062 26.9662 152.151 27.135 150.926C27.7769 146.213 32.6396 110.45 34.1297 96.4952C35.3421 102.384 36.4429 107.257 37.1594 109.406C39.0785 115.168 39.5004 141.092 39.5004 150.594C39.5004 151.958 40.6046 153.062 41.9692 153.062H116.032C117.396 153.062 118.5 151.958 118.5 150.594C118.5 141.092 118.922 115.171 120.841 109.406C121.558 107.257 122.659 102.384 123.871 96.4952C125.361 110.45 130.224 146.213 130.866 150.926C131.035 152.151 132.079 153.062 133.313 153.062H150.594C151.269 153.062 151.915 152.785 152.381 152.298C152.846 151.809 153.092 151.151 153.061 150.476L150.601 98.8585C151.498 92.231 157.781 43.3888 150.242 30.8256C145.215 22.4357 125.511 20.5046 111.123 19.0942C106.364 18.6289 100.968 18.0986 99.8546 17.5416C97.1713 16.2012 96.2889 10.133 96.2817 7.40383C96.2769 6.0417 95.1727 4.9375 93.8129 4.9375H64.1879C62.8234 4.9375 61.7192 6.0417 61.7192 7.40625C61.7192 10.1306 60.8464 16.1915 58.1462 17.5416C57.0324 18.0986 51.6368 18.6289 46.8777 19.0942C32.4895 20.5046 12.7853 22.4358 7.75865 30.8232C0.219799 43.3888 6.50257 92.231 7.39942 98.8585L4.94032 150.476ZM11.9922 33.3619C15.7411 27.1056 35.5345 25.1673 47.3575 24.0076C54.6287 23.2964 58.5079 22.8818 60.3546 21.9584C64.8919 19.6897 66.1648 13.4383 66.5193 9.875H91.4816C91.836 13.4383 93.1089 19.6897 97.6462 21.9584C99.493 22.8817 103.372 23.2964 110.643 24.0076C122.466 25.1673 142.26 27.1056 146.009 33.3643C151.715 42.8777 147.706 83.5469 145.678 98.4173C145.659 98.5668 145.652 98.7162 145.659 98.8681L148.005 148.125H135.468C133.245 131.743 128.375 95.083 128.375 91.3438C128.375 88.9271 127.846 83.0788 127.386 78.45C129.201 68.7537 130.672 60.4387 130.806 59.6791L125.945 58.8209C125.871 59.238 118.541 100.693 116.159 107.844C113.944 114.488 113.618 139.658 113.57 148.125H44.4307C44.3825 139.658 44.057 114.488 41.8414 107.844C39.4594 100.693 32.1303 59.2379 32.0556 58.8209L27.1952 59.6791C27.3293 60.4387 28.7995 68.7537 30.6145 78.45C30.1544 83.0788 29.6254 88.9271 29.6254 91.3438C29.6254 95.083 24.7554 131.743 22.5326 148.125H9.99595L12.3418 98.8681C12.349 98.7163 12.3418 98.5668 12.3225 98.4173C10.2949 83.5469 6.28559 42.8776 11.9922 33.3619Z" fill="#EF9034"/>
<path d="M64.1876 88.875H74.0626V116.031C74.0626 117.133 74.7931 118.1 75.8515 118.404C76.0757 118.469 76.3047 118.5 76.5313 118.5C77.3655 118.5 78.1659 118.076 78.624 117.34L103.311 77.8404C103.789 77.0785 103.813 76.119 103.379 75.3354C102.943 74.5495 102.116 74.0625 101.219 74.0625H92.6746L101.007 55.3154C101.347 54.5512 101.277 53.6688 100.821 52.9672C100.365 52.2657 99.5866 51.8438 98.75 51.8438H61.7189C61.0318 51.8438 60.3736 52.1306 59.9083 52.6345C59.4406 53.1408 59.2043 53.8159 59.2573 54.503L61.7261 86.5967C61.8249 87.8817 62.8978 88.875 64.1876 88.875ZM94.9505 56.7812L86.6185 75.5283C86.2785 76.2926 86.3485 77.175 86.8041 77.8765C87.2598 78.5781 88.0385 79 88.8751 79H96.7635L79.0001 107.424V86.4062C79.0001 85.0417 77.8959 83.9375 76.5313 83.9375H66.4731L64.3853 56.7812H94.9505Z" fill="#EF9034"/>
</g>
</svg>
