<svg width="170" height="170" viewBox="0 0 170 170" fill="none" xmlns="http://www.w3.org/2000/svg">
<path d="M163.38 104.558C165.141 92.0252 162.311 79.4775 162.141 78.7431C162.138 78.7295 162.132 78.7178 162.128 78.7045C162.935 68.7196 157.369 61.6483 155.612 59.6864C156.367 55.6699 155.973 52.2148 154.672 49.6512C151.827 44.0462 147.593 41.9714 145.783 41.3106C144.434 33.9443 139.411 30.0837 137.509 28.8634C137.514 28.4775 137.516 28.0905 137.506 27.6974C137.409 23.7841 136.637 20.4046 136.088 18.4616C140.339 17.7313 144.378 17.0975 147.848 16.6541C148.109 16.6179 150.43 16.2369 151.472 13.9073C152.265 12.1355 152.027 9.90275 150.764 7.27126C150.352 6.41433 149.101 3.80656 146.882 3.80656C145.5 3.80656 144.341 4.80216 143.221 5.7648C142.211 6.63259 141.166 7.53052 140.02 7.71018C139.554 7.78293 138.652 7.92884 137.41 8.1298C129.11 9.47268 105.834 13.2376 96.1643 14.0986C95.8974 12.0849 95.677 7.46018 98.648 4.63013C99.1077 4.19242 99.2947 3.48219 99.1231 2.82543C98.9518 2.16906 98.455 1.69397 97.8612 1.618L85.2498 0.0102494C85.1405 -0.00341648 85.0302 -0.00341648 84.9212 0.0102494L72.3098 1.618C71.716 1.69357 71.2193 2.16906 71.048 2.82543C70.8766 3.48219 71.0637 4.19242 71.523 4.63013C74.4727 7.43927 74.2625 12.0793 74.0029 14.0982C64.3299 13.236 41.0594 9.47228 32.7607 8.1294C31.5188 7.92884 30.6168 7.78293 30.1516 7.70978C29.0053 7.53051 27.961 6.63259 26.9507 5.7648C25.8304 4.80176 24.6715 3.80656 23.2902 3.80656C21.0706 3.80656 19.8189 6.41393 19.4077 7.27086C18.1444 9.90275 17.9059 12.1355 18.6986 13.9069C19.7412 16.2369 22.062 16.6179 22.3346 16.6553C25.7442 17.0914 29.7052 17.7108 33.8772 18.4259C33.3314 20.3857 32.5764 23.7544 32.4833 27.6487C32.4717 28.1294 32.4735 28.6033 32.4829 29.0724C30.5439 30.2919 25.5796 34.058 24.2259 41.307C22.4204 41.9642 18.1777 44.0366 15.3282 49.6508C14.0541 52.1609 13.6474 55.5248 14.3396 59.4348C12.5257 61.5498 7.03796 68.8474 7.88328 78.8127C7.38758 81.0824 5.02329 92.8725 6.62809 104.536C5.17813 108.429 -6.25343 140.554 4.69819 157.196C9.98063 165.223 19.7212 169.766 32.1252 169.991C42.7917 170.184 54.2699 167.023 62.0735 161.741C67.6979 157.933 71.1191 154.833 73.6172 152.569C76.6677 149.804 78.3482 148.281 81.3676 147.749L83.72 153.74C83.9599 154.351 84.4889 154.744 85.0729 154.746C85.0743 154.746 85.0757 154.746 85.0775 154.746C85.6597 154.746 86.1887 154.356 86.4314 153.749L88.8245 147.749C91.7951 148.273 93.4147 149.765 96.3528 152.471C98.8309 154.754 102.225 157.881 107.927 161.741C115.504 166.87 126.544 170 136.946 170C137.256 170 137.566 169.997 137.875 169.992C150.279 169.767 160.019 165.223 165.302 157.196C176.232 140.587 164.865 108.552 163.38 104.558ZM149.603 155.756C132.586 162.777 118.555 152.427 115.994 149.488C115.025 148.376 114.45 146.813 114.617 146.458C114.62 146.451 114.974 146.005 116.563 146.005C117.437 146.005 118.685 146.139 120.453 146.556C121.762 146.865 123.065 147.01 124.361 147.01C138.428 147.008 151.544 129.917 158.438 119.087C158.619 118.802 158.795 118.515 158.965 118.224C164.717 147.019 153.349 154.21 149.603 155.756ZM144.239 54.8294C145.095 56.9894 145.471 60.7918 141.337 65.6512C131.775 76.893 119.763 81.0261 111.369 82.5137C103.208 83.9611 96.7766 83.2617 95.4125 83.0825C94.4561 82.4313 93.9146 81.6676 93.7597 80.7544C93.5247 79.3698 94.1913 77.7584 94.7371 76.7732C107.131 77.9196 137.524 70.8145 144.239 54.8294ZM132.955 51.6284C128.225 57.8837 113.53 64.3204 95.5134 64.0603C94.9764 63.5663 93.8848 62.3754 93.6707 60.6961C93.4903 59.2801 93.9601 57.7298 95.0685 56.0794C99.0176 56.024 117.686 55.2944 129.291 46.5873C131.236 45.1274 132.848 43.383 134.115 41.383C135.135 43.4923 136.158 47.3936 132.955 51.6284ZM137.826 11.5133C139.062 11.3136 139.959 11.1685 140.423 11.0957C142.333 10.7963 143.815 9.52292 145.006 8.49999C145.668 7.93125 146.492 7.22343 146.882 7.22343C147.052 7.22343 147.513 7.58076 148.156 8.92002C148.876 10.4196 149.121 11.6653 148.829 12.3365C148.507 13.074 147.501 13.2605 147.506 13.2605H147.507C130.385 15.4511 99.5732 22.1976 97.1722 22.7262C94.557 22.6703 92.783 21.0083 91.9885 19.4508C91.5023 18.4978 91.4988 17.8314 91.5566 17.6485C91.6158 17.6256 91.8102 17.5991 92.0533 17.6336C92.3276 17.6738 92.6723 17.6931 93.1071 17.6931C99.6268 17.6927 128.378 13.0419 137.826 11.5133ZM126.02 27.1781C125.853 32.2352 123.883 35.6851 120.166 37.4323C112.152 41.1981 101.647 42.3251 97.7064 42.6274C97.747 39.8576 97.7155 34.7855 97.0706 31.3417C100.657 30.5986 109.171 28.7959 113.514 27.5499C119.368 25.871 121.809 22.311 122.552 20.9536C123.458 20.7776 124.37 20.6024 125.287 20.4275C125.586 21.6474 126.116 24.2668 126.02 27.1781ZM21.3425 12.3361C21.0503 11.6649 21.2955 10.4196 22.0154 8.91961C22.6579 7.58076 23.1186 7.22343 23.2895 7.22343C23.6798 7.22343 24.5034 7.93125 25.1651 8.49999C26.3559 9.52292 27.8374 10.7963 29.7483 11.0953C30.2115 11.1681 31.109 11.3132 32.3445 11.5129C41.7926 13.0415 70.5438 17.6923 77.0643 17.6927C77.0647 17.6927 77.065 17.6927 77.0657 17.6927C77.4997 17.6927 77.8441 17.673 78.1181 17.6332C78.3615 17.5987 78.5553 17.6252 78.6145 17.6481C78.6723 17.831 78.6688 18.4974 78.1829 19.4504C77.3883 21.0079 75.614 22.6703 72.9989 22.7258C70.5978 22.1976 39.787 15.4507 22.6912 13.2638C22.681 13.2626 21.6655 13.0781 21.3425 12.3361ZM56.4856 27.5495C60.8288 28.7955 69.3426 30.5982 72.9292 31.3413C72.2842 34.7851 72.2527 39.8576 72.2937 42.627C68.353 42.3247 57.8476 41.1977 49.8341 37.4319C41.9657 33.7341 44.0031 23.227 44.7163 20.3954C45.6062 20.5646 46.4921 20.735 47.3725 20.9054C48.1586 22.3009 50.6745 25.883 56.4856 27.5495ZM36.1914 41.8476C37.4087 43.6555 38.9175 45.2428 40.7087 46.5869C52.3147 55.2944 70.9835 56.024 74.9312 56.079C76.0396 57.7298 76.5098 59.2801 76.329 60.6957C76.1146 62.3774 75.0199 63.57 74.487 64.0599C56.4656 64.3184 41.7754 57.8833 37.0447 51.6276C33.7749 47.3039 35.0704 43.6812 36.1914 41.8476ZM25.8637 55.0702C32.3004 69.7839 58.8425 76.893 72.4387 76.8922C73.4564 76.8922 74.4033 76.8524 75.2623 76.7728C75.8098 77.76 76.4751 79.3706 76.24 80.754C76.0852 81.6668 75.5436 82.4309 74.5876 83.0821C71.6901 83.4583 46.0679 86.1139 28.6624 65.6508C26.3895 62.9787 25.2604 60.3496 25.3067 57.8367C25.3263 56.7611 25.5659 55.8258 25.8637 55.0702ZM11.0347 118.224C11.205 118.515 11.3805 118.802 11.5616 119.087C18.4569 129.917 31.5707 147.01 45.6384 147.01C46.9342 147.01 48.2388 146.865 49.5469 146.556C54.5322 145.381 55.3779 146.447 55.3832 146.458C55.5499 146.813 54.9747 148.376 54.0057 149.488C51.4445 152.427 37.4129 162.777 20.3963 155.756C16.6507 154.21 5.28287 147.02 11.0347 118.224ZM162.926 155.137C152.396 171.137 123.668 168.43 109.44 158.798C103.922 155.063 100.625 152.025 98.2172 149.807C94.8412 146.698 92.6114 144.643 88.0446 144.206C87.4197 144.146 86.8283 144.543 86.567 145.198L85.088 148.907L83.6352 145.207C83.376 144.547 82.7804 144.147 82.1541 144.207C77.5547 144.647 75.3779 146.619 71.7714 149.888C69.2049 152.214 66.0111 155.109 60.5605 158.799C46.3317 168.431 17.6035 171.137 7.0744 155.138C-0.903382 143.015 4.74303 120.407 7.83143 110.468C8.14532 111.602 8.50719 112.718 8.92617 113.807C8.92337 113.817 8.92092 113.828 8.91847 113.838C5.87631 126.848 5.66051 137.565 8.27633 145.694C10.3565 152.157 14.3032 156.873 19.3888 158.971C23.959 160.857 28.3117 161.602 32.3246 161.602C44.6999 161.602 53.839 154.511 56.1115 151.904C57.2826 150.56 59.1855 147.353 58.0046 144.839C56.5784 141.801 52.1525 142.455 48.9475 143.21C34.5568 146.603 19.689 126.062 13.9658 117.072C8.10783 107.871 8.68901 94.0457 9.67795 86.0648C10.2444 87.4905 10.9321 88.9817 11.7403 90.5215C11.2032 93.5059 9.80512 104.271 15.5223 113.132C15.7038 113.413 15.8985 113.718 16.107 114.044C20.9259 121.574 32.5838 139.792 49.274 139.792C52.0632 139.791 54.9933 139.282 58.055 138.13C75.2497 131.657 77.7299 118.256 77.8325 117.654C78.3461 114.287 77.4258 112.786 77.1316 112.406C76.6755 111.817 75.9289 111.662 75.3225 112.031C75.2272 112.089 65.6082 117.842 50.7488 119.419C44.4042 120.092 35.3054 114.855 26.4056 105.41C21.69 100.405 17.5485 94.7202 14.7351 89.5914C14.6647 89.37 14.5551 89.167 14.4132 88.9966C12.6721 85.7292 11.4915 82.7115 11.0715 80.2709C9.74592 72.571 13.1997 66.3092 15.3373 63.2995C15.6989 64.3795 16.129 65.4856 16.6486 66.6199C15.5503 69.2984 12.1417 79.1724 17.6768 87.2956C23.5484 95.9135 39.1614 111.478 57.7149 111.477C58.5963 111.477 59.485 111.442 60.379 111.369L60.8246 111.333C65.5865 110.952 72.7824 110.375 77.6273 104.134C80.9822 99.8115 78.605 94.4927 76.879 92.2836C76.5711 91.8889 76.1184 91.6831 75.6613 91.7205C75.1407 91.7643 74.5238 91.8278 73.8204 91.8998C65.8384 92.7197 47.1444 94.6398 32.8644 82.1496C19.1071 70.1155 14.8868 57.3102 17.901 51.3715C19.7244 47.779 22.2158 45.9719 23.8819 45.1085C23.8798 46.9169 24.0925 48.8916 24.591 51.0456C23.8178 52.0886 22.4116 54.423 22.3307 57.69C22.2445 61.178 23.6577 64.6596 26.531 68.0375C36.6941 79.9859 49.4022 84.3506 58.2729 85.9077C62.3601 86.6251 65.9974 86.8341 68.8494 86.8341C72.6843 86.8341 75.0987 86.4559 75.2696 86.4286C75.4448 86.4 75.6143 86.3361 75.7702 86.2393C78.1548 84.7597 78.9329 82.7838 79.1659 81.3871C79.7845 77.6772 77.3859 74.2587 77.1102 73.8809C76.7879 73.4388 76.294 73.2129 75.7944 73.2808C70.4079 74.0099 59.4917 72.7434 49.054 68.9137C37.4487 64.656 29.9554 58.6466 27.9547 51.9929C24.5685 40.729 29.921 34.9749 32.7996 32.8068C33.1247 34.9556 33.6887 36.9584 34.5014 38.7881C32.265 41.6426 30.0482 47.5909 34.7947 53.8676C40.7494 61.7419 57.2258 67.484 73.5538 67.4836C74.0379 67.4836 74.5231 67.4788 75.0065 67.4688C75.2749 67.4627 75.5366 67.3743 75.7646 67.2119C75.8869 67.1247 78.7626 65.037 79.2685 61.2379C79.6178 58.6161 78.7756 55.9311 76.7655 53.259C76.4803 52.88 76.0656 52.6618 75.6277 52.6666C75.4122 52.6658 54.3476 52.7389 42.3377 43.7279C37.6284 40.1944 35.3131 34.8499 35.4568 27.8425C35.5366 23.9441 36.3868 20.5585 36.864 18.9484C38.4793 19.2358 40.1132 19.5332 41.7481 19.8375C40.2645 25.9027 40.0939 36.5468 48.7047 40.594C59.2146 45.5334 73.1866 46.1198 73.7762 46.1427C73.7927 46.1431 73.8095 46.1435 73.826 46.1435C74.2222 46.1435 74.603 45.9622 74.8832 45.6383C75.1747 45.3007 75.3309 44.8392 75.3138 44.3641C75.2097 41.4855 75.1645 33.4137 76.1941 30.6725C76.3742 30.193 76.3532 29.6452 76.137 29.1857C75.9209 28.7259 75.5334 28.4052 75.0854 28.3143C74.961 28.289 62.579 25.7765 57.2073 24.2359C55.1085 23.6342 53.557 22.7652 52.4289 21.9006C63.4524 24.0984 72.4114 26.0759 72.5813 26.1133C72.6745 26.1342 72.7687 26.1443 72.8633 26.1443C78.2859 26.1443 81.6153 21.3323 81.6153 17.8824C81.6153 16.8503 81.3256 15.9535 80.7773 15.2899C80.3657 14.7919 79.6132 14.1975 78.3661 14.1975C78.165 14.1975 77.9548 14.2135 77.7411 14.2445C77.6588 14.2565 77.4619 14.2766 77.065 14.2766C77.0647 14.2766 77.0643 14.2766 77.0639 14.2766C77.0412 14.2766 77.0153 14.2758 76.9918 14.2758C77.2468 12.06 77.3368 8.08318 75.4567 4.65465L85.0845 3.42713L94.7122 4.65465C92.8321 8.08278 92.9221 12.06 93.1771 14.2758C93.154 14.2758 93.1281 14.2766 93.1053 14.2766C92.7074 14.2766 92.5101 14.2565 92.4278 14.2445C92.2141 14.2135 92.0036 14.1975 91.8028 14.1975C90.5557 14.1975 89.8036 14.7919 89.392 15.2899C88.8437 15.9535 88.554 16.8503 88.554 17.8824C88.554 21.3323 91.8834 26.1443 97.306 26.1443C97.4006 26.1443 97.4952 26.1342 97.588 26.1133C97.7569 26.0759 106.595 24.1253 117.516 21.9452C116.408 22.7889 114.876 23.6378 112.791 24.2359C107.419 25.7765 95.0377 28.289 94.913 28.3143C94.4649 28.4052 94.0775 28.7259 93.8613 29.1857C93.6452 29.6452 93.6245 30.193 93.8042 30.6725C94.8338 33.4137 94.789 41.4855 94.6849 44.3641C94.6677 44.8392 94.8236 45.3007 95.1154 45.6383C95.3954 45.9622 95.7761 46.1435 96.1724 46.1435C96.1888 46.1435 96.2053 46.1431 96.2221 46.1427C96.8117 46.1198 110.783 45.5334 121.293 40.594C129.89 36.5537 129.734 25.9389 128.257 19.8684C129.879 19.5666 131.5 19.2707 133.105 18.985C134.249 22.6892 137.583 36.2832 127.66 43.7283C115.665 52.7289 94.5739 52.665 94.37 52.667C93.9363 52.6702 93.5173 52.88 93.2325 53.2594C91.2224 55.9311 90.3802 58.6161 90.7295 61.2387C91.2353 65.0374 94.1111 67.1255 94.2334 67.2123C94.4611 67.3743 94.7231 67.4631 94.9914 67.4692C95.4763 67.4792 95.959 67.484 96.4446 67.484C112.771 67.4836 129.249 61.7419 135.204 53.8684C139.952 47.5901 137.88 41.1707 135.794 38.0935C136.471 36.4078 136.945 34.583 137.223 32.6416C140.106 34.8756 145.427 40.7395 142.044 51.9937C140.043 58.6478 132.55 64.6568 120.945 68.9149C110.507 72.7438 99.5918 74.0107 94.2043 73.2816C93.7061 73.2141 93.2111 73.44 92.8885 73.8813C92.6128 74.2587 90.2145 77.6776 90.8328 81.3879C91.0658 82.785 91.8438 84.7609 94.2284 86.2401C94.384 86.3365 94.5535 86.4005 94.7287 86.4294C94.9 86.4567 97.3126 86.8349 101.149 86.8349C104.001 86.8349 107.64 86.6259 111.726 85.9085C120.597 84.3514 133.305 79.9871 143.468 68.0383C146.36 64.6379 147.799 61.1314 147.746 57.6169C147.693 54.116 146.136 51.6887 145.463 50.8004C145.92 48.7477 146.119 46.8558 146.119 45.1154C147.785 45.9819 150.281 47.7919 152.098 51.3719C155.112 57.3106 150.892 70.1159 137.134 82.15C122.854 94.6406 104.161 92.7201 96.1783 91.9002C95.4752 91.8278 94.858 91.7647 94.3374 91.7209C93.8792 91.6859 93.4276 91.8901 93.1197 92.284C91.3937 94.4927 89.0164 99.8119 92.3714 104.134C97.216 110.375 104.412 110.952 109.174 111.334L109.62 111.37C110.515 111.443 111.401 111.478 112.284 111.478C130.835 111.476 146.451 95.9131 152.322 87.296C157.857 79.1724 154.448 69.2992 153.35 66.6203C153.843 65.5435 154.255 64.4924 154.605 63.4638C156.721 66.3031 160.276 72.4359 158.927 80.2713C158.506 82.7131 157.325 85.7328 155.582 89.0022C155.443 89.171 155.335 89.3704 155.265 89.5878C152.452 94.7182 148.309 100.404 143.592 105.411C135.203 114.314 126.637 119.478 120.369 119.478C119.987 119.478 119.613 119.458 119.249 119.42C104.435 117.848 94.7707 112.089 94.6758 112.032C94.0691 111.663 93.3225 111.819 92.8668 112.406C92.5721 112.786 91.6515 114.288 92.1707 117.689C92.2677 118.256 94.748 131.658 111.943 138.13C115.006 139.283 117.933 139.792 120.724 139.792C137.412 139.79 149.072 121.575 153.891 114.045C154.099 113.719 154.294 113.414 154.476 113.133C160.192 104.272 158.795 93.5075 158.257 90.5223C159.066 88.9833 159.753 87.4929 160.319 86.0681C161.305 94.1112 161.862 107.915 156.032 117.073C150.738 125.388 137.625 143.588 124.296 143.585C123.215 143.585 122.13 143.465 121.05 143.21C117.845 142.455 113.419 141.801 111.993 144.839C110.812 147.354 112.715 150.56 113.887 151.905C116.159 154.512 125.297 161.604 137.673 161.603C141.686 161.603 146.04 160.857 150.609 158.972C155.695 156.873 159.641 152.158 161.722 145.694C164.338 137.566 164.122 126.848 161.08 113.838C161.077 113.827 161.074 113.815 161.071 113.803C161.489 112.713 161.852 111.598 162.166 110.466C165.256 120.404 170.904 143.014 162.926 155.137ZM14.2524 94.8725C16.9996 99.2516 20.4849 103.779 24.3839 107.917C34.0355 118.16 43.7446 123.593 51.0231 122.82C62.9427 121.556 71.5209 117.765 75.0055 115.984C74.9964 116.28 74.9666 116.627 74.9053 117.029C74.885 117.148 72.6822 129.028 57.127 134.883C37.793 142.159 23.7821 120.265 18.5074 112.022C18.2961 111.692 18.0989 111.383 17.9157 111.099C14.3708 105.605 14.0117 99.0607 14.2524 94.8725ZM18.5827 70.3073C21.3299 74.9645 25.4062 79.9204 31.0596 84.8659C46.2584 98.1604 65.7592 96.1571 74.0863 95.3018C74.4467 95.2648 74.7837 95.2302 75.0962 95.1993C75.8865 96.4754 77.2994 99.4188 75.4038 101.861C71.3653 107.063 65.1532 107.561 60.6173 107.925L60.1685 107.961C43.0446 109.349 26.7787 95.1064 20.0225 85.1906C16.5463 80.0876 17.5611 73.8258 18.5827 70.3073ZM149.977 85.1906C143.221 95.1068 126.954 109.354 109.832 107.961L109.383 107.925C104.847 107.561 98.6347 107.063 94.5966 101.861C92.7179 99.4409 94.1255 96.4811 94.9095 95.2001C95.2205 95.2306 95.5558 95.2652 95.9142 95.3018C104.241 96.1575 123.741 98.1604 138.941 84.8659C144.598 79.9176 148.675 74.9589 151.423 70.2988C152.449 73.8089 153.471 80.0627 149.977 85.1906ZM152.084 111.1C151.9 111.384 151.703 111.692 151.492 112.022C146.217 120.265 132.205 142.159 112.872 134.883C97.5799 129.127 95.2258 117.736 95.0955 117.039C95.0345 116.632 95.0047 116.283 94.9956 115.986C98.4813 117.766 107.058 121.556 118.976 122.821C119.433 122.869 119.898 122.893 120.373 122.893C127.471 122.893 136.569 117.519 145.615 107.917C149.514 103.779 152.999 99.252 155.747 94.8737C155.988 99.0619 155.629 105.605 152.084 111.1Z" fill="#649D1A" fill-opacity="0.1"/>
<path d="M81.8638 49.6025H88.8702C89.6924 49.6025 90.359 48.9143 90.359 48.0654C90.359 47.2162 89.6924 46.5283 88.8702 46.5283H81.8638C81.0417 46.5283 80.375 47.2162 80.375 48.0654C80.375 48.9143 81.0417 49.6025 81.8638 49.6025Z" fill="#649D1A" fill-opacity="0.1"/>
<path d="M81.8638 31.0273H88.8702C89.6924 31.0273 90.359 30.3388 90.359 29.4888C90.359 28.6391 89.6924 27.9502 88.8702 27.9502H81.8638C81.0417 27.9502 80.375 28.6391 80.375 29.4888C80.375 30.3388 81.0417 31.0273 81.8638 31.0273Z" fill="#649D1A" fill-opacity="0.1"/>
<path d="M90.9735 82.5059C91.7957 82.5059 92.4623 81.8171 92.4623 80.9668C92.4623 80.1169 91.7957 79.4277 90.9735 79.4277H79.7633C78.9411 79.4277 78.2744 80.1169 78.2744 80.9668C78.2744 81.8171 78.9411 82.5059 79.7633 82.5059H90.9735Z" fill="#649D1A" fill-opacity="0.1"/>
<path d="M80.4635 98.9541H90.2723C91.0945 98.9541 91.7612 98.2658 91.7612 97.416C91.7612 96.5666 91.0945 95.8779 90.2723 95.8779H80.4635C79.6413 95.8779 78.9746 96.5666 78.9746 97.416C78.9746 98.2658 79.6413 98.9541 80.4635 98.9541Z" fill="#649D1A" fill-opacity="0.1"/>
<path d="M81.0465 66.0537H89.6877C90.5099 66.0537 91.1766 65.3652 91.1766 64.5161C91.1766 63.6666 90.5099 62.9785 89.6877 62.9785H81.0465C80.2243 62.9785 79.5576 63.6666 79.5576 64.5161C79.5576 65.3652 80.2243 66.0537 81.0465 66.0537Z" fill="#649D1A" fill-opacity="0.1"/>
<path d="M92.1399 112.331H78.5943C77.7721 112.331 77.1055 113.02 77.1055 113.869C77.1055 114.719 77.7721 115.407 78.5943 115.407H92.1399C92.9621 115.407 93.6288 114.719 93.6288 113.869C93.6288 113.02 92.9621 112.331 92.1399 112.331Z" fill="#649D1A" fill-opacity="0.1"/>
</svg>
