<svg width="214" height="28" viewBox="0 0 214 28" fill="none" xmlns="http://www.w3.org/2000/svg">
<path d="M13.5873 0L16.6378 9.38859H26.5096L18.5232 15.1911L21.5737 24.5797L13.5873 18.7772L5.60089 24.5797L8.65142 15.1911L0.665009 9.38859H10.5368L13.5873 0Z" fill="#FFE600"/>
<path d="M60.2934 0L63.3439 9.38859H73.2156L65.2292 15.1911L68.2798 24.5797L60.2934 18.7772L52.3069 24.5797L55.3575 15.1911L47.3711 9.38859H57.2428L60.2934 0Z" fill="#FFE600"/>
<path d="M107 0L110.051 9.38859H119.923L111.936 15.1911L114.987 24.5797L107 18.7772L99.014 24.5797L102.065 15.1911L94.0781 9.38859H103.95L107 0Z" fill="#FFE600"/>
<path d="M153.706 0L156.757 9.38859H166.629L158.642 15.1911L161.693 24.5797L153.706 18.7772L145.72 24.5797L148.771 15.1911L140.784 9.38859H150.656L153.706 0Z" fill="#FFE600"/>
<path d="M200.412 0L203.463 9.38859H213.335L205.348 15.1911L208.399 24.5797L200.412 18.7772L192.426 24.5797L195.477 15.1911L187.49 9.38859H197.362L200.412 0Z" fill="#FFE600"/>
</svg>
