<svg width="35" height="35" viewBox="0 0 35 35" fill="none" xmlns="http://www.w3.org/2000/svg">
<path d="M33.6307 27.8306L29.8285 25.2437L26.4484 22.9446C25.7961 22.5017 24.9194 22.6469 24.4378 23.2777L22.3463 26.0215C21.897 26.6169 21.0888 26.788 20.4446 26.424C19.0254 25.6184 17.3472 24.8599 13.6443 21.0763C9.94135 17.2927 9.19331 15.585 8.40387 14.1368C8.04716 13.4793 8.21483 12.6545 8.79829 12.1961L11.4871 10.0618C12.1052 9.5704 12.2475 8.6758 11.8135 8.01005L9.62973 4.66698L7.02548 0.680579C6.58223 0.00205217 5.69492 -0.201656 5.00965 0.217723L2.00622 2.05643C1.19454 2.54444 0.597892 3.33248 0.339859 4.25717C-0.481467 7.313 -0.647058 14.054 9.93954 24.8574C20.5261 35.6608 27.1313 35.4913 30.1258 34.6531C31.032 34.3898 31.8042 33.781 32.2824 32.9526L34.0842 29.8877C34.4953 29.1884 34.2956 28.2829 33.6307 27.8306Z" fill="#06251B"/>
<path d="M19.5132 5.43093C25.0625 5.43722 29.5597 10.0264 29.5658 15.6894C29.5658 16.0227 29.8306 16.2929 30.1572 16.2929C30.4837 16.2929 30.7485 16.0228 30.7485 15.6894C30.7417 9.36018 25.7155 4.23103 19.5132 4.22406C19.1867 4.22406 18.9219 4.49421 18.9219 4.82753C18.9218 5.16071 19.1865 5.43093 19.5132 5.43093Z" fill="#06251B"/>
<path d="M19.5132 9.05154C23.1039 9.05585 26.0136 12.0252 26.0179 15.6894C26.0179 16.0226 26.2826 16.2928 26.6092 16.2928C26.9358 16.2928 27.2006 16.0227 27.2006 15.6894C27.1957 11.3589 23.7569 7.84959 19.5132 7.8446C19.1867 7.8446 18.9219 8.11476 18.9219 8.44807C18.9219 8.78139 19.1866 9.05154 19.5132 9.05154Z" fill="#06251B"/>
<path d="M19.5132 12.6722C21.1453 12.6742 22.4679 14.0239 22.4698 15.6894C22.4698 16.0227 22.7346 16.2929 23.0612 16.2929C23.3878 16.2929 23.6526 16.0227 23.6526 15.6894C23.6499 13.3576 21.7982 11.468 19.5132 11.4653C19.1867 11.4653 18.9219 11.7355 18.9219 12.0688C18.9218 12.402 19.1865 12.6722 19.5132 12.6722Z" fill="#06251B"/>
</svg>
