<svg width="50" height="50" viewBox="0 0 50 50" fill="none" xmlns="http://www.w3.org/2000/svg">
<path d="M47.2223 34.7223C43.7639 34.7223 40.4167 34.1667 37.3056 33.1389C36.3473 32.8333 35.25 33.0556 34.4862 33.8195L28.3751 39.9445C20.5001 35.9445 14.0695 29.5139 10.0695 21.6529L16.1806 15.5139C16.9445 14.75 17.1667 13.6529 16.8612 12.6945C15.8335 9.58346 15.2779 6.2362 15.2779 2.77786C15.2777 1.23607 14.0417 0 12.5 0H2.77773C1.25 0 0 1.23607 0 2.77773C0 28.8611 21.1389 50 47.2223 50C48.7639 50 50 48.7639 50 47.2223V37.5C50 35.9583 48.7639 34.7223 47.2223 34.7223Z" fill="#649D1A"/>
</svg>
